<mxfile host="app.diagrams.net" modified="2023-01-10T07:39:10.232Z" agent="5.0 (Macintosh; Intel Mac OS X 10_15_7) AppleWebKit/537.36 (KHTML, like Gecko) Chrome/108.0.0.0 Safari/537.36" version="20.7.4" etag="CQ-BUoX1IbuZJDb1seaW" type="github">
  <diagram id="PpAofkRqj2RNm2VE1QHP" name="第 1 页">
    <mxGraphModel dx="1062" dy="771" grid="1" gridSize="10" guides="1" tooltips="1" connect="1" arrows="1" fold="1" page="1" pageScale="1" pageWidth="827" pageHeight="1169" math="0" shadow="0">
      <root>
        <mxCell id="0" />
        <mxCell id="1" parent="0" />
        <mxCell id="ctM86ocRxog4_zbnZnWh-9" style="edgeStyle=orthogonalEdgeStyle;rounded=0;orthogonalLoop=1;jettySize=auto;html=1;exitX=0.5;exitY=1;exitDx=0;exitDy=0;fontSize=18;" edge="1" parent="1" source="ctM86ocRxog4_zbnZnWh-3" target="ctM86ocRxog4_zbnZnWh-8">
          <mxGeometry relative="1" as="geometry" />
        </mxCell>
        <mxCell id="ctM86ocRxog4_zbnZnWh-3" value="&lt;font style=&quot;font-size: 18px;&quot;&gt;entry&lt;/font&gt;" style="rounded=0;whiteSpace=wrap;html=1;" vertex="1" parent="1">
          <mxGeometry x="450" y="1350" width="120" height="60" as="geometry" />
        </mxCell>
        <mxCell id="ctM86ocRxog4_zbnZnWh-4" value="转转APP" style="text;html=1;align=center;verticalAlign=middle;resizable=0;points=[];autosize=1;strokeColor=none;fillColor=none;fontSize=18;" vertex="1" parent="1">
          <mxGeometry x="80" y="1270" width="100" height="40" as="geometry" />
        </mxCell>
        <mxCell id="ctM86ocRxog4_zbnZnWh-5" value="" style="endArrow=classic;html=1;rounded=0;fontSize=18;exitX=1;exitY=0.5;exitDx=0;exitDy=0;entryX=0;entryY=0.5;entryDx=0;entryDy=0;" edge="1" parent="1" target="ctM86ocRxog4_zbnZnWh-3">
          <mxGeometry width="50" height="50" relative="1" as="geometry">
            <mxPoint x="185.77999999999997" y="1175" as="sourcePoint" />
            <mxPoint x="210" y="1450" as="targetPoint" />
          </mxGeometry>
        </mxCell>
        <mxCell id="ctM86ocRxog4_zbnZnWh-6" value="&lt;font style=&quot;font-size: 12px;&quot;&gt;https://app.zhuanzhuan.com/zzproduct/like&lt;/font&gt;" style="text;html=1;align=center;verticalAlign=middle;resizable=0;points=[];autosize=1;strokeColor=none;fillColor=none;fontSize=18;rotation=40;" vertex="1" parent="1">
          <mxGeometry x="210" y="1250" width="250" height="40" as="geometry" />
        </mxCell>
        <mxCell id="ctM86ocRxog4_zbnZnWh-7" value="&lt;span style=&quot;color: rgb(0, 0, 0); font-family: Helvetica; font-size: 12px; font-style: normal; font-variant-ligatures: normal; font-variant-caps: normal; font-weight: 400; letter-spacing: normal; orphans: 2; text-align: center; text-indent: 0px; text-transform: none; widows: 2; word-spacing: 0px; -webkit-text-stroke-width: 0px; background-color: rgb(251, 251, 251); text-decoration-thickness: initial; text-decoration-style: initial; text-decoration-color: initial; float: none; display: inline !important;&quot;&gt;cookie：zzreferer=https://app.zhuanzhuan.com/zzproduct/detail&lt;/span&gt;" style="text;whiteSpace=wrap;html=1;fontSize=12;rotation=38;" vertex="1" parent="1">
          <mxGeometry x="171" y="1265" width="260" height="40" as="geometry" />
        </mxCell>
        <mxCell id="ctM86ocRxog4_zbnZnWh-11" style="edgeStyle=orthogonalEdgeStyle;rounded=0;orthogonalLoop=1;jettySize=auto;html=1;exitX=1;exitY=0.5;exitDx=0;exitDy=0;fontSize=18;dashed=1;" edge="1" parent="1" source="ctM86ocRxog4_zbnZnWh-8" target="ctM86ocRxog4_zbnZnWh-10">
          <mxGeometry relative="1" as="geometry" />
        </mxCell>
        <mxCell id="ctM86ocRxog4_zbnZnWh-8" value="&lt;font style=&quot;font-size: 18px;&quot;&gt;日志&lt;/font&gt;" style="shape=document;whiteSpace=wrap;html=1;boundedLbl=1;fontSize=12;" vertex="1" parent="1">
          <mxGeometry x="450" y="1470" width="120" height="60" as="geometry" />
        </mxCell>
        <mxCell id="ctM86ocRxog4_zbnZnWh-10" value="Hadoop" style="shape=cylinder3;whiteSpace=wrap;html=1;boundedLbl=1;backgroundOutline=1;size=15;fontSize=18;" vertex="1" parent="1">
          <mxGeometry x="700" y="1455" width="80" height="90" as="geometry" />
        </mxCell>
        <mxCell id="ctM86ocRxog4_zbnZnWh-13" value="小程序" style="text;html=1;align=center;verticalAlign=middle;resizable=0;points=[];autosize=1;strokeColor=none;fillColor=none;fontSize=18;" vertex="1" parent="1">
          <mxGeometry x="88.28" y="1714" width="80" height="40" as="geometry" />
        </mxCell>
        <mxCell id="ctM86ocRxog4_zbnZnWh-14" value="" style="endArrow=classic;html=1;rounded=0;fontSize=18;exitX=1;exitY=0.5;exitDx=0;exitDy=0;entryX=0;entryY=0.5;entryDx=0;entryDy=0;" edge="1" parent="1" target="ctM86ocRxog4_zbnZnWh-3">
          <mxGeometry width="50" height="50" relative="1" as="geometry">
            <mxPoint x="185.77999999999997" y="1602.83" as="sourcePoint" />
            <mxPoint x="460" y="1491" as="targetPoint" />
          </mxGeometry>
        </mxCell>
        <mxCell id="ctM86ocRxog4_zbnZnWh-15" value="&lt;font style=&quot;font-size: 12px;&quot;&gt;https://app.zhuanzhuan.com/zzproduct/like&lt;/font&gt;" style="text;html=1;align=center;verticalAlign=middle;resizable=0;points=[];autosize=1;strokeColor=none;fillColor=none;fontSize=18;rotation=-40;" vertex="1" parent="1">
          <mxGeometry x="170.28" y="1464" width="250" height="40" as="geometry" />
        </mxCell>
        <mxCell id="ctM86ocRxog4_zbnZnWh-16" value="&lt;span style=&quot;color: rgb(0, 0, 0); font-family: Helvetica; font-size: 12px; font-style: normal; font-variant-ligatures: normal; font-variant-caps: normal; font-weight: 400; letter-spacing: normal; orphans: 2; text-align: center; text-indent: 0px; text-transform: none; widows: 2; word-spacing: 0px; -webkit-text-stroke-width: 0px; background-color: rgb(251, 251, 251); text-decoration-thickness: initial; text-decoration-style: initial; text-decoration-color: initial; float: none; display: inline !important;&quot;&gt;cookie：zzreferer=https://app.zhuanzhuan.com/zzproduct/detail&lt;/span&gt;" style="text;whiteSpace=wrap;html=1;fontSize=12;rotation=-40;" vertex="1" parent="1">
          <mxGeometry x="185.78" y="1504" width="260" height="40" as="geometry" />
        </mxCell>
        <mxCell id="ctM86ocRxog4_zbnZnWh-17" value="" style="shape=image;verticalLabelPosition=bottom;labelBackgroundColor=default;verticalAlign=top;aspect=fixed;imageAspect=0;image=data:image/png,iVBORw0KGgoAAAANSUhEUgAAAQkAAAIICAYAAAB93BtcAAAAAXNSR0IArs4c6QAAIABJREFUeF7sfQecXGW99nOmz2xvyab3CgRCR0oo0kKRXsUCWK6oyKdeKfKJVBt6BQQ/vYqK14KoiAVEkBoSCD29l91kk832MrPTv9//Lee858wpM1tSuDv3xmV3Tnnb/3mff321fD6fx+hndARGR2B0BBxGQBsFidG1MToCoyPgNgKjIDG6PkZHYHQEXEdgFCRGF8joCAxiBKxauqZpRT/FTcMv5TlFv3CIF46CxBAHcPT2D+4ISGGmn5lMhnU0EAiABHl/FGa3mUin08hmswgGg/D7/SVN2ihIlDRcoxf/bxqBXC4H+kcgQT/pQ0Lm8/nY3wbz2VfgQiBB/6j9BBbhcLhooBsFicHM9Og9H/gRIFAgoZK7Lv1UBXyoIDHY+wc78LLt9N5UKqX3i5iR12cUJLxGaPT7/3UjQACRTCYRCoWYMJFg7SsGMFKDT30kRkF9o366fUZBYqRmYfS5B+wIEEAQOBSzyx6wnQSYCkW2FuonqVBOnyGBxMaNG/Hss8/iqKOOYv9GP6MjcKCPgDRSSgPlgdCf733ve/j1r3/N1AiyNZx55pm45ZZbUFVV5dl8AglSq6LR6PCDRHNzM+68806Ul5fj29/+NjOIjH5GR+BAH4Genh5UVlYeECoGbdIf+chHsHnzZsYEqN0DAwNIJOKYOHESA4rrrrvOc0oIKAgcnWR4UExiz549uOOOO9Dd3Y1f/epXrlTFs4WjF4yOwH40AtIDsB81ybYpTU1NOPfcc7Fu3Tq8//77mDVrlm43eeutt3DDDTdg27ZtuP/++3HVVVe5dof6TEDhxCZKBon29nbGHAi9fve7333g9bb9fbGMtm/4RoDoupcRz+5tpNvThknCRhSfKP9IfsjgeMkll+DFF1/Ee++9h0mTJrH3x+Nx9u66ujosW7YMX/3qVzFjxgzG+CdPnuzYJOnmJTZiZ6AtCSSoId/97nexZs0a/Pa3vx3UgI7k4I0+e3QEhjICtL6L0eM3bdrEPAOzZ89mxr9Vq1bh9ttvx4YNG3DrrbfiwgsvRCwWw86dO5nwzpw5Uw/CGkr75L30vuuvvx6XXnopPvvZzzImf9NNN+Gxxx7Dsccei0ceeYQxC7JV3HPPPfjZz36Giy66yPXV0tNhZ6wtCSR+/OMfM1QiFlFKMMZwDMzoM0ZHYKRHgFhybW2tp7vzjDPOYACwcuVKkA3jxhtvZGo3fciAT0x70aJF+MIXvoB//OMfePnllzFhwoRha/6jjz6Kb3zjG2yj/tCHPoQXXngBp512Gns+MQEChCeeeIIxfbJL3Hfffbjiiis8VQ66wM4uURJIPPzww/jpT3+Kb33rW8yCOvoZHYEP0ggQSBBV9/pcc801IMM9CScxBdrNf//737PbFi5cyEDiwx/+MG677Ta89NJL+MMf/oBx48Z5Pbbo70kGv/nNb7J3EkjQzyuvvJLdT0JO//3LX/6SgcTNN9/M5NULJNSwc2tDSgIJuvnBBx/E448/jq985SvMsjr6GR2BD8oIdHV1obq62rM7K1asYN6ABQsWMLWD7AIPPfQQOjo6mK2A5KKiogLbt29Ha2srDjnkkGG1UxCDIXXjsssuYwBF7IHUDQKkQw89FB/72Mdw9tln44c//CFjEaQBkArk9FHDzu3yOkoGCXKx/OQnP8Ff/vIXRqcuuOACz0EdvWB0BA6EEaC1HYlESm4qCVlbWxsDCTIUjnQQFhlYP/rRjzJ1hzbsgw46iKk9pNbMnTuX2SPIw/G1r32Ngd69997L7CdOH2m4dEr8Khkk6EV9fX2Mzvz5z39mrhY3lCp5xEdvGB2BfTQCMhzbLbBoHzWt4LWvvvoqi4GYOnUqSP25+uqrGaMgD8uSJUtw9913Y9euXcyGeP7557sCF6kaMunLrn+DAgl6ECHXL37xC/zzn//El7/8ZZx66qn7y/iNtmN0BAY1AsQIEokE80zs7x9q6xtvvMFUDmIuxB6k2tDS0sI8jySXixcvZmzCKfeE7iGAoO+HlUnIASSgILSqr69nVuHRz+gIHMgjQAJD/3p7e4tyhe4PfaVwBFJzfvCDH2Dp0qWYP38+s4vQpk0eFWJFbslpMiyb1Cyn6wbNJNQB+iBmye0PC2C0DftmBIiyy+zIA2FtUxtpw6bENPJuEBMqJqCLGATZYQhIRizBa99M4ehbR0dgZEeAhI4EjnZWou0ftDRxGj2yv/T397PcK/q49XFYmMTITtno00dHYN+MgMxpkIGDHwSwkHYLCuGWADEKEvtmfY2+9QMyArTjksuR6Lg07O3tqlLDMZSy5B4ZZsn+UIqbdpRJDMcMjD7jAz8Css4EqSEyOvFA6jSpTfSvFHCQ/RsFiQNppkfbOjoC+2AERkFiHwz66CtHR+BAGoFRkDiQZmu0raMjsA9GwBYkijHMeFl695dTitR2eLVZHf/B3mc3h/u7r72Y+faygBe7dq3vspsTz/ZozmdeaDCfpOX2vjzyoP/36htdZ30uLO8ptv9Du25wZ304vdO+XzQk5vdoHR0dg35zKUKnNrSU+0q5digTYH2P50It8mUjCRDDcQ5Ekd3QLxvquLgKrTjwxnvM+EE5toDM/mgsafP7bADE6ZAdjWBA46HOVFKfI4nxynzhs0Z+rVK/zH0rWnhFNKntoPHOAXQNGz4LSKxYsUL/i7WTXp22Rml5XS8baFsiS5kA9ftin1nMYneLKrPeT9Fobu0t5n3q/UPthwwZdhSOQZ4oVUo/vACimO/lNRIIrEDn1U++7SsgYZAB0RXzAndrExsyZdwKdlDBFliWJBMfAxg0mEvQu7+Hh3vLj9e16pyYrzWDhDxVzBEsXd5p1wY59tY50N5++21bMKLJc43CsnxfigBan+0GNkUtGoeVPlgQo8fJ9NlShMjuWjmGsi2lMBbrInCbD7cF49UHL+F2XrTmJxfzHHUh8s2ZrzMVPEphEiS8+Zzzfmptk0lYbXZN61hZ22t873xOBX+sc5uc5sruXeq1fB8tra9O7RgSSGiKvqdpNBD2pyWrgs4XrxnlTAuaFoLLSi3lWqvglyQclOkmin1aB2m4QEHtJhsjep9T34nhKd/xdVU0gTQ9NU9nVSq3FiOwxbASC6sGXASyUMDUnpvXByw7cTab9sIyx+9NfbXYKwrGQemQlVoXrAmi3+IM0FIa5/ZcWhOuDMAGXEjdKaYdeagMy8yL3MCyYN7oDFSlHQVMYmRAgut3jrKi6npCF3S6diggQQLrE++yWxBWXayUheHYN1eQYJ3VPx88kCBxkTuuVZ82r4dcjp/aPZhPIUi42CT2MUh4sQw7cB8ZkHCx6+S4HUbuOv97QELTWGgtYQT1n6H5XtDjnZGRqLYPms8Qlg8mSFD/Cplm3kJR9kuQECeKlwpcXgylFJsEvXv/AglNWHGpZWyTs6gbCvizqadFLi2jrupGCUzCKyPNcmZhsbSatVfs6nSPYYziS8BdISp1mRRxPY3vsIKESXEx68QlaDAFC9xKAEtSN+SL5UPUHZ5jtD5/VrdmCQDuziQsc1EKkxgpkDDpheb22XkXmK2CUxAXWwezzvDdXzfmGlZd6xLI54tkEnlAe/vtN/NmmwC/mQuN2ThjovoeaoGrNd/NRuH1XL+7wcgqnvryLEFQihDxYbmEA63CJNwMNy5vJPlSN2ZutGcSqOgybJXZmjyKBVovqmxtovFcO5Bw7iw34BneJa/BdgMJ0715MpBah8TZ6zBYO5UXk1DbZAsKAhDsxlO1Z0gDL+u/DrI0dvxOd8biAhKSaRPsDAkkLD0o1X3qCCLDDBJeC2zEv7eAk1U0RgIkChaX3IWIBdjs0KMgYS9U+wokBJwXzJVkwFbuYXXdyniH/QIkDKooqLPSes+4ACc2caCBhA1DMfZN+51bDpPVFVzgSSgSweyYhB4YY6w4viuMgoQ+ql47fi6fUzDVfS7d2IGrsDqwhgKgIFsaGRSt3hY2+RaYUNUThzXkqm4MiUn4VVO8yly5r9u0S6rBUQ4NtQUSD5AAM/TR+wqojLdIuem5g1VHKBpPMT4yRl+kPj1cIOHIHBwi6Aq8rEW214vClqJu0Bw602Kpe/NJYXOtLj0LUx6suuHcXuHQVyz8XAUqDii8wMdd3SAkF1fItSR+l23Qg8CYXUsQDhNQGCpHAYDIR7vZJMR75ftKs0n41e5R64yZc7dB2BsGne5xexZ/pQAl+XqPOAzZalfh5Yq8N9DYXKHaathjivStjxRIqLuQvriVdlvHwSUVoqC3xQKgGVAKbRJk75LPco4b4IY4CtdRN4WcxVwxEiBhBURmFlTtGUXOsR2wqu0tsEmwyXCwkzCM4u2Qz9BBQjAS/U4VNKxMgy11Z5uENF3RNcRehgQS1tBURwlzYAdeEZ12zzNwiVyafPF5qjY6erqAwChIFAWQexckONxpvvw+AQnTjm/xLJAqUmzcm3XMRgwkLJ4NE6hZNkBXkND3S1JvBg0SUr0wPA12Vlp9kF1UiFKBQtXbnUKdnVb7KJPgI7O/MQmT0NiwOcYklEm1Mo8RYRKWNWtlZFmiM0USz5EACTmPJiZhYRNu41osSFAftbffXc6UoAIdn5F6n2kgfEzdEDkdJK0qT7VY3VhEtwmK1SALq8m/CLemrUphsAlBKVzDv02T5cEcNJ8LHbN0TUNAJfPIw+DDFHnCAVRSZpGnoC9CxQVqiTXx+wIFAq2DcREqlgrcLIKuGHWqBEZVDKsoFGBJ6+xdoPJ6VSjJ5mNKwDQZFMXg6mzR/LsbPSocDlWfMLtLrc9RgapQXVLsChyWLUMvfZRSvFT1wqb9JlOIfJZxD+32/DXKWhKdM9aA4SYtCNoTaoy1j/I6DhIuC04FCgIJvvMLe4SajccaaQg7BwkVDBQbhkXvyvk0+JR7bSfWoY3m2A33kKiRAgkOnRIoSGu0AwkaZj6JrB36qqc2i78zumiAk8+ngo/bcnf+rmSgGCmQsMy5U4ulcZCBhFg/RtCecRcXDPutvNjIVdfrLDEVhQJkDmyyJmLpgU02HdXXoY1wyjbRNXYs29pm9XfVVlMA4Jo1EMtq3Cwcy6JBggsAZxQ+v0R0B5BQgKIQJPiTGNrZgAT7Nu+WDGUDABRqbcr72HcgYQBFiSDBAIP6TYxj+EFCh2pl23RNittHIGEFcC+QoKGSdR4K4gQUndqbSTjpDMamZseYnGwSXLhVb4zZ0Gi0x8kDwdujGyblulA64gQUuRxf/1Y1g2XZKslfxvdWhqPeazAWTybB2ka7eJ7OCtTdCULYHSg5CXsBk5C9LKSZOZ2A8PfYElHBJMwJXvZqkvMuZWE3pvVhXiyalSUVtZFzVmCaEF3dcGASUnilfubGJBQ25WoDEnNmHzhFwuWSt7I/gIQQcrmY2UagZxqbJ4KrJVbWyq/xYhTu35u9d+52Bcva4Tueexukm1GwIYNByLYbz2SCr7MmI61eXGm8R6gbVvsJHx1DVs2AbIVYFdR4G7xBQuT7M3DUF6kLk9CxwCzq6m8MBpQ/ZFVzBYkZ66z0XBgVgdhf3bIqPQSZ1y3gQ1aQKsBUhCItUUUBhpxCYZNQNhczNonfPEDCSj09QcKljUTVHQ1XxQ6BjVut4JUW330ptRDUZ5mNc/a0WN0d1Xu9jNWu3bWpPiWfrVgRCrtV4Ma0ATELSFhBzQRgwiZhdiRbQcjMfAptUIb6JlemTi71eTIA1yCe5N0QhkuL3PLnKIVljJAEoUMztcHFuGexhJYCElyF4P84MKnxGCVIqOVSk6AxQ55xAbcjOC+ZYt2s1tYZhkvFDqHYJPSYCi8mYbUsO+yexYyOK0gYm6Dno0oyXHrYJIp7lo2wKVKrqij6nz1Bz+ECB5uEXTsLAMPa1wLbg+AGgrUJcVeYh2i9YpcxTYaawKWrF9JWKCBAuGyNtnFZNbdfgIIpQtNAJLNNQgKCVahsd21O8cl+MPwgocEv2QoTCsoyHb78TFXQeTSrOr3OIMGDnorwwNiIFb1BorpUlZhNQACwnrLuARJ2S9neP+Ap2zz12MHTQeNi1WudnlicYEumxCTCsXHGswrnWxUiHgpg/xzuwHF/j5lluIGOvXdDLZ5r1xmjrSq9V9/D5UdlCm7tpmAmVdWQLEBlHsZUku3QBFlKyDaFmCvfGTSC/Z0PG3+Xsodxr9w7771ZMOJSmNhPs+9J/52MmUSknRYqeSzkx3oN5wbSok/mDaMaMVdrxJ2CUZiE2/pGO9+tw1I0iD9fr0w3Zx8ygLpvOYNlEvR04y3qFKu7hSi6yrFeab1SnNTSJ581DNFxxdrQc2OFOSOKIozq4iopOtP0HvfxNQEO32gtUGC3wGXzDeptAgn6swuSloAnhqB6MBNO8MwXFXoa+DxbgYKvRFO8JQtmUkOrTSpHASBYXKpKM3iZP6rVKdagFTAEm2BtZShhzIH2rgNIMAMca5FiP9DdMpza+BjM2K8zFSSsV/gYwBggIQdHBxXrSlTZBPtvZVcviWkIyiVolzEgoqyds8gM+RtP1mvzBrcd36f5i4o09TLeOXVMXex83YgSAiV2pBi2weXKBswc2I7perY8lXoLAmjlzugOEpb6gdbBsKjTRY0lA7fC5xYChRR+c791L5fYL1jQloqFQt7s2mI2SJoZl2Qrtp4NxXbEgUS0SWwUAiS4K5FTDW6F524TgToqIOs2Apfdl+5Vk54seq5b7UwOGBZbh03ymAoUxe7yuXxW9JMvShUkWNUq941nrwOFB7cpqlCO3c5WbEf09+s6q30WqdvzigUJO7esV9v5WpWTxqmHTvdNu6glV0G/rjSQMEgCZ77Oao/9cwvHgp5gtetZuASrbylVDuHiVNiK2gbr801AIvM+ROCVaRNQg70UlUMOqAESUqh1isZBgii52S4gq2gXggS7VQYMWUDCZ1rxZGuwxNpKQMrR+yziYccWVEYhvvdcVGJCGABK6iUUMAkSVlZTrEAVe12JG7HLY4uHND4u+v+4N5UpzOZrTW3OFh+J6sQQ7BrgXh6+QPcwHqEzCUPlsLN96GzIBCQedqYi3OD2DMgZfAoEmUuZ65ywtjM7lti01flxUAtN7EN5unx/AUgwj5eEHLMbtBAk9AcKZmHZXaWdgu/k5s6p7MG6u5tBgoCG6LJ5bKjhNBhFgQSTZql6OMdLmI01Wd1gqOpnTNwsRtrBGgWLAYvhAYriQULdAT3bJyfFgernRwgk9MXr9N5CI4VtV9Tn0JJnthvxkUBUFLuxgE9JbIk8I0zlcJ5pcxuM0nMyPKCgjZIJiGda1Q39ehfDrhW0jbEymLWqjugBa9wmoaZeGwKnqhvUYRmSrYdmqwEaVvXCggAqSHCAsBdDjnCWXGCFSZAw62qCDhTiedwsXzCfBnrmjGrZApDYIxxiL/ZvoCgNJEoCCheJGGmQcGMfbsJt3gwM743Jo2TZUT3VVGISHkInH2m2B/C58WS2JsMjbbjCgK8zBvNaVm1DrvYRj3BvlWVYU891NVwZK91wyfZkS/3IQnETACLck1KY88wLYl5ZbkzCChK6hqOz4uJAwtCMfPDx7DNH9OZUSoCE8EHJ/rG2OqD+/gsUpYOE7YL2pBYWtjfCTMINJIoFELuFXmI3+eVS3bDEJdhTGNUeYsyNm8u0UPUgFs1eLJay3YZndWWyUbFMUqGb2OxJMRtsdCVDuEKt46e9+95b+h285LwhFuwLRUr07yx6qwxMM3m4raChdIO8GyJum1vNWfqCcj6DtSCG0iZqo2QS7KeMCBX5D+6LgccnFICJB8UeSaBwa6+7WuIBEsqpWNb2e1np1fcW3FsqSLhFsapr1cttqLIAcxScKZaV7bZs+7eEa9sxVxd1gIOE0UA7o2PB3JlMJ4ocWWwI6n0Fxk+rvAt3pDRZ0kZnjp1w8gyZwaNQPVEH1IiP0Fm34i7V3lvxrv1aZMKnkyYuVxaVQu2sjHyQQ+NWr9EcQ1kaxptAzDLJms9v0kE5wg7OAqAKh7WGZCkt9nq7+h6va4t9L+u1mgPj4SY2UXW+XeuvKggHLxEk3EHQkKpCy3zxo6Ge4VGodnA7lJ4IqDgPSmEcBapDkVmtfDjNhkxXtYmp8Lzv/DrF3qZ4KMxeDQubcFE37ObDqsZY7UPaeyve4y0q0Bh4tqZ0hNqpFPw2vswL9jWPIKfB7s4FTEfpNXlMVEPV3gOJgv1Wb1UxS10H1mJRwOM6feNijI9PrNt4748gwZe9i1fDtBGqu7Z19xfRrfoaN6j8PgMJDgG2+xd3iXqAhE1kqZ2708RYVDZjWT8yhoL/uTBrVXt/pQAJEy0wxUPC1ubgAQ6DBQFT+22Axu25vO6A6tbaO0zCnBNiCWIpUvCVDa7IO4q5rDi7xf4KEsUChRuTsHrK9PgfmdvgpXKIYR5OJiFnTkCBCSzMIMGv1MXA5O4sDEE3ezjM7KIoQ6clzkSyFVeQ4CqDfVSlJe7RFL7ttTQLdlcH1iGDuooRB3mNU+R/Kc+QzMj5HstbLMil9q9gcVnAuOAdRS5a9/6YlCXPrpvmw2XHYQ+SwTjD0E4rU3Ci4V4uSy+QcHwuW97FcL3CIcy7xVBYx5C5RE37uvEL+05lFUrEo5RzJh+WYDG96YYnp5BNGHBUFEiI9+ngJcXfjUnwjG3rIBqxjmwpKgI+WPZgp0KwVytZqJ4rfZgvcGUsHvy9ACRc2lZgkxjkojW/wgumix8sq4Ax+4ziPi7+STaCZkO57QTaFWilzi8eb7VJEJMo6eT5IjtE+Uau9q6iYyS4SqgDhX6OhlxFhsmSNc3G02I+1UsiC++IBIeiQUK5Rw6F9v6q9/U1LSmvyfhoAQk962IYwEFvhNWjIm0cHwCQKHLNyfkf9M72QQEJvrBt9l1XoXO2SRBI8OSmwTEGp/kbPpBgO60BFMLYboyBfdaoClCq4bEgrkOCOhs/hzFQDZ0WlYbFR61QQKLAwiUGWB0ovzSBuVnMRd6HU2y7laB8kJnEKEg4j0CxMQRDYRLkWecxMpbzUDzc3l7zNrwgoQKFMFzqwqoENwo1xo4VFAKFmVG41QRVgUV9tiywawEJGeoshsjFcMgrGNvHvluNcOrOIOOW1ANhHdUWm/eTK2twao2Hid9jVQzunV5LzUwcTLogu3VwNSy831r8FQW7uixAOwwbswoSXnYHO4Yhe+Fmy3BzxTN2MUj1zhMk1CG22Cic+ypL01kGV01Ik0xLuYTyq7hXjzw5YhWxiuJGDUtrN01tYAgqHmhxn7JzN6xMwiSXblW0feRudBYdlR2YSmkpCM4suQ5VgZ2WsV8Puip+ofMr90OQsExIodzthyBBi2mYqHupIOEEFG4AY1RQKFwv+x4kCp3frrYDqZY4FQ3Sjam8PCH/J12+Nv1XgMF8PJnhoTOBhG0c+zCABAcpgdiW5/E2Gtltejdc0H0UJEoFx6Fd7xjkZDdHJbKLwYBEqUCxf4JEYS0nPkvGANoDn7RdKDKlZF6TLMlyD/l8Rpl4DbanEurRqRYvj2Xz0lauXlE4tUoJOXuuYDmL02MdSrbFSIQt8BhGFUfLuWAgVN6u+I/l2pJuLeHiwVJWr44M9phxr+eW8L3bLm11fBV9AJB4f9HBUhwZTK229YLYzIOXuqFvYPLpYn2ZVGbb53p4NwrUDdc/cIiwqCXyDtPrpTtVqUupl2dQz3thLELmQFFpBAezpRxWKztRgMIMEhYBtjsUxeiqezl7GVJqbpobuPBBdwIJmalZgugWZJoWvdGR4bWEF2nDRL+tspt3PbCo6N6UAAkulNThKSpQ7E2Q4PuuoUcbAmUBE5d5tKobtGbVoyP18GRRjMmUMuLlAjXt4+bBM2OOFfwcwETaJaT6oDIPfRjMZfM5SMgCuJTzZGYr+psUm4Q5IIs/WFu5eiVLfbcby6GBhJpLpQyEUqLfZkkKd5VNZSqB8KVo6QV5B8WKy34CEm6GSz7fIw8UxRgUJVDsbZBwBAZlXFzBXjXYkTjlcmaQUOI4rKwnp4RPey0rR5zyrP1gEWqvCt6mrFVRRIYlSxKr4JJjCxR2hkuVSaxas9K80tSMS5bh5WKcdBkdemihWQYmY6eigfEsENYw6pRVTRAoRkivI6hzu/i7Cftk9Sv+l5zLrsK+kotrFCSMTaZIIKK5GymQ0EXFoS1uqocnSChrmBc84ovEoPD2ORZZovbFjo2TnNgERhWySUU8dVXDwkx0mVA2VzU+Ip/jcyM+BUBhBxIKPmkSJIyCMvJR3olBVmIkXZly0qyuTTb4osCuNLCQ0He178GqlRuhpfJoHDMODQ3jEQpHofn9yGp5pJFF/0AcO3Y2o7ezDeMbGzBv7kw9q4y5VXN5bG9qQiKTx9hJ44F0H9atXI3DDj0KkUiYNdU4KUyOlgvKDZO64a62cGB0/rgDoe19RS5cr91PX1CFq9b2VqbDMwO18XUxLMTuYV4syeu5pqhLl466pmkrO5z+POWk8SwZBp3G2iEGQwcgVVhd5ksWhDF1wTHnzeZQYl1FyeuntrHtkpURIHYhtmNl3uzsRDpIcF2stGPzTCDBSjvw+5nbRAyyHeWnE7t2tbVi08aVmDd7FsZolVi/chfyXSFUV9WgomYstHAUyZAPaX8OSS2NvswAWve0ItnZjfF1FZhSX4l1m1cgUhfGnLmzkYgn0N2VQDYSRd3UKsRynWhevxnJpB/Tpi1AKBRATi2PxQ5ZVtDVJQ3eS6DcbBKWLGHTo1jKfCnGD8vddqYoLwHy6ovX907P50zMfPdQwqHd+uHVx1IMok4Bf3p3dA+AqF0idHPS9/WDlayD5gASur1DBwnn80/Y+60A4qaeMAeisamo9hReXoM8H6LiuSjiS9dYz58piNgkVJBMYkRAwuryBLC5uQk72towZfp4hPPdmFreiLp0LTJdlUj0hpHO5pDSfBjw+ZAIAplAHkl/Fhl/HqEsEMsEUJYcQCiTRVcmBs+lAAAgAElEQVR6E3Jjc0hnfcimMqibNgXBSj9i4QSiuThymg+b9iTwwp9fxcUXnI+8n4foss+BDhIOC1GX02FmFAXMwmYBW3nPgQ4SBlAYUCL7SJXXzTu8GHkllcDqOSkwvjPhVdakBWzs1SgbNJago+jTBkhwNZoVq2FzRhs4GTFzRryLtA1YQ7KFrGir1q7ieVzcP+lmgnDdZKgZzIQBHz9QhJ4mDhim3bK7qwvrNmxFWf1Y1EytwcT6EOqzeYR6wsi3B5HurEAipTHdKenTkPARi9AYOKQCeWZPiKQ1lKU1VGZyiNbF4Y+1Yv2OjZg850h05DIIVPtQ5U8hlkxC82XQF4mgLTMGm95chdlTJ8AfzEHP3htGkPDafZ2/92ASboLuUiHci64Pvr3Gneo72BqjXcliS/oggITKKHR/ihA6mYDIBF05lY2tffY/FJ9gHM4sHQEmMHUBCifG5OgqtQEJ3n4ODtQWJuU+DbJWqa4iCp+vXTEbbc36NWy+i1HB3YrXspJaZD9I8sUSCgehIcNqUexqacGaVWtw/OlnIxcJo7w6hap0HNGeELTuELLdIWS6o0jkuM2YQIL+5Xw+5OiZfsCf8yOWBiqzWVTVpOCLNeGv/3U7Zk6cg8nX3oSdlT5UhVKo7E0gls4iVeFDa6gCnd0VaPRrWLPyTUybOcns2lToMakibtRzOASrgJUOSd2wbmTOxg1H19cQOiVBQv7kNgnzA9WIXCZIg2Q3XuqD9ble16usqJQ5Z6q7KK1IP6kmrIynkIBoPvVeMAV+I9vB+UZa+LGWpLNVN5Tb7OY0r4IEf4B6B1c3lMoPOog7JHjJNmhrBUgUs16cqwtrePbZV9Hfl8OCBUchl81h6XP/wvHHHYqcP4Xahlo0TpmFnnI/wrEk6pP9iPUHEOiOAd0xpPrziA8AyXQKWU1Da18fWnt70NPTi3RqAGWVZaitiGFcdTXGjwVyPZux/r+/jYnZBNIzD0Xu05+HrzGCyt4kIt15+Ms1tJb70R4PYWKuHFXlGl58/RVMnz3LsZsHOki4LapSmYWdMdVqOrEHCcWqppEny3BYDyUT06v9ewsk1DEmdYNF/4paohIE9TqxQkCp7cZ5r7yMntOGbBV8L5uE+XoRjana2VSgkHEdlpiegmMGbOweQwaJNDL498tvIuyfhHlzjkIwoyGWykPLJdA4IYxMNIl2+DAQzaK8MoGabD+iCQ3B3hhyHeVI9mWR6Erhqb88h1lz5mD27Fl64hgPbtF4JexoBpWhVrz2+4cwp7UJ4wfiIPK0a/48+D73KZTHKhDYo8Hv9yNRn0cryhCKA5MqwlixcTXK66oRcDESfhBAwgkovISsgOE4kBKhlwodV+q64icZq9UHfUBBQt9d7Sy1dgxBBwlO1zlISP7hvjUXqGs2AmwAhTtI8Lo1XO3g6lGeqR3ELChBzARI1rDsoTAJeuWy5e+gvTOIwxeeBn8+iHAuh0g+g5nTqwF/CpuTHUiVRVBR1oPaTDfCqQAyfT7ke/xYuXQLIv5yzJw4F+lsCJlsBpksP4qPq0B5+P0agj4g6m/Gsl/ei3kDnWhMppklN+v3Yffcuaj8wo3wxYPIDgCZOg09sRByA2GMj4aBUA7fvOcufOLT1zGQcHI5cpBQP+pvxShjxXAx8zVMPxysd4P5fbnGqdJnR6DQY0DsywrwtjhQYdF9rpfKTEXF+i4XnStI2Fjr9YY7q0p6D91chZbvigVFITKlTxy7w7hbXR3cBmjE9cgpkquLVXTT9X+7V4uxMB1oLa4rcH/ya43u8zWhGuflfzNOlxeuUMVdzewTYv54r4z3y9Zp6zasdZ8hlyGkvWPHrl709FSgpnoCwloedeU+1I0JIpVJYnd/BqnqPCKV/ahFL6oSCaS7ge0b2xHOxNBYMR1aLghfMoSBlI8xAzogNZfNIpNLAr4BhLQBpLe+g+Q7f0dDRwvKtAwGEj4EAjkEtAA6Zs9D/XU3orM7h0zEh+zkMvQlA2gIRlBRHsCe3na8s/wdzJ4/D+xkDktvnWQ0p5QnG5qrcpBr0OM2Ax/4tJKDKyMMU9K/blIPuXXadBaq+gqqExKwOW0uq4S4svdInVq4zziLlQvLWd0o6I7cTIXLXJ8YOT9KnEIxQGECyhIAxW2Y80ouxMjMYuFTJTNwrf/gkufhVBvC0DYsJfk5qhkfO3Vj8CBBx/pq6On3I9FbiYpwDLXVQFW1H52JBDrSKeQqQ4hW9KIObYil0sj2ZLF7cxdigRqMqRgPXyKGnr44+jpTSCc1bGtpRv9ALwYy/ehLtqOyJoDqRDvGvrUM8/IDyOSz2BMMonPaDETXvY0ZiKJjxjxUXfN5NLX2IVGRRKYyjIpADSZMGgOE80BWw5uvv4N4No2Z06eYYiPY4nMgCfsrSDCZzOUQTyTQ2dnJvEb98ThS2Qyz6eSygkYyKzZP55dgQaoY16M5YAToJDWmzvkQ8PnZP/pvuob9LRBA3s/rhrD7/D74qSK5OJ+F/kYJd9wgJ/RtJWKR3qfvRhKgFHBgC1dY8qRw0E/GJPXzkqQaI0i6PCRY3mspgefFIkoxnu5LkGBrkx0UbLOziT85faerIEpEpwQJ6XKVXg27gDLr34bEJAgkduzsQT5XhrmzpiAW0tDRP4BOzY9MRRaVZT2oyncjlhmAP6Ghd3cK7bv7UFteh4ZYI7r29OHJ555BMpVGvKcPTzz7N3T1tsMfATr7O3HRlRfhEyccj7pn/4Xy9g4kpk5F64xpOPLyj+Pdz3wMR2hA5+QFqLj8i0iFNcQT67Dib0+hrHE65l9+OSJVVUh1Z9Dm9+OJv/0RJx9zOGrKyswU/QACiWwuh46ODmzduhXbtzdh86ZN2LZtG9o7OpDJ50Df8xL6rBwTJ48iGpXWlc9P55IYhyAEg0EGBP4AP68kEAyw3+kffRcJR9h3BAzGtfx6v8+PYDDAfhIYEHAEAwGABeXl4Q8EmC2JR/ZzsKL75OJn+jlX0hHwB1i4PZd7+t3P2kpf03eRUBDhcAjlZWUoryhHLBZDKBAwih45Getstv/SQMLtIN9BE3BXUlJovFRsP1bAcAnrtgIFV7O5PUKeiE7/beumttokBs8kWFgGNm7chmCwDAcdtADdyRx6SQ0oy+O1JX9HKN2Js48/En974kn0tabQ05NCy67dOOOk03DuSWfj2RdewZ3/9R18/JNXobqyEl/++u2oG1OHc88/A79+7De46OPX43PXfBLJp59FKBlH9YknoP6QgzDQl8aGz1+No/M5dE9aiOA5V2DPjvcRWL0Ewc2b0RarQc0nb4Jv3uHo1HJoK/chl+zHhpf/jVOPOMZ80LHDAdC88pD4qAfd7C3eaXlPKpXC+vXrsfzNt7Bm9Trs3r0LqVSSxZXQjpNlEXVGeynLhe0IROeF+9E4QIlxfH6xYBrMeCX+my0k5pngu7iMoDUsRXyxMSGXrk0Rsszbw92D4sgP3Y6hqj+c4XBWw5gL5SUQ2/Bx47OfgEMATywWQTQaQUVlFerq6lBVWY7xE8Zh9qxZqKqsZKCiHgLhelAvk5UiBdylIvZIuJULMUBdg9xe4Obx4MJvMA9TG9l0C1RRYiLIE8nXgfzasEnodpShgAQ9u78/ga1bmhCrH4eq6TOgVQAbVy7Dt2++BehN4NSTjsBrLy/BrpZehKNR9Pf14Ws3fgnXX/Fx3H73ffjTP/+ORYuOwYMPPYCpsw/B9FkzcO111+DO2+7BGeddjM/f8EXE0inU1FajfOxYaFlgT3sXdn/lWhyTSmJP5Th01U1ErGMzauOdSGvAnsZp0C74JOIHHYa+Ch9A8RO5Aex4dzkayxtRUVHpKeqDtSd6PriUC0Stv8TAAN568028+NJL2NG8E319AwwgqMgrCRSj+kT9aafO5xmjyGZzLOKU7xtknOILgdNOirYTh+EKIU9l0shksqJsCV81FAvAQtfz9Hyx0yvtZ1qLotCa4hOYsd1uJzYfTs1xikLwzJROfa4W4OqMXOfBgB9jxozBjJnTMXvWTBx5+EIGFsSGvNQNXYSKAQrPsvn2k+moIpQy94pMS3uNGqdhepTFjqOCg/xv057HHqSAjlgbBbEs4pohqRtsgvMaWlvbkIyGUTl9PGIRP75y7afwxnMvI4AMPnT8ETjhhBPxi5/9BhMmTsKK99/Hf37l8/jER6/Apz71f/DCkteQiQCrNq3H3KkHYdq0aVh0/Ifw7FPP4qRFp+KW225FZU0dfMgiFPCjqyuJbi2N7i9+Akf3DiDu96E/A1RFAujIZNF96OHInHgm1kfCGHPwDNTWRVGe60VFtg+9bd34+1Ov4cyzFzsbI4zNuNQpHfbradJI4JctXYann34ara17kEymkUlnGSBQPkokGmFAkU6lkctlOVgI+p9KZ5DOUPiwJXdWr1MpYvHyeWQyGaTTaRBjSWcyyIiFp9GZkDxtgasDKkgw4TY+1iCmnK8QJBhk6ZnFxinafj1jV+QAqeDDIneFFZ5UGWY38cMfDKC6phoLDj4Yi048HrNmzBCA6M0UigET/cDgUmfWLcei1GfpYKGerFVE/4R6oRML5XcnMLALeGOscqhMglbOu++9h/C4Ksw4YhZCWg7rX3sX/3HNDRjTUIMLL1mMgD+MF55bgpNOOhl//dtf8bkvXY+zzzsNLz63FLffdhdqpkzFI4/+CosWHIpIJIrqigrEe+K48oqrcMttt8EXCCGQSyGbSaOlL4lAJdD58ctwRCrAFk/GH8AWzY/Og45A/cWXo3/KJKzcvgKHzRyL8RURhNL9CGTT6OtL4b0VOzF1+lzPMo37BZOAhi1bt+DnP/85duzYAZ8WQCKRRDAYQigUBNHwxEAC/X39yGazzDNE4kQ2hcrKSpSVlYFYSDKZMlPsvGFQlGtWBjtlMmkkEgPsviwznHHbhrAgmJY4ufKsUZXq80wJdWKx0z0yBUB9GE+24/yBfa+UKNDotHuLWkjMg0CioqKCAeW4xrE4b/FizJsz23LUo7NUekZmujEJN2EfbpAYDFBY2yBpmHR/ip+6mqacaDashkvW9nwe67auR2xcOabOmYDlS5fhJ99+CKuXb2CGrZraStTVjsGOpt0IR6Lo7O3GDbd/FR/56BX4zU9+jsce+gliZbX4/kMP4drLL8bxJ5yAfz/3PCZMmIivfPU/cf7FF8KPAKK5HPZ0DKA16Mf4mi7suPwKLMiGkNT82FlWjY5jT0bZqWciP24M/OXkHu1CWSqO2lAI4RRAW2M27cOe7gx29fagqqbWFIZtjYNjBj89tmCwFboHs20Y96TSaTz04INYu24dJk6ciC2bt5GjkrGIsrIoUqkB5uFIp3n4u1ozIOj3o7KinIFFf38/u8bw/5LuoHAAYU/gwgnGSnp7ezEwMMDC4q3RE0KUufpi6aJMIqI/6x4i8qBQfICMw1CMp3YjxJ6pPJjnSIgT75W/k3oRjoRR21DPbDKNDQ248vJLMXXSZKMehJs7VAdAp3ny3rFt7xwJkFDdnqJZNN9sbEQjeFCU2iKh+CjxLyqDMgdQyWvFT32DwNCZRCaXRTaUQ6Q2hEAkiyUvvIx/P/kCtq9vwZrVq/D7x3+Py666GrUTJ2HO/IPw/Esv4tobvoQLrrwGN3/+Oqx++VWEEcAdd92Fb993D2668UY8+ugv4PMH8LVbb8MZi89GGHn4Uils7cwjWa1hamUztlz8aczOBLC9fjzqrv4C2qZNQ6YmhkB5FlVaP6KZBJrXbca0iVMQGqiElgGyaWDTjm14cdUbOPPsc0zzW5DSroLEEBLfhgITq1atwsOPPIK+3j4cd9zxWLJkKaKRGMIR8kr4hPoxwJLqUmzDVyUrh2DQj7qqagQCfiQSCUUvUMOl+RYtAYLUFTKE0vU9vT0s9sJekLkKYP0YzIPn8rAPgQTZNUTAFgcXYQYtpmapMGgyoJAvFIyEgCJSHkMwEkY8Hsf5i8/B4jNPZ54Qr3wRGWEylDnamyBhTeMmg7J0FzNQlnYm3Q5pAQkZFCeQRAcJtnbMBks1l2TI6sbajeuQLvPhkKMpWCmNdDyLS8+8FDMnzsCrr7yM/rCGaCCKadNnY8qCeXj+z//A56/7Mi5dfAV2N69CfX0lKLT7hw8+gGXL38ADD/wQ137yk8hm87j6o9fgtv/7dVRF/OjvSqMZQcRqEpiW7sYzn/oKsoEIzvj6/dheFkVfRR41sTSq8ylUp3LIJYL419NLcMzRH0KFL4p0QmMxBBu3bcI/V/wbF37sEo7CUve2LFYTk9gHIEExDg888ABWr1qN+oZ6prLt2NGCnu4ejG1swMBAHF1dXcyWwKJPcwFKu2Vrlmfk8n+1tRWoKi9nzMBI6OEgQR6ITIYbMBk4SDOnT8NAgtSNLHr7+rhr1eZjtkjwC4oCCcYUzOzMOS+It02qICZYEr+Qq3XypEnIpNNo7WjDTV/6Ig5bcAg3ZHoyCTc35yDhY4SYhBUkbBCaF5fhE6H8MDMiFRzYnMtrVaCQ6gd9P1SbxJLlS5GI+XDC4jNZNF6qO46rzjoXHRubEAqFcdaVn8DTT/0F2Xg/2wVqKqrwuU/diLNOPAtfvfk/8P6adxGtiLFgoGisHOedfz6Wv/E6jjv+RGaF/9jVF2Nq42Q0tQNd1UB19QAmJ4FffPsRXH3tp7CuawCd0TzKQwOIIYFYJoMx/nqEsjV45h8EEschqgXx3e9/D+ectxi729rQ6W/H8ecs4ruSGJj9jUkQ1b/lllvR29uPww47FNu37UA0GsOWLZtRW1uDeKKPgQTZIvI5H/K+KDRfiLvJsmlQIJCm5VBVVY762ioWdEWAwrIUeRIGtmzZwgyhU6dNRTgcFhWLuDGRAIIWWntnBwuXd8oT1lUPsWKdQcII+zZ5LlRwVhiGKgD8ICjDl2KNJKXfqyurUFtdg5Y9u3HmWWfgvHMWIxaNukr5gc4k1M5J47LMxdB9mjbRmSbXqE0NCXPU5zCoG6+//w66IxEsPOV0ZMl4uGkTvnT5Jejd2Qq/P4hb7/0u/vXsP7Fr5060Nu9AOO/DZz95PS5avBiP/e7HiFWX4fDjjkdL624sOPQYjBs3jvvJWZANEEIWXe0pbE8HkB0bQGW2B8mNzYgnfdi2fTse+NEj2LBlE2oayhHMpZHrHcDtn7kZi0+5GK+89DYOP/xoRIJRXPb5C5HEAL53xw+wJ74Dc46dZ9KprUfUm5lEKTuKuSZHgT9d2UELLOzKd01NO3DvvfciHh/ACcefgHfffZ+NzYaNG1BTXY10JoX2jjakUykGElqgDOXlVcw7EY/3gXzFlBpcXV2OsQ216OroQjqd0gu9kk2iubmZGUIbGxtRUVmh5ILwLTqdSaOntw8DAwkWt8A9Z/YeCwkixveGuiH1ZpYbIkwcOlAoJezZS4VBopAx8L+whD+ZXapcGwoGMWH8BHR0dTDV47ab/xONY8d+AEFCdsnBXiJqjfKwB0PdsOYjFCZ0CR4ovCDquh0yk1ixcQvafGWYfvCRyOTy2PDGS7j/1q9i5sQp6OzsQnVFPbPG+7UAYxEL5x+MU8hdNW0CwmUpBKIa0v4g8oEAcvkwc8Pt3tWC7du3Mh89pXDs6U1iV7IPi85chM6t2/B/v/RldPUl0Nffj/5+ir8IYcaMGZg6aRKSnf24/rxP4aiDjsOaNVsxdeoMluNx98PfQEVVDJd95Eq0DuzA9KOn8zgAMeZ7DSQUqu0GEm+88SZ++tOfobu7G2eeeRaWLl2GKVOmYPOmzSgrL0M4HMSePa3o7+9jIIFAjAky83KQ8YWC5n1AVWUMWj6H5MAAYwt6vYO8j1HTVDLN5kdmBMpCKjQwyYEkevv7kUwOwOcjTxItOwkShfYIQyL54qT6pNJywX4KA5rKCuQ9BXkmagQGX/EcQ8g+wYKn5MRxZAn6/JgyZTJTj9q7u/CN22/FzOnTC45VMO2+IuullC2gqGtHSt1Q8EGIf0FzeCyFBBAVJMzgUrB5yehNUSlrWEFi1abtaM/GMH3OQrYIVry+BK8vW4pPfvKT2LB2PebOmIWKaBUiGR/PECV2EATCwSzC0SSC0RzyQbB4ic6eJNu9XnzxJfzlz0/yhKRAGKyYhpbB7//8R4xtGId7vnkPevraUF5eiRdefIHpoiw2IJ9HKBXGPTd+H4uOOhXxTArhSAw7W7Zg9+5WzJ59EAbScWzvXYsFJ89j3gCZhblXQUIABZs2VWdWmMTTzzyL3//2cZaXce455+CVV5cwD0dzUzNbBGXlMWQyKXR0diCVzAK+IFMLWFq9iMyLRsOIRUPo6e5msQXRaFSvQ0pMwtBNRQyCoPu0W5ORkAyB/Yk4klTpS8mn4Bu4M0hID0fWx0GCnURPdg9BFQwBNxSPApuEqnrIG4SBVdoo+E7Jn0F/mzl9BuLxflY/9fOf/xyOOuIInnPi8Dng1A2lH04Rn/bFawxlUXVvWu018pnWn0NmEm+tWo/duSjmLTwOvhyn2jThWzZtxozJlOWZRyAbQDgNRLNZxPKkQuQRCmQRjGQQjmQQDOdw5nlnYt3WHZg6fRrGjh2HaDiCFavWoG7qZEQjZSjzZ3H77XegvnYcjj7pWAz0d+KjV1+Dp/76F1YEl+pJDPTH2bu+8YVvY9q42WicMBH+YBgPPHof6uvHYNa0gzBuTCPWNi3HGZecLErAyx2K0y35YUV+ionKs1uAqgC5PkPZIoUAyS3y8d//AU8++RSLgjzv3PPwwgsvYuKkidi9azezLZDNgEKVqc3MXZlMcdATQUmU6+AP+BDvj7N+lMXK9OhMFrxL8yTKNLKMQ2ozqy8g3Go+H2Nq5OUgV6x0t/F92x0keE1Fqk5uFF5lgqx7U6UlwwAJ6ZHVk74UK4gOIOJ+pm5IENG9HBpmTZ+JgVQCO3e34LJLL8PZZ57BYkYGBxIKMhVDHxT277TLF/OYoq5xyNlw9OY4tM20NOWJYCJ027hlGAyXL7/xDnbmo1h46umgNcEopU/D8qVLcfxRx2JA8yOQ0RBIA5FMHrEsEM4AkTwQ1nIIB4FgKIP7f3A3Mj7gzXffwrgJE1BfV4fnXnkZJ112AT784TMwPhLEuPqJ6MsDJ518JDK9PZgwYRLa29sQCoYxa8Zc9PX2YndLC/7zC3di6oR5qB87nlHpm2//D8w/eAHmzz0M4xrGYM3GpbjoynNstGvmC+KuMzc2XdRMDu2iX/7yMTz//AsssOkjH7kAzz33HCZNnIQ9bXvYgwkYKTSbdvnyijIGGIFgkEVj0m7a09MDCoyiv5XFypkRme3AQr6jsSgaq+vIuYzOrk509fQIdsDPZqU57O3rx8BAUgcJCRBungiV1FojLmWxclnGTS1enhPVyg3zpDF+oo678QfF/cnayjJMfZgxdRrSmSS2tzThtNNOxzVXXolQKLRXQKKUxLGhrQy5dxXaJNxqijoxD85m3QvyDplJLHn7HbQFIlh42ukY6OnHspdfwdGLPoRkJs1849GqWmhpP3PTBTJAKEPMIo9w2odo2odIzocAUnj3zaV4c8UreGfl21hw+EIsXboUTa07cf1//h9cfdWViCVT6OrtRzbsx523fhU71m3Czp0t6OjsQTgcQW1tPfw+Mq758fHrb8LCo45nGYQvP/88Hv/jL7B48fk45ZTF8GUT6O7ZgsMWznOw2IsTmfchSNCC++///jmWvLoU8UQcF190KZ555hmMbRyLrs4unrRFVcXTKeYSpeAqsq+QPYcEhu7PpDMIhoIoLycGITMy+c5d31CN2TOmYVJdBXy+ENp74lizfjOadrRwPsN0A3uQ4N/bD445VEOJk5D2CGmTIHVGqCDySTlRNFkHIiUGowAk6HnSgKkwiSkTJyObT2Pbjm04+qjjcMN/fBaRMD9zxe4znOrGBwMkBGJYBmvIING0exeS0QjCNXV47JGf4bXXXsD9j/4IDePHMYq86OSzkM4FkSGKmKX6DvQP8GX8CKb9CKR9COQzGGjrwMc+ej6mTGrEWeecjR/96EeoqK3EgqMORy6ZRF93F750y5cRCvtwy003It+dQ01NLXyBCPrjCURiUWh5P5p37MHVX/wyDjrqGIQ0Db/72c+RynZjzNhJOOesS5AdaMO4+iCikUBBdWd9F2QZkQ7W46FuA0XcT29+5OH/hzfeWI7+/jguvfQy/O1vf0NDQz36+vo5EFDR4BxP9SU2QS5TskmQ8FFat0ztJvsCp+Yi1gA5HHfM4TjsoPkYVxVAXvOhuy+NN99dg6XL30E6S67TwYEEqWgqTVXLgEnPBmMKHiBhBQppVTC5Tm1AYsK48dB8OWzf2YSD5h+Cr9x0E7PDDCdIKEG4psce8CDh4gkZMkhQoE0cSQTKw7jvznswe9YkXHLFBaisqcaujl4kklmMGTcRWZ+f1fnJ+DSkc35kUj5k0wEg64c/m8NvfvAw/vi7R4FMCtWVFdjT2opQJIRA0A/KUIzUl+HRnz+EOZOn4KSjTkBNbDzTl6vr6nDUMcdix25iFd14/71V+PTXv4EjPnw62na2AL29ePCR7+C6T96ISRNmYM0bz+OqS85gRk6zzdDYHaXhbSSAwm0xMSEgPccH/PCHD2DFilXMu3HRRZfir0/9FQ1j6pnHgV0mwmbpJxltyVNB99NPHmBF0Xg+3WthpGflsPiMUzFv5ixUoA8UAZHRQlixdjNeevUN9CXiHIR8QF9fHwYSSSQVmwQnEfZMYjhBQgUK6RkxRWqK2AnuXuW2sPGN4+APaNjR0oxp02bi1pu/BlKrnILqS2USxnrRjSsKUOy9TcVJdRiSuqHCu3CDys65g4RLZV9JTMi99uqyf6N+SiVmz5qGaDiEcDCId996B4cccRx2trahfkwdcqE8O0ErrQWRzYWh5UNI5wIYSPuQT+dx9sIPIZPsRoAZ1HKYNnU6jjjyGKx+/32cevYZOP3SxURE3C0AACAASURBVJjWWIHeHXtw/ocvwCmnfAR/+etT8AV88EdCyPr9qG5oQC4QxFlXX4NDTz0drzz7DF775z9x0y03oL5mOnypNDK7NuGog2eBYoXUxa5SaNWFNNxA4QwSxhkc9M7vfe9+rF69jgHhRz5yIf72t7+jqqqCuThZW/O8sAsJACV5EXjQIvH7fSgvr2AqCN3L08SNBUxu5flzp+O8s8/G2HAW6RwQz/jw7yXL8NKS19nRigwkNKCvn2IkUkimhFFUqXJltzsPN0iwGWJekcLoTDWMXH47oXEcgiE/Wlp3oqFhLO74xjdYePawMAmXAi9FkMNhvWSkQYLJtgIUQwIJGdW1ffsm1Nf4MHNqPa7/3Jcwaco0vL5sGZ7661+RGOjAypUrceiRVF5fEzubHylEkNAiyGphZPNBxPvT6I534dbrbsDW1etxxaVX4JA5B+GOb34dvkAeP3rke/jw0afiZz/6Bb7/g4fxkwd+jW/94sc45pSTMfuwg5EdH0MqGkROo6pGefz0/h/gxMOOxIa163DB1VciUF6PliWv4LJTj6f9tjBpSdGzzYJs1q2HOtuFIFF4QA+dPnLvvfdhw4ZNTPDPPuscPP30P1FWzndFaioBRDaTZZWqiDmoHzJQ1tTUMKpNQGH+nh2fhKkTG/Dh007DQHIAa9euxzvvrUSKhkWUjxsMSJjHJg9ygeq7kQikKlbdUJ/lZ7YMg71IgGAGS2aM5d81NoxBOBrErtYWVFXV4t6772KZsM42FOaD8Z7SkY578G6BRbWRW7T5xuFiEvKpEiiGCBL8cblcBuvXvIU50+qxdt1OjJ84DU/88Qmebpztx+233YxNm9dhxtzpCIaDrG5iTssi688jqYWR1sLI5MJ45qlncO9XvoGjjzgGP/vJz+HLAP/9y59h/YaV+MjJp+PkeacilyxHPJ9Hjw9oC6fQlOlDd6Yfvvoo2uM9LDPyvSWvwtc3gI6OToSqynDmNZ9ArCuBwPp1OO2oQ5kebhVWeyZR4uwVcXkxumsml8Zdd92DrVu3MxfeyYtOxbPP/gvRWATBAJVyCzPBb2tvY2nglAHJjHvEAMCDnigLtLq6CsFQgOVhSHWEN5FWfQ7ZdIqpKjQeLPJKfHil9bxwgRreDR5oVUQnmdBaDJfKurazSVDBXSdhtgUJabwUIEFvbKivRyQawq49LYhEynD/d76D8vJyF5AQqOjVpQMGJKwqj2IhMn1luc6hfzpIrN/IT/DiH+6AKv2Tx5ZN61EbCWDWxFlobtqB7/7whxjIpnD77V/FzHHjkEknsXvPLuSDedSMr4UWCbCDe+DLIu0DujJ+fPOWe7HoiJNx4vGnYkLjJFZgJhXOoDqSQlV3GdBahnhfCB0BYKvWjp1aH97aug7TjzwIvYEMenftxuuP/wVRv495QbKVERx90bmI5ULY8acn8eVLrxC1FM0U3Lu/g2cTrq4n8WLO7OSBtGCh1XfeeTcr5kMemqOPOY4FmJFBMRaNobqqCp1dXQwkyA6c1nLs2DYSppw/yp7ly2dQWV6Outoq9Pb0MjVFFqaVQCV/Uo4HqTg8IpL/HxXDo2K7lGaeypBBVBolndcIOSjUGArpRi44UFnYNUwrTYl7kDhmmhep+ioqsK5yiJqedTW1qKgsYyBByW7/9f3vs7Fy+vDo0b1nS7Brh4nWc6NLwcdpYzFX1NZYUWL9Y1OSn/XUlN1sLEBzkJUeHc9RwQwSgwcKat+bL76ChVPmo7ejB1rQj/c2rMLq1e/jli99CRXlMWF53ob+TB9qG2sQCOcRq4ggH9GQ8gWR86URyFfBr9WjL+5DTyqNaHkSlXEfwi0RxDuAXfE0EpVleL75dZTNmghUhxHPJdGfGcDm5e+g1h/AulUrMfGIQ1B/2Bzkg2H4Vm3D2fWNmFJLNSRKBQi+BQ7WNlEsSNBCkAJGnoo7v3kXOjq6EYlEsOCQQ7FkyWvIZjOoqq5iyUxtbW1oa29HRtOQ0bJcwHMUCh1l1S2RJ8HOoqaygqUTM5doMMjlzxxFI0KtxTmRnJOw4ClqR29fLzsLxSxK9kChg4S+5xjQYhJ8fS0rSoQluUsNSGJX2aSXq2oHNbCqogI1NVXY3bYL2Sxw2623YO6cOSahM/VdlpD23iVG7AoeRs2NzrI/1pcNF0jwlWzkdKiAUiJIDB4oEj196NzairnjZmLzms14esmLaG9rxZVXXg6/lsOCg+eyGgeaP4NtLZvQl+rFpOkTEM/1ojfZA00LIBabCM1Xgz19GfSjHxXZflR2xlCeqEN7IoN325pRO28muhqyaE314r1V7yAQCSFYX4a1Ly1DQySCMYfOQbKhEqgpQ37ldsxuT+O8o48BRfwXQ/dtsNwVJFz3oiKiNtnEietIfuLxBO644050d/ewojHTp8/Cm8vfQjqdRE1tDaoqKhlIdFDBGTpvAzlEo2XIZXJIp0jloICoDJBPo7ayDFrOx8rYhUM8ZqAYkCCvFblUWTo6SxXnBXcNfaMQKHiogwyWFnYEWYnKRGnt1RYJGTpACCeCmgzG3qqU7ZfBVLT6y6Mx1DXUoLVtN9KZHD593XVYtGjRAQASIsdFhL6PJEjQs1lxIpWxWNQN/WtxjYVJqHeWpnbw+dSwdd0mDDT34KT5i9DZ3YOHf/Eg6sePQSQSxtxZM9BQW4P5c2cD/gzgTyMfzGFb2ya0drfCHwqjumo6BvJR9GSTyKZ74dvTh/LuatRUT0OmthK7Ixms3LEZvunlWP76Ejz/1BOYPG0ajrv2SlYkpWn5u6g6ZAaqZk9Fx4oNmNnchY+dshhUq9FabLX47cGdSQwOeGTSpRHlSXYBGvXe3j7c8c070dfbj7raOowZ04j33nufmfopvJqMkmSwpAQvYhJUlSoWKWPnoFAeB9W6BNIIBjRUV8REaDblbsQcQIKul8lYXPgzpL4E/KywDRUWovUrT4s3xs0MFD5NRKuKCwIyfFoItTFOohiuMgGyloUJIMR+ZYCEAjySXSgp5NFwmNXaaG3fjUQihauvvBLnnXvuyICE3BlKExPelkKTAKf1Ds8ycmzMt0pXPX+oWd1wDNFWNgk9qthqk7B4eG1AYjC9VpeND++/9jaSLVmctvBMvPnWq3h3wzuI1ZShrbMN8b5uHH/UUQiHfTj62MPQ1rkHq5rWonlXMz7+2U8jGBiLlu5+5KJJVORSGNjUj6YVnYjVj8Fbe7ah4ZCZuP//PYhLbr4OP7n/e5g9vhGtO1pQfeR8TDn5aJRXlSMXDqL59fcwY08cVx95AqLRCmGskwBa6gxz07wTYxg0SLBj13hdSj4vPOCJztG4+657WJr4hAkTEA5FsWbNWtTV1bJydVVVVYwNtLa2IpFOMsMjZdlq/pBxlFsui/KyMKoqomhv72IxExFK8DKxKVnDkidxcJHn/0tnoZSVl2PHzh1M3eDh6nawqgKF2VMgQUIuYmOJixwfZTtjYyiXnvoeixpiYhESRMTBP5FgGOMnNGJn6042dhddcAGuuPzyEQEJ3ahXnCXXsQ1SlXLbsAwbEldN7D8KSHiEWavrlQGFreHSmIxhBwmx1LFi2Sr0bEnjtCNPQl9PB15fsQx9uX4sXfoqZk+fhu6edlx1+UUYyCfx8G8exdrN63HxpVcgGKrBhqYtKI8BY6IVGGhLY/umDuTKo9gQb8MVn/sYvvudb+GIi85CuDyM1a+8ioqxtZhw4hGoWjCTZYbueWMNZrbFcd5BC1EVLUPez3VxA8YlVBYLiHy3Z0YfmxkabpDYtWsXvvWt77DjCqZPn8GqR23dshUTJ03A+nXrWeFXcu1RhiPt9GTozFH2p7T0M9qaRXVlOXKpDFNbqGAs5XHwGAtjLLjxTiZicZAgTkGeqbKycrTsJv0+66GmSaDgz5HFcXXm5jjM/AsmZ8rAGvaIQjCxAwnpBg0HgmyMmnc3I96fwJmnn47rr7vufxVIsLXo4Y2xrlc7O4VcJ4zhDY93o1BytLwPW1c3I9OeQUNwDMZW1qG3rwsbt25AOp9CR287TvzQkVi/cyP+/tpz2NW9BwsXHonG8ZNx37fuwtSGsZgxcQZaWvbAHywD6qox/+TjsPSdV7Bywyqc/LErUDV1PHqSPaiaOAYN0yYg3ZVAdGsnpvbnccSESRwgyBDnVzMB1XoIJYKE3G4t3XUDCTd7Bd1nxyS2b9+O733v++jvS2De/Hno6uxhMRMNY+qQSiZZ8hatBSprl01nWCp4Gjl2ihf1iISG5SxkcyzXg84ZIQOoXgZOAUwVJJhQa5xFUG5IMpVkqerSZuKe2MUlncyeelEYYaGQGaROoGGNiNSrWAt7RkGMhJo/QgGqdFIYuX19AUyZOhk7W3cwVe2Gz30Oi0466X8PSIiIWzdWom8PFlroFhKgrbO4QJ1CWOnhVrppsmBY5I1dmwf6O+LobOpGy5oWnHrkydDSGgYyA8j5MqipLccPf/UQ1ndsxLgp41E+vhFz5s3G8uf/icOmLMTaVVvQ0t6G9t5e7MwkcP6N1+H1tW/DP7kGU449DNmAD5GaGKKZHPrWbUblrjhOnTQPDVQsNhTk1FnorAblVTiFKS7bEGfzGNirGWbhL96Npr6SC4Nyr3Dvbdq8GT/4/n+x0nULFhyKXbt2Y+OGTSgrizFD5u7W3UzgWURlLo/JkycjEA6JgjNZljre1NTE2EN5WblSR0I984LNqBBjed4mmGpBz6VYDHKzUn0PU2SqvvVbl6JgBZwbmL8UBk0rJPPITnugNv4sKmmK4+kKjZaiXqcGBhLTZ0zDjl3N6O7uZd6NQw9dYG6LSZURi7QoqTKzSL3Vxe4zKpdlcy5WWTH3izbzTUWwPrUosBTOEuM5TGqHyxho6zasFk1ge5BrsEwB2sg7bSZa6ph0STqdRdfuLjS/14w61OHg2QexcyNIC2jPdSIwIcRiKppSPcj0dKExWIaN7+zE5HEHoa2/E13RLLobgugZF8NuLY6+KBAO+Nh5kPmdreh9bQXOmnswJtc0oCZcxkKKyc9faKg0FyCxWvn1SAA1+lLk16tjOJQ08mJUk1WrV+OhB3/EQOKII47A1i3bsW17E1MLqqurUVFewUCABJgMmZQpShW16XfyQMgzNyhvgYKvWDUq3QVvXZWGoJCK0dfXy8K6iUVQWLZT3Iw5h4M/U4R6ONzD3+OU+8HO1rB8JCCwwE3d+2O4Cvn3woqiASF/EDNmzcDOXU3o7OzBTTd+Eccdd5zz8i/BBVroyi5Gup1eLUDC5hH2dh9hEFbkTRU5VjW7RIDg82UgpnVNW8KyRxAk5Bix8yjJdZ9HV3MX3vj3ckycMAELDz0UYyc3Iljvw8bWXsQbcpicSyLW6UN8ZwDpRDl2hrNorsigpSqJLdFeJLMJVGRy6N2yEWufewWfOecSzKyqR4jSoWWgjSj0aq02JWsj2VMuQ1jk4nQS6JEGibfeehs//el/s93w2GOPxbp1G9Gys4V5LahNFIU5d95cbNu6DZu3bGagQX+jSEZ22G8gyOwW7CBeIXyy+ApLDBMnc1MZOEovp9oUXd1dSMT7ESuLsbM12VkeNFCizoPTcudsTZwQRqd9qaqAcpMsdKMvCcvGUhRIiMpUOpsQ2aQyhoKiTGfNmsnUjY6OLnz6+utZ6LnjZ0ggUQz9cLvG3g1cAEaiZiUHWCsTNHIsaEN0C8u2a8kgQaKwEaYd1AJzTuXorSjFnyF2G1EJlQR6+ZLleP21ZVh49ELMPekUjBlbhfpkH5K7c+jfE0ZPxo+uWAo9FWls6dmNN99/E1tWr8CVi07HiQsPQTibZwuaKm3zxcyzKCVADwUkXO0MQ9hEzM+1L5r76quv4te//g3a2zqx6OST8c7b77IQc+baFGnfZEyk3+knBTzNmzuPCfz2pu0IiZqVsqQ8qTWU58FCs3XDZZ4BAYV6U23ItWvXMUMonSzOS+CJTwFIWHd846g+u91WYgEbMsu4sTR2siY4jKcOBjmj7LtqF5FVtGU+C6kbs2bPREvrDrS1d+LiCy8s8G6YhGU/Agknb4nrOlTCVqgrewEkbLCG6T0uEsHOlLSPubftnMU7IFRV9oy85kdbRxs2r9+IPbvbmIGOjG3jJ07A1GnTUF1dwxY4LXSf6gZi62ywQVImCHQN0VX7I7Mkh7qXOKH7c88/jz88/gR2727Dhz98Ot54/U1093TzcvniJpkJysCC6l+IszH4aW7C1kH1JuSp38rLVP86VYliFajpZG929oZ7oLLZeOl1tdgePNyEbId0UTfI7mK3IbH7BJugPgT9AcydO4dlge7cuQsHz5+HO+64g42aakyVQ8HHcl+GZvNNopioXOta4VNsHM7zgQUJJyFjk+dgC/SZjqgdTjEVRjxR47FwUswNGimgILvA7373O7zy8qssd2Px2efitdeWsUAxEfcoeBlfXeQ3Z//0la8rrroebx1KCSjmXVVsBnqtQ/uxLQUk3L0hxvO9QEK3SciTxuStzLPBY0sIBEjlnDN3NlraWtjp6/PmzMHdd92190HCOuCO+6z8grstCdDVE7lsZ0CkrJuAnkfYGAfzFCkWg1A39j6TKLIvFoboZnx0ziT0fhcJGp8Bu8Vtx4xGAigIJB79+aOsKtWullZceNHFePmlV1hFqiwzx4rAK+EPN3ZFeXKT6i3h37IwXHXhFripjFVM/XSjuKWBBL3dWzdjZJAOWbF8CgyXlrnRs0lFyjjZJGbPnoU9na1oamrGnJmzcM8997Am7E0mYR1DWbjXbQ3KIkLE7Bw/6txYHUgOm6rrO4s3XKpZoNZZ8ghkVtejpdGmdVjQGLpYuVnn0N6iLEvgmzdOaYwTdgmXEFdH9kIqjMwJYGtb6ZA4i8DuXgYU3s0uuEIqDpZyKsx9+ctf/ZLlarTs3I3LLruCFcTtj/ezlHAu70YVakOguYIqWQJrk1TvBDvglL0wctIk+B4gYV4RqgLkjAfG87lVX/3IYdbPA1G+N9kfRCUx9RRzdlSgOCfUr/kQ8Pkxc+YMdPV2YHtTM2bOmI577r5Hr4dZ+Ha1/WIWFTy115KU3d9h3tmcCFWcTYMoQKyvE0evhk4TnEiEeewGse5MtxhdNnKTlL/p3j7XY/48KlMV00ZamHIh69AgQ+yk20ZnyN67jt1uz9e+zQ7oct6kvMfYiY1IQY4Ryu7KYMC5OIkrSMjnCKAsZKLmw3s72jvx2K8fw3vvvotdu/bgyiuuwj/+8U/EE/0MHLjpgQMC4xXSNShO3mYeEI1sEbxnpigPySh0PZhfY0Q8UgEcfjaoLSCKMzT051quy6vlr5UHGHq3xN7CeVZDuNVcDWbY1N3Q8hRtcb8sgkv2FI3Ckn2YPm06Eqk+bNvejGlTp+Cbd9xhqphtAkRxeBDvhgBPfUMwG/HVuA16u3qCuwn0LGtRZnea3uHmMWITN5htpxhpdL5GKqx29pFhKTrj1jxbkFBucIv0KqXbbE8Q7j31PpWkeOnIxm5meTNbk0MDCdMOLx7PqaXKWDS0tLTgf/7nN1izZg1ad+9hhyb/+U9PITFAkY+SBRSChPRIMCMmgYlpqRk7FKWTk1lH2ehkTJX0PzkqCNRSYhKG0JrHKU8PLyKXwW4eGEgwxJI/DCAQsOhovJR2CaqnMGXyFKSyA4xJTBg/jpWwo6Ay0zrTNw957qAAVEvdU9k77pnh7eH/7WRsVHihCP6SN7np/yaQ2fv4wF6/34KEygD0heNwaKwdYEh0NjYad33aFcyEXisXpHl3MC8m63OKYRLknlIZFafKVCHLkGb6fcvWrcxwuWnjZpbpecXlV+OJJ/7IysyZdi/GJGjX52/nZ1mQl4cbMhlI6N4kYWuh0nR5OkrYslfxozbEx4i+tBsvB7LAF5omjk0cBFCQgBdkeyqgYdVI1WtZWDaV9NN8mDh+AgWoY1tTE8Y21DPvBgWgSTeCOleFLnK72TegQgIEu4rNm06BTUMllV6eB1P4TLc4mxEr0u6ySFlXxIv3OyYhQYK5NZWdxNXtqkwHMxAJhNCrGNiHrJnXu9hJCnY0ZZswuTxZaTVniPECCVb+XlGHdP+/6rrNkxvSz+pNPvHEH7B581b09cVx2aWXg07zSqWTDO2564sbWVlkqShWY1KPxLhINsGazgCCgwGVkHFqMxXKdVuoXiChi1SJQEHtIiHXP8pmIeeW+suzNHiHZAYlBwmeBTlubCN8AQ1bt21DXW0Nvv712zBm7FhdpVJ7rgq93eyau2AsAPq7tSoUB2r+FFnhi/9S+OR9BRLOsy4Omtdxz7w69qm6YbULyEEtBST4cuELxssyrz9f2bWkcFkptB6YwnZ853BitoO66JB8d5dhtWLXV1eUDmr0ngBWrFiBP/7xj2hu3onkQJpVyn788cfZieAcGsg4yf0c6nvlOZu6/yNHO7thvCThlq5EO4DguwktcIsnxLLGiwUJ3kVvG5PJOKkChQ1IsKZQTIewZakgQTYJ+tc4ZiwCIT+2bNuKyvIKfPnLN2HmzJlcWAsMQu7c3q79MqxcdUEKaNAxQe212b7CrxwSSAxSHbFjNOrUyjbtd0xCCrg6eV4Li+vlim4ueiono5jcCOaXt4S4WgHLFL3GQMJ5dlwJusVwaZoYNgAKkdb8ePutt/GnP/0Je/a0MyPlueech9/85rcsL4OUCDoJjUCCYEIGTtETWH+koVIAgixxLwFQAoWxSK2eDjtJMreY2TTkmFtAgNQN68drPq3PMmWRCqAwskI5ELDzo/mECe+Gn/2d/jXU1SMUCWJb03bEIlHceOMXMH/+/MLtXDfqGvNaiGnCDmHCOvmLMW9WxsGYRAE+Kn9w8XJ6qRvFrG/bznr8cb8DCd1tqKgLxe48csGoQiwFvigmIQVKGqLEz6GAhMkI6DIZZo+JChCs98ws+NrSZXjyz0+ip7sX4XCURVw+9tj/IJ1JMb2RbfS5HAcJS+CT9CKwJ5EXTlS91lVn2qnJjCHWq77gKLtQyDcrJsUKywrebOpPntXRLAUkip1XXQWzUTv49svfKo3Lcr6YC5ROlBcgUVtVjWhZFNt3NLEIzB//+GHHQ4O52ibqS5o8Di7l9RzJkXGPVdCtQOnGJLyqp+0nIFFs2XR3aNKNdMoGrO5TcpKlqkBCX1jvwHCfqtcPykNUEFDDF4i+4EHBPPYrgNuoxBHcLvq88SxlbORx2Q7DZbZ6a+xoxH/84x/o6elDdXUtPnTcCfjtb3/PDJeyurNuk7CQG8kcnECC+VIYyJi3Mp44JjwTbBe0z8hkYJw3n/GhCkCWoRGFSqtAIv5biTUxU3bOgtgt/Ha2DfO/SSVfT6wuHEU5r8JwWVNZhcrqSmzZvpXZOH70owdZ2rsto2FMRWUS5oK7Zh3eLBd2O740vbJNUBzGZgeoXmxhMExgqPe4qsyFcRJ7CSRYbrxRAJRAgi0MSmtWZUzGF3gE+XgOkgdI8L3cHigYSNBWKy3AHihlgppSQAIann7mGfzrX/9iVakaG8dj3tz5ePLJv5pAgtUUcAifZnYIC5NgYRUKMZAgYdhKxKlgesg7D/e2umgZiKsgYfFEyXfbzwUbRfaVHUhIdYnPA1cdDMx2sVIp80qgQBWzq2ursWX7NrIu4r777kFjY6N4r3kTYKCr0izxbtlIPXBLuU1viRKfItsss1HZZijZmnovo3rFxKB6ruZhv2C/AwkpdAXUiSzUCkgY7EEwimI8F07DVwRIOAGFDhLsArG/qOvN0q7BggRtwX9+8i94/vnnMTCQxNSp0zGucQI7mGcgmdSZhBtIsA1Z6OzUUnlWmbp7SZAw3LIcECSDkG5ULtDkpqXv/TwRzCVehPMylTqaBskxSMhqH2JMiLVHFz9nobCARHkshroxddi6fRur2nXqaafgEx//uH2GpJIFaoIh+V7lpzSSyobks9yYbd3UOLDwWBJmTJdDoA+FYE3DLuaDfyCHb2ebm413o3gm4UabJDKp10h1ww4kCDDYcfKiTqNqIyjW1uA6TGwxGYvW7WAWYhQmY6SVxViyWVkQkfgwo5VpvPmi0ReXG9D5/Hj88T/g3//+NzuZa87suaiqqmEqCJ3HyXzZqgtUPsvumSxcnNswrEqUlUlwA6A8dZwfRkxl9VSBJ5DgsQjOi4nUDbUp8kRz3neDSfDfuBBxObSsOZGjweuDmFWAgjlWStwRk4jRkQpjx2Br0zaWOn/yohNx7bXXMpAodHmb28SfLdtiYS+ijbI9BBLUC2tehkxbFzn9RnOVtWcKLR+8bJd2p1fdS0dbC7D/gISgoX4fCahh1OP2AOdQ4VJGio6lL/aTJzXBQR6489H4Mi+MXjqlVyXFQ91Q20NVr3/7298xUEil0jj44IPg0wJYtmwZUuk035XIuyHCsXkb1HBiZU0qng5rn/N5nkwlwbfA08PiOswxm1YmYbfzsMJC6pjpp27Jg4f4lyK6hR8ErAuPuFGCmuKB0sHCbvKEykPPIlCKRiIY1zgO25q3IZlM4kPHH8eK4Vr7aAdcHCNsVBvldDEGAj4NEiQErOgt4yYVziC4CmWoTZxVuDMJK2Mpdr16XneggYRcoDKCkK19kaLNahooK21YWIQYwdJAwkapFM/RDYji95wwvEmmRJKiA3MJIEHVrn/5y1/hxRdfZmd9Hn74EUjEB/DW22+x350gzhqHIRDAmUDm/aaYEqtYMBBkkZvShkDCTOqGxSZhASIRb2m7XpmJQQRZ8KCwPDMs6nEqypzr3IvdxIOkdIFTni4hR4II7erhUIjV/Ny2fSsr63f00UfiM5/5jA4SZgwz7wLGZm9sqzrTkXEfEjCs7E0YXXUmYfGeqarHPmESHijiGrsxFMOlW2CNPBjOTt3gu4lhZ6AFoHo39g+Q4KjPBc7MxVRVhfWD2QAUQ5sULnavi1PcOnHMJvEk/v73pxGPx3HMMceiva0Dq1avYhWo2CE5ea2RqwAAIABJREFUeoaFpOx8MHn0qfw4nZEhUc4nIgZ5VqnYQCWUCowxp84TSDB7kWK4VCNejWFSx0oRNhUkRP0LJtziAB9zMol0CPMdmd7Ld1gznBWChMaSuaZNnYbN2zZjIJHAwoWH4oYbbtAdJ1aQMLVWD5nkf9VtIjqTkOqRoVISMMnitHQPrzguHDUWJsGf6V79zZMRjNAF7iCxfq1SsNgYBCnIbm3SAUANCJK7q1yyyipUJ4Qb3/hg0mIRQCwWqJx+0QpnNbiwea7+JeNBgvm5DjmPzzfbFHiLLFGJuk1C9lBpsFsAYwGAaFj2+ut47Nf/g/b2dpx44onYvq0ZGzdtFCDB92p6unR3slBrESXJhFbvmLRf0MK0RPcwVYqKlAjXp4QHJhUS1ERBGzEzPgESzF0qzaGym8xqzw8dNj6canMywFstsk14pCjn5Ya6odwqw8c5LpCFiGd5srG3eBWY4MnqVJrGzjudOXMWNm7ZwID2cAKJzxkgYZpwkzXXOLCZtVdpmwoWXF1QYiJMWS/CziLmQMK2iQVZdP8ChuRiG7BbrKbYGzd7l4sMeYmXtm7dmrz+IitSezRYjrE6cXouxf9n782f5aqyc8GVc+adNQ8IAQIhCSTEUIxiEAIEFFVFja7B9nv2s5+ncsdzhON1ONq/9F/R0f1LR3S3n1+3y65XxYwEYipmRDFIICQhNM9Xd745Z3Z8a9hnn5Mnh3sloOxwRlGSMk+ePGefvb+91re+tZZesKCsgI8TPWlI0b4XZYjnWqvPDR4/27ZEQguD26qKCz8GAwnNEnAf2nUHe3enJ9CBN25qgpf3s7t376b/6//5B0KDnu0PbadP931GR48c5b6cIAYxjqzw4Dg8dAtESa2WbNab8upqYUhEJkTaKSch0Q3Tf5g+whaj1sGyRZlM8mLld/k7ttt6x4cWXaBq5UWM7yC5TKNDvDMpUPBCN6DywrUGMMjX4IpkXkds/358kEhlMlwk+MDnB2h6copuvvEG+quf/zwgSD2gaZek4oRdPJ9UreHIVXV/fDo4sjdY7c12nI8/y1ojOx0WXcxHzraK6xbu/9A8qmnb18MgoTaWu+c5gITzLQXuGfHNWogzs6RakiyuSwUSsmO2X7BRoO0ZJCKn5H/6J4uRI9sAy2Fx1yRqG8is/dfbb79N//Df/pHOnD5Djz38KH308R46yq32wElombMYkPB32QDNtNylRRLMKGqmNCQovIPxQfK9YMabC2MAD5iQqFU8O2I7rtwxrB7NKOEF1mCLB+DG54gUwY0DCbsaFJPp5Mf7IJHMpGnjxo30+Ref0/iFMQaJP/+Lv2ixVuVW1WL1+RCPS+D71vJ4gmkCbJyI5pm+0YXq/9stNE8YZt/1ic1eCcvWUK09NSW048wNnYKdwpztvsbDtH//vpYZ7C/4DvmCgWEaY+bUUdk57AAG+QWRkOK/PpBo5260DrVgIfstkQ8NJIKFiXF/+eWX6Z9/+T/o9MlT9N3Hvk1vvf0OnbkwqiAh4GRaUY6qqKuRUjAKBVYwzrHrWUvgqxURNeEDS0l+z3Y7c3XaTahYVaMeDABHmV2xgMQKMt/djYDeA5vzOly+BcraiWDVOX7GFjBLs9NpuvHGGxkkzp8/R5s3XU9//md/HpJmB6CorRv1+ZhOJLAkAmtIKnuLZeGzTN0Wd6cx4fuJFKDpdHynhSzX1mFXvxhLIg4k3C7Y0ZKQfSJOS84iHigUI+vCuRsxIBFluXlZWUJBt9HxJuKlsiTc4uaQo+C3b0GEeIkulkRHvb2GNKFNQMrzc889T79+4km2JH74+Pfo9TfepHPjY9xZi3M3tAI204qRSSFAIReKVOZ2vxu1HmKfYYzvb9yR/zj874p7EE/URkGCS+0ZwecmnICSlOLRRWm2jSey46iIIou/a+Pv6C9y08030cEDB+nsudN00+Yb6E//9E9Zmt3y8sRUwWeeTsJzMbiauMnFPX7EAYoX6oz+TtziDYDXV5b2ljnrzu8t/K6E6NcDEoFl75urcQlYDvx1kKNhTT9nw9/F/q2ARFvBha1pzqfAyCXpqSefomeefZ7OnjlDv/eDH9Kul1+h8clJqjVqsqjqImePAwkQfgAKYEW9A0j4rl4c/oYsC096LUAZxP79MKnsZBGQ8EwPHyQwoWEFmSI0ZEmYVF+BwjwkhIf9F5oOGUD4UTb0Ddm8+UY6evQInT59ktZfu5b+5m/+hlKp1kK7QkGHNzMhLc21CFsSbEVEa5FE3Y443sBcGM/laAcuPVsSkUX/Ow0ScbuQz0WEnqxm6n1ZICEPtwMnEfmso3VmbgLzBuGl1BLd6FbaLsRftHoeGA8saqDAr3/9BD2/8wU6c+YM/eQnP6EdO16gqckpqiMSoZYEXAjx7cMvHyRgSYTrMJqEyaoqtcIDP0uPhHMTj6MXQpoyWSo2pNNSuE1C625wDgwrXDl9QheduBsSLFKQ0KI5cSBh71lIMWqhIPOTn7fVydDbAUhs3LiJTp8+RSdPnqArLr+M/u7v/i5WjxFVgZrJbkAhjYjleuMsCTue7z/GkogueAgF2cVCHxEjbp0VHBZexYF3y3tfpyURWhPtXA72B1Tz5yVqRQEgChJuDnoL51JZEoGrYXfQmXmNAwne5XgXVmWgRyf44BAGishy9X42TFzKztQyRipnBon5i1/8M1sP586eo5/9/s9YMzE9PU018Ac8wYAQfksZ/bHIghFvz9dLBCrRWIrEXEdvUIwPsNJvIgjCghCQkKZAMtYCKJawpwtY79VcA18jbipVZzm6UJlv+MuOLm67L93Wpjx8rQm2nuwFd+O666+n0fPn6cTJY7R08SL6+7//e5dO7s/HuAQv+x3+XbVWcG+uvwfcDsvNiJlAoahLBDh8d1vCw8FECQC5J3gIDvKm+tfCSYQGNJTqq0ag7Ty26zpfbW4y6rgCtPPhJIJnorvmHIRM7hqwu9U1VclxJ4IUyoU7fYf9JVo52YcmH3BdrJ8XpOlE1F5VPQYKzLz2+husk/jpT35KTzzxFJfTr0HEZCXzNXkxoCBsgXq/3IDIx3iJ4E88Ux6dmO5rAW5HQqah8LUBopCigQxGFrNPNPpWiYROPQCI6B4aCbk/v/eo28W1BqdPKPq7vu73fHK4FQiBTk5O0rFjR2lkaID+6//8X6mQL1Ammwk8PzaLvB3AC//b77CISwVfDBT4e1Kqcru1GbvTyH1Gr1ehLmStmWvj3JxuIbduBOUcMaaXw2OjG3Ff5JCmEokWcnK+W+QLPDnnQDq2Q8COhF+buxPT18Jb7fMvol/3r8F2ercTMxh61oILbmhIssO9OmDRh4tTYfLh/UZdennWWa9AlEln6R/+4b/RG2+9zV3Cf/R7P6Jf/suvqFgqEmpR8QLHsRGQsHuxRSUKTKgqRV4trkGw4/uWDFs2Xvm/duMSjE8wDl4UW0RPhlEejxFEx4QAbvdikMCLkSYgLVm85LRX+r63kDCWLuYBqXcmTWvWXE2VSpkOH/6Chgb66G//9m+5ZSTXlVDhldxPZ5DgaEkMUPDzMwMuzpow0tXuw4tgtLgl1nBIxywa7Ygbr555i14QoIdj5gwSvO+pEk4u1jOZvB/0q0P3cB2X5BCftUfISiNqcz63eFKmIVCeIyQUsg1JIcArTSXfjZIY3uJIEHf7Roi4XCrTzPQUlUolbt47NDxC//Ivv6R33t3N7/3wRz/irFAkKtVUZ9AJJGSn0qlfD6ppd4pyuMHxF3Yb3YDaIMF4egldstN6s8F5QfIXbznGPo9GQkVdyln4QJHUJtAGgv4isX4bdtJMJk2rVl3Oz+CLw4dosL9Af/Nf/gv19fVTNpuhFLqvm5qSs2pdRpnu/m6/D6IZHlBIurxYPHweX//gRWUYeBUk/CLPwdn1ikNTI+htGhqkCOj2BBIeoTrnBRD5wtxBwo+bm8nIswAhvICBxu7Ywvhd7NX28H3bFYOYZQ9f8g4RYAkK18oCi+RbRwq++FaTUjXRYXZQmkqnGCSw8GenZ2h8fJyKs7Oc1pxKZ+jpZ5+lffsP8Oc/+P4P6P8zkIC7YWni7Kl04Fs4BKoujYKWG5fIlYUiGfpZCFSiWZHtfCkWdJsVJ7057cUxhDZFctwxobp4bifij8E5hEKi3jwTC0YWK34nk87QihUrmE84euQw5TJJ+p/++uc0PDREuXyeMlmvSpWX8h8YBCold/JrWbhWwsDcDgcSLZELG6AAJJzbEeUoYsjOqOsd+q66ir2ARDsydW6rQY6eM0gY3PKFcg0IIbF4HVnLO881mc9FfZ3fcUSaDxSx+2BgLYRk5DHREB5onUwwe3H8zMwMFWdmGSiQYwDzuFKt03M7d9AXh4/yhH/kkUfon//5l1StVKnaqApZqKSqb8HxePHvmitgSk6JQAjuRawbY1n07ai7ZbttKFzq7Wj+M0IUAF3fizNTVKtVnfvi/65AbQ/uhp3Ysyh8kLCxDBaPKHaNTERdy8VLllA2l6XjR49QKlmnv/6rv6IFC0aov7+fUulAL+F0GnF5GppTZASjDxTCTfhqUj9s6o+Mn7uiC84DBj63uj9sBSMIHgHAuLXQC0hcyjU0d5DwKzy1mTQ+f3EpL/arOpfjJDx5ebAAw1fBwOjLGruARF9fH1UqFbYUZqamqDRbotmZaa5EVSxX6PkXdtLho8fYh9669X76xT/9gqq1GnMS3L+jDUgIT+FR3WpKxYGE8SS2O7sQZnSA1Xdx540+70STVq5cRldddTX1Ffrp/d27aWpyUrmQCCjxBjIHkBA0YLM+DiR84LXdHUCRSiUZsNC169jxI0T1Cv38L/+MFi1aRAMDQ5RMZQILx2Vr8tl0/zM3QjI6LQ/DQNMAyXQbJrAy4tHZPO5Wpc5FgH1hQHEchUbT4kAieszvNEh4dxryx8wP96cAfG42AWN2sK9qsc/3d+JBIkiEisBEWPjQBSSQymyu2OTYOM1Mz9DMzDQVi0WamS3SzhdfpCPHTtDIghG6/fbb6Ze//BWDSg0+e709SHCzGLculQfwrAgfCCx8GzfZohaF3atpKHwffMXypbR+wzoqFPqoVKzS7nff4XAtXsYJBSQpFkf7tHlHXMYAlSgsvYUWEzo0oEC7wIH+AVq4eBEdPXaEGtUZ+qu/+HNasmQZDQ4OUMIHCX1ycrowKYp/SQVukU5HQSKRCnShgVWhoeA2oU/5lTZWh3IIHUFCLcK2INGOh7hIfqJnS2K+C85MTvP1Zeedfzu+i7mOTt8VV8nSq8OchOgBgkK40RoRcwXCdCpFmXSaJsYmaGJ8nBcWIhhjE5P0wosv0ckzp2nx4iV00403cs1LgISUyJO6G35Uge+J075RbVwXEnMSAVD4lo7cp1duz6wFf3BiigtEQQKhxjVXX0XXrF3DGZq7d7/PKlFzO6NjbeX9eZlYfQjvIOnZoWQKo4xEOVhBqnwGL1R1a527YZwAjA7IspMpKhQKtGz5cjp+7BjVKjP0x3/0B3TZylU0ODREqUw2pFVpvVXVYygNxZaD/ae1L+zfoqkI/gusBXUvleD3rR6O1qiQqlvehwFGt+Pc7/YQPp3P+vnSQSLk45tv/jsIEqE1EiEunWjICX7CZvNcQAIhz3w2xz4zlJQTY+M0PgHyskjnR0dp54sv0elzZ2nVqlXceeqZZ57jqlSQZUsoUykg33BQkAhbErL6o9Jpsalb+YnQ5IkBCSgeYcpb6Lavv5+uuXoNDY8M08GDB+nc2bOsLxEwlbP5u7+lt8v6l7Z80ZeEnDUUankSjniVhWfhzgAk9Lf0M1gdCHWuXHUZHTtylOq1WfrZT3+PrrziChoaGqJ0JicWDfDIFdILzuFfkwi5VG2pEQ6zLAIBoOknwlZSOALo52T8O0i0PnhTZc5BNzEftLuU32lxN7xmv9K4Ihz6bcdXtCyCZpP5hYFCH3MO01NTNDkxSRcujNLU1BSdPH2GXnrlVTo3OkpXXnkl12rctetlqlQrLMs2q4z/9PVqAInY8bUGwpF08LYg0XpvUDCiJNzIgkW0YGSESqUiTUxOULVSE8Vls0n5XI4GBgdZ8wHXqVGr0sTERAgIsCDrTmwllbnDgRLV1mjSle3Q/j0zwHAJvWBRG9bw8dwUQapTXXHVlQwSlfIU/fD7j9NVV13FPEU+308JSLrjQCLkJgRRDtZiGEhEwIKBBO9Fckt4hqibMl9Lwh8DB7odglpfFlfxlVgSv4vuRTtQiUY3sPhaF2DUkuhSYFdNepwHC2loYIBSqTRHOGanp7l7OP47cuw4vfLab2h0bIzWr1vPC+/137zBLf4CkMByszRzMycSVGdLg5eUgpjfZTwMElLrQYlBNxDBucwUQJWnlSuW03Ub1ntVoeXeEbKFG4TCswjryrjJgqlWy/TxR3vp9JnTFkORpDMDCTbTvfqWHLURELSRjUhw3FUKGIiVYlyC27Wb0pIBoHb12mvoyBeHqTQ7QY99czsLrGBJDAwMUiqdVcm6VfIKZkN4oamVoK0eJH9Dit/gOEkaU2uDOQp7Gb8hrQGcZaU3Jd6GyrI7LfrIMZ3cjl5dkvlspl8JSMy70tR87ugiv+MDmkVpul1/1N3w/22TDqFEhAfxMBeOjHCUAmQlwqBjYxfozNmzdODAQXr9rbfpwvg4F05JpTL03rvvaVUqKTWHtYjCuwl28q3LuJ9PaYvd0yl4hWU020YWpG/ym9+vSxCfw0Rfe81VlMkEwuc4CX3ckB89epz2fPJp0CwZClO+JF3kHhmJ+0JVLSYLnSeEzK3W1Gm7ZmuQLJFSWXAmrAK4rduwnr44eIiKs5P0wLZ76Nprr6Xh4SHqHxiidDpr+vGWSLLvIllNTT43KnM5UZUlfAWkpg8egaQtABkfKMzqEcMlnCoeHUv/89C16YEWVTGuL4CpzuedyzL5UkHCFku3RTaXC/4yj/WtCN6TkZ2JOg5dIjTdQIJTu2GR1OtsCo8MDfN5Uai1XCqxoOrkqVP04Ucf09vvvEdjE+N0ww2bqVZr0Ecff8THcj1KnMPUi3A3QkpPj2fgvwZbVIslp/Z6J5DI5jL0jZtvppGhQVeJyhZLt2dw4sQJ+uijPZz6LjyDlg7WYjN+vQg7F+yjaGFlZ00Yx+HJtUPRDgUKA4lsJkvXb9pIBw4coOLUBG3Zcitdf/117G4MDY1QOpOV8YE7wCRqixFgSzAEQOFMUAGIaPTDB4AQSekIVk+pGQWJOUYhnIZDidBOANPtmXX6/N9BwhudKMnKk/tSgITmaOCnBoeHuYEMBFIQUOHP8bFxrn+AnI0PP95D4xOTdMPmzVQslmj/Z/slv4Nq1EQIlJes9H0I6zO8Yre9goSYE04MJ3NUjPmVly2lddeupUI2EB/1AhI45qWXXqJyGS6SRiZ6AIlAnauWkCk9LULgrWRfzWlwKCnlcDcS7G5svvFG2rdvH81OjNM3bt3E7QkGBvppeGSEMpk832Ncdy0fOH1egWtJaOEZ6xfCgNACFJYUJlcWjWS4aEhEVMWbkifl7nVRfxVA0RkkPElut900elMW8sT7viUxR7DsdawuyXGmJfDzTtzfVWHqwqT+L3qWhp9CzpOMo3rCRcCHXbR4MX8TNStrlSqVijM0MT5Bhw4dohdfeoUOfn6IxiYm6Bu3foMuXJikzz//nCdPvVlz4U9JoJMFGAiiZL27hCo1LILrjY9oKESEtlKcc936a2j15ZcRwrUWNRFtU6A0jBt03Cd6mWIFQinjZO4SqY3EPOLO4AvCzCsQ28NeSZdJJu8EPAZCoAnKZTJ062230cd79tDM+BhtumEd3XffvTQ8PEL5vj5ijQNjUUBAB/xGJCXdC3E68lJFW/htaUcYiK6ivIVfct9cEj+Xw9edtIyOHyXSv8etQ19s5bsfNl4tbkoHHiTuiXQECR9V5wwSunCiVZB+10EC88YvvRflKCRm78cfg2FteZ/jhRIWxPdg7g4ODjERiXJ01UqZyrOzrJX4bP9+eub5nXTq1GkaHR+ju+66i06cPEtHjx7lVWAggf4U7L5wKDSY5AZwQRJWpPeGnzvRIY/CLInrrl9Hq1at1J4XwT36Icg4Nh0gsWPHDs7kqENYNscJGTtJnZthACWRA/9l3ATyOHKZNN1+xx0MElPjF2jDujX045/8mNLpDFJwQ6WHgmI2RjbqnxqdMC2EpYmzdQA9RirlcjpcpqjpJlRqLcVqtD6JCswcYalWnIvOxHATIatGozd+j4+WsdLFJfxMQJhGj5trFORLAwlXy+BfkeLSAIDj/d4OJfcSxBxbis+Irdj6ApbAXak3WDy1cPFi3nUatRqVa1UJbZbLdOb0afr444/pqeeep4nJKS5Xd//999Pnh47SiZMnxBKx3pxalk6KysSBBGd4uIJA7qI8YOgE+AYSa66+ktasuYKy6XToviIevOzkodyHBD355JNMul4ykNAFFeyMQTPhQJMhllQmlaQsLIlbb6VPP9tHkxfG6Jo1l9F/+pM/ZrIYpK//qGTB+AVgvJ4a7r6UGOWQphTChVUoZKb8qeEieSJ6nFleJgYTsVsQWo0Sl9HFG0daBqn3cXCqURMHUm2OmaPo6ksEiaBqUfyl/u69yxxEEwSjgAR2DykoExRpYTzoUQyGKdGoCeGIfAJwEXhVYEnUakxcFmemucfGBx9+SM88t4OmZmZppjhLjz76KH28Zx+dOXtGSE8QlxzcVyJQq1NZ2XqzJFwLQn8lRLNWOwC3gUShL0c337yZRgZAXIZfNpktFGlAYVYDQrvQdyTTmQ6F/eb+/Fvk0x6pwAsyqSCRztAtt9xCBw4dpInzF2j15cvoz/78P3PfEo4ex96Pb0lEgSLgIzj06WklgnoTQUjTwrsWmjWHyAcJHjO1HqIWQwCGc49QsKXy7yAx98nV6zdMWRnVSjhgkL+0uBuhndlPreZ4ZZ0KhTwNDQ0S+hXDbag1mqwzmEaq+IVxOnniBO3du5deeOllmi1XOCv0O9/5Dr39zm46f/68gFIiIFEFzNSSQK2FiNTaKTPd9QYj0M1tNJAAPXrHHbfSwuHhkBQ6Gt6N7n7WTR6VoV5//Q1CE2T8d6lePlDIQlMXJCmgjmBtPp+jm266kQ4fPUKj587TkqXD9Nd//fNAsarKVTH9xQoAEEOtiUW/YGQBZ4yikpU0sG5SvVZn6fzszCwDvGWFWgq5BEvCeR6BheXxKcpftAMJA9z5AEUvABE9fy/P5cu1JKRQ5NxfncyhL8l9EfogXAMDoFGva2u9NuRky6KLgEQ2jazEITZDa9WqSIGbTQaCyYlpGjs/RhcunKc9ez+hZ3e8wAACN+R73/sevframyyyYj80ChLm/XiEli3Y0BD1yEX4kxILB9d41ZWX09qrr6JsOuNSmH0S2ncz/IdsQIFivrvf/y01k2GXZe4TIt6ScQuNd88AJHLZDG3ctJFOnz1DZ0+focVLhujnP/9LzW3xixGBM0ixjHvZ0qU0NChWE1wJgAOK6uLvDNKNJufYQDpfLM6ytYmaFSGi0nESQYQjChR4XOaehNyJyJwPrLXerAkDCB982o3z7wwnYYtnzsSlimLa3WC3cvAXMwGjZfdM38Absid77uhuaBQE382kUjQ00E8ZrubOGUhccQpKRYQ3IcmeHJuksbFx2ssgsZMayQRbGT/60Y/ohV2vsIaCw7Dc6TtIPJN6uEEkwCcuZQzCoc2QddEJubkuqOzOjXqV7r37DhoZBsgFRXwdoHhcRHTccY8vv/Yq18gI+oNcPIsZDVHatfogAfHX+vXraQJ1Lk+eoGWLRugv/+rPOPdE1qIs4mw2x27gyMgIK0cLuTxbCRhLLOR0BuAYXHOtWmO5+dj4GOfauPCnZx3AmgB4OO7B4zXsqQQcRrzLERrfLmKrELh3cTP8885lnfRuSfhn7WE3n3cI1AcJDZmFfjqyWOdysx2P1SKztlMyE8FcgGRf+iDRFqgsTKrfwcTLptFBU4hPhD1Rso5rRxRhus7QzHSRpqenaO8nnwpIJBIcLv3BD35Iz+98kXM6RNAlIMGAxe6Glcx3poTGQMOmWyBgDN7vZOCZu8G/1SS64vKVtH79Wr6PMMEXJiyjY3v4yBH6ZN8+qqlivfvu5QEIi73s35GQqLfj8jmVlzD/H9GNTDpJa9asoUq1SkePHaXFC4fpL/7yT7mZMJfJTxCnty8aWUj5fIEtCTwrgEK9LiDBBGVKdBf8/JtNrgFSKpZpClm7xSIDCkOOEpemI3Fuh2o3QlyKEZvGR0T+DC1637rogq94bk4N2+3YL4u4DGNEbz6EsybmmNzlTLRo6TS/mpJX1fpSAAVHHTzxlO3aVgm7XXTD/21ZCE3ueck7ETQGrLSUMCgLqKoVqpQrVC4VqVSu8L+npqbpw48/ZHcDJewwWR9//Hv01NPP0tT0lCto69e2keQqbZlnxX9d/Q4Lf3oLzKvl2GyIOxH/ClLimXitN2jD+nW0ds2VVllfJNBM3skZ/FPhPYRxd//2AwnT6mK3fhttnxU3MRZE4dL82uFLhCbBecKWRCvXkU4lKZNO0erLV/E5Dh8/RguH+ug//ckfMc+AhDUU/lkwvIAG+sA7ZDkaAi4D+glWt3K+Tp1y2TRbBSx6bzTZXSyVKlSu1PhZlsslTthjl0RFXwIQcEP8FPJg1broh1kIXthS7j0gULsDazCaLuwZoEzboZ7LefmaOrX5iztZN+IrDkzmKsvuCBJeZGEu19ILkPAOrZoG/tMRXOGIRoseQi0IXHc6jVoRKZ5s1XKFw5+IYtRrNSa2ypUS1asogovit1Wq1ms0WyzSbzW6kcnlqdBXoG9+81v0xFNPc1EaIVRhTQSTzbkeWj/S8RFWE0NXL89B9TxsDFBroh1GRJsu43fqtSZtun4dLV+yiHdikJLYpcWiIl58cEmwMM6eOcsWRLUGKbnf/SmOAAAgAElEQVR3vbw6OmxxlwgksPPjGaxauYItBwOJn/3+j2nRosXU11eghQsWcc2JXCbLfAuAg6NGjQYVK2WqlxF9qtDggJThB3gg3Fyr1RnUMX5lAL1WGOOxV1D4ukDCBxj7ezsw+FJBYj6L0hZeL4vUgaCrZtya0tKuXH+7Qq9z+V1nPWjmJ//bvHsfnKJiKrV4MNmgh2jWa7yIsPNgxynNzPBZUMm5NFvkrRfVsWdnZ9iELZZL9P5HH9Jzz++kXF8/DQ8P00MPPUy/euJJBgnZydCA2Vt0SoBKe0CNnpu7412f52ToUCQQcOkIEn4wQhoVSV8PNLoBAE5MTFKpXFZOJEEDAAlEbxJJOnfuHIvF8GoBiY4PA+TmxVsSDBKpFC1dsojFa4eOHqaFw4P0+OOP0erVl9PQ0DCDBNLbMyAnIYpKJAh8Q7VUpvGJCUrVGgw02Xya8n15SmXEusPcA6jX6+i4Rswrwe1gYdfXDBItlkRgfLWM+pcGEvMBCNnMArKt5wUbUzuTb0x5g/leS6ffN+vAQMhKzLUDCbPexU2pUy6dVYCAuVqnMorXYtep1sWKSCb5T/wHK6XCrkeZ08VnikX64OOPGCQy+QItWbKEtm7dRr/81a+5krZwEAhnhHfiUMhW4//KWnipEGGYAOxKS8E4d0OFPuyH65kiPUU7TTCmPDlhynJNI5ZEhweQoEsDErBmsPDRlGf5smV0EL03+gt015bb6cYbb6AlS5bSggULKZfNUSGdogbn0FS4ABA8m0qpxGUC84U8VWsVLg6U6++jNCwKHM95KOCoEswtIUrFXMDXCBLhDNTuq+ySg4RPQHb/+dYjbDeeS7OeuN/xs/V8Mu5SAYa5FiahNreDz2+ds7wLs/viBJ5kk/IwWxNJsRxKusOofBeJFlic8GvZXK3XmfTiVPFikaZmpund375PO3buomyhQJdddhndeecWBglYGmKNhS0J2alFsOYITd6LvcUfUlkaedChfGCob4aBBEO93DlbTO01DyJoCkrMaQW9nqbNpQKJVEpAAsI1pLrv/+JzKmRStPqKy+jxx79DK1YsZ2sCmaIpEI/VGkeZEMkZPTdKy5euoKmpSc7Wxa0Wy0UaWjBCfUOD3PuExyCRokatSZWyAAxUXFZg5utwN1yZux4JyUsKEhZF6+kptznIZ+R9/3iui7slpddfsOZ/9xB16XQvtuh8gMDOwftq5Nzm3uAB5XIZFuLUSiVO1sJSYl++UadatUKZVIaLzGBCYREBLOBqCJiUeCK+8vpv6IUXX6ahkRFac/XV3PT2108+zbwFgCCuCTOrQzk3RPtd6B7uSuD4IOGqbGsSWFvumeM6jj/w71uCTZ2oc8kZsPwrgET37yj+XCpLIpWkdDJJhVyG1l5zDe3dv4/y6TQtWbKQ/uAPf0bLly+nvmyB8qkMNdDGoFyi8+fPUT6fpWQ9Rel0kvKFAkeesrkcVet1yhVy1L9wmJppRJ6EVK2Wa1ScLbFl4ZoXu8K5Xy1x+fWCxMWgQ8yuy3065lkI10DCEXQxgGCuzXwvW3QRkFF7eoQYkDDrCg8H5Bj78ACFYpnGL1zgylOVao3l18iXrqPxDlcxEvYaJqqF1Canpmhieoreeu8dzgIdGByiDdddR9dcs5aeevo5DpsaEESBygcJO7fs+1rq1hWl0Y5kZhF0yLqK7jIm87Yx7YTDnPrEbiFxtMD0EfZeJ2XdpbIkJKqUYELy+us30Md790IbT0uXLuaCuEuWLKZCJk/JKkKas8j34nAn5PH5TIHJSbwgmIKYCg8Xrkd+pJ+amTS7FngeiWaSyqWKcFb/5i2JA590iGdaSm2gnHSRhwgI2D/jFvGlcjnsN0LI6c9a7V3QDiTsOuI+Z3ejIbs/834W6fCIy2ChSFMiaPix+NNwSalBFUh2q1LoFpxGrQ6WvM5mKc4Jq8CsFIik4EqA4JwuzrLw6NXfvEGFgQG6+eabaeXKVVw5W9wT7QjuPSkGCKsf6qtBLdck8lSdNTJfBHU337sgCmZ5MC8wZu1/XDlXbdUQtli4iY5aMAAfRFgcKOJZeSF20CkQTcGyu+mmzfThRx9RvVahkZFB+s9/8ke0ZMECgngjTWnKprNUoyotXrSALUCIpMCdosEP3EhEOtBouNA/QOm+HCVyAI0m1bmte4ojIKlEVmtctilAw9fdOmbimsn64jXl9+bwtSAxYqpohqcfNsW8NSVnJ2t9Li5HYn9HkMC2JE/Wjx607DbeJG0LEj0mRfUyhzuBhFdRoeVUvu8e/TAOJIQwbHU37B5FnAOwaFACCVvTs5TP5nlOlKoVBh30nqwUy7zQwT9YbUhYE/g3gGJqdoZ27nqR3nznPRoYHqbbbruNFi9awkVxASLMk8hDcK8AJIKU8GBSRNLEWRimLksvA9zpmDnlfmtuhGkfoqWnAggRzkb1Huai2J9RkAgSqIStbQEJBfDbbvsGvfX221SrlmnhwmH6kz/+Q1o6spCalRol6g3q6xvgUnalWpkWLhimiclx5nORvl/I97GrAeIY7QELqNCVS3E2LiyMBgp24vmydSEWRi+5GwxungCLQSK2YK4Mji/ddptkJA3cX48+SHR71L0CRXeQ4MkZLRcejtdHL8ZcCv6q1ZWYo6Cq0w22BQm3kCIJtTEWBnveEdvZMkDtun33xT8WkxnkGGLtKAKbSTSpPD1LxZkZ3nlYWamLG5sFrAlkekPKC0sC4AA+ArkAM8jhmJ6i5198kQVIQyML6PY7bqfBwWF6/Y03WazTjrQMVJcyWrEgocBila27TZxun/uCrk7HRidgtwnpzHglP62+JJPGTlgpCVyyesSS40foWxKsiE5QJpGkLVvupDfeepNKM9O0YMEw/fT3fkwrFy9m9gMhUKTsQ5qNbQBaj9lKkVmdRqPGlkUuk2drEL8BQjmZS1MG3EUaFbtTrMi0Ev2cOt5DgleLmEpdUN8asHGNFqSJgkTLmDYRmKk7sVu3ZxkHQHHf6Q0kYoCi2wX4k5YX5HxAIkZxKfNDTDieLnFOsm67tvHGml0+cFh5dS5Wa1WnrSmMmG8hkGg0OLMzl8tL5+l6laYnJimfzbKaUuo/CKmIxckLHaXnqlBdVpjABEggDwDCJBSZAUjs3fcZl1e7864tTHS+/9sPWXPQbCKsKnds8GcA4a4rlA7uWReu/Z9TU/Ty6Noe0ytI6DboKmfpw2p7XvAZ4D8CSbM1uEkQR0kUG6SXl/Ae6N8h6BicViPlDBL33ns3vfXmmzQxPkoDAwP0vccfp+vWruNQdRaGAKslE1wAKJPOsfoSkSZoq/CM4HliIcLlS8BiyKQpl89ROpehTCZH6QzUnSjvl6Qk5PfzAomgX2hL/QiLRKskwJ49uye+nFtv36xhWyMhlVEbL9GO6VSnoneQ4AsRH6qXl7+o5kUoWtmwyI/FoWfsRRkIeGDgX7or6xZRcMIKMD/RXbenWMR7wKi+gqrxINctlbgHZj6TZbENJh2bfYhk1JFJKuIqMOapRJpNf4AE8jLOnjtHJ06fpB27XqJDh49wGf37tm5jsEK1aYRU0b0LITez0EyS7Yc7fSvCaamk/IQCaa8g0TlztxPWx1kL7j1B9PYgoYS2kJ9mggswosq29RHF+aToNrqJQw4dzpJEOj6gNJtK0dat99Lbb7xJ58+dof7+Aj380Ha69ZZbWGmZTjSoCSBoNimXL9DM9JQWyIXlV+WIBchncEvsDmSS1GQ1Z5qycD/yeP7IEkVv0fmDhF9Twh+/0N8VEOI2u7jvMLHqcxkxvEcva9hZNJ04CbuosM+DZy3ptoJorS8hCHVCKAk4l4uSWHTQV8H/biwgRh12nY8CBAFGWh6Gnc+iFI6rsOrYUZWl/Sgvuiblsxm2JLBzoPJUeWaGErIaGQwQ1UD9ARwLeba8X2FVH8/pRpJdEJCXx06dpH2f7aOXX32Nzo1eoFyhQNu2Pciuyb4DB5jD4FpTGnoTniQgLWUn9faBSAUq2fl7BYjIueKebYcWIx1djG4goZYELzi1HGwOAAhCkRJ9PgAJdkc05sotABuo0Z2gbDJJ9229h9575106d+YUFfI52rLlLrrnzi00gDqX9SqhUgReAHW4C6UyolBCjOI9povxvJDclpJWivg9JIRBzYlyeJIwluSGP3O1JHwADfXniJCVZjl0Kl3np4rHpUE4wVWPWaWhNdcZJCTzUB6WJAVJNqIafZaa6p3RFl5cXL8noGBhpe4msRDU5ixRoHCWRLCA4vaxqEUBS8LcC7uXAFQkcQtCnWw2wxYBpNflqSnqL/QxIKAwSblS1u7fTeYnIMHG+1D51QEgIBHrDZqemaGjp0/R7t276eVdr9Bsqcwm7wMPPsgCn4NfHObzixkpoBwHElGrzV2v1kEwsFTRQufH0KH+JcNNjyDRYlXMASQMky39G+nzjoqwQryS8C3lqLQxDiePAiSYk0jQ1vvuoQ9/+wGdPH6UUGMC1aoevH8bDfb3UQoAXikzKMBFRNJXiQFZgBK5J3Ah4FokkR3KOTLw95N8LHJAOFOUC9Wk+RrmBBKWeuD3NjW6JSa6IcRu+8HvFSTECOs9QsXHd4xueKa6TdCgjLtUURYA8YhMHeSLAgmXYivnbbmlmNXuHxN2EzyQ8KrOy2wQP8IPd7K7Yb8YKjQjkwdKvHwuK30xG03WRSQbNX4PBWqYHUdil/ISEndv0NTktHQT1+xVAAkShEYnJumtt96iF3a+SDVYC6kkPfTgdi5ucvjIMeYz2JLQBrbC0+F3AmeDQcLSyBUCJKdD9BE28R06SNigLdq6247TonSAmFifuqedwfgWY5rYThWri/9P/g0TgxWueu3yOeLPFhKVYcB30gmie7fcSZ/u/ZROHj/GYeobbriBHn7wISYt+7NZalQhbiMG8GwmRxV1NUFGw81L5TKUzeeomZbiufgtVL3Cf5IejutJMX/Eqktr+WfVs612pldl3IGdV1fTLzcXRya28AY6HNGhtbUYde/tuqKP3K3bLtKBOXISlosBnyfJCTxmEgY3Iotp3iChd+6DTwj52qh5rNu0RS1CTH9gCoTWhvMiwApzAxwxy+PMNbyPnQJcRDaTluPqDW74m0uJHBkmagKuGCwM9MpgxSX4iAqXqmOJNYFfAG/RoDLeL5XZknjumR0cckum05zcdfzYcTp28iS/F97BVfClGarmaoT8VS7j72hbz/UT4BBMjwcJR47qWMxFxBo9r/zM3HYte1QynwQonIRALdfQfOAFKb1FmY2QFB9Wfd526zfoxNGjdPTzLyidaNJ1GzbQ9oe3Ux9qSKTTbEnAwgCQwtrjGpi60wIo0vksi+Vq7HaIm4FNgsPeKZv7AImMu0izJsS8D5OSBgZOTmDt/vQGoxtuj/jqYb/qLdgt9jvHx1fP9smCS0hcyvUgJMcgwfVYWnf7qJk+15u1ByW7SIT3uBiQiLsQdVPECgh8fd71ZXmqzYFwV4b6CwWW7uLtZK1Bo+fPUS6fEakuayOww6PkmSRxAXCQFg4iEinhs8VZDuNh14I1MVUs0yef7KXnn91JxTISinL04IMP0f79++nkmbNUcwrQgD0VAJbrChXA0UPwUSeQ8IchupD9XWuuhHMc+FwKoOAIknoc5nrYdZo1IbUqE0wu4r10IkGbb9hI4+cv0OEDBymTbNLVV19NDz/yCIulcukU9+dAXQ/wS5jMKB2IzQLPMpPLUjqXZj4CpCnXnVCA4LJ13LsD7idqTsjzF2NH8zislJ3NYZ3HJpryoxNx7+mkC89YM6ig+kQaagR/ncsRBQm/OG7Lw+++OudsSdi6kbXVfpfoVkMiNiypO49MirAb427lSwAJswp8E95FOLTgCB4IOoEXclmnjqvOFGl87AINDw+K1VCrUnG2LAQl52hIIUrcK1c1Qthzaopq5TJbCDWuX1ChgwcP0nPPolL2DPX199MDDzxEH330MZ09P0pVdi0QLQkepu9eWOsCW6DyWQxIRAjNdky6P85CQIf1JJ382XYWSi9AYdxXdMr6FgW7vKqD8DeSoKNWksv/AS8QAl1/7VpO/z7w6T5KJ5t05erV9NBDD3GxmUSzwSCBF9wPNDm2ClQQwEELwSUuUikOe3K4GyQluBAmN1HgF6AgYqoQSJi74c1jGTfpw8HX7ocwza2K8AWxYQFuAas8oRcSt3My4ERAwv2eDm4UlLrBxPxAAjcIs9qbubajmdCpk7vRkThx/RHjIyftCiH05G7EjIblaViRGRwCkQ70+hBLSd6E9uFw2mFRMALMIM1FohDqDyC2Xqkgq3CKrQd+OCrHxt8r5TKDxdjkOBNjuJdSrUqffnaAnn72eSbQ+gcH6eGHH6H33nufeYkKi3lE92CLTcjLsBLUdn0eW6Uo5PloZCOm70ZboLD0/hjBWTfSa75AERdJs8flZ54K/WAWg/bDsDwRLXWPgQJxedmKldRXyNGne/ay5bDmitV039atNDI4yCCC2hilSoUtRESpuFR+LkH5Qr90aUc3MHUxKIFmPFJ7Av+5UvrczUvfD6WLKxh4NS4ljV7Du16UIcTlmGUe46bF8RXdFrgbQz1fdHM266Mj+HeVZcdeRVBbkA0K/r8wm9jRkujgpvJFx7kZdh2XwpKICKksZCsNeJvcnh4uhKsZiDAZyqijdoQWpOFFjwkGMo0gkgJTnuJ6EWzu15tcz/Lc2XP8HqovQ4pdadb5T8h906kMTRWL9Obbb3M9S1gqCxYsooe2b6c333iLzl+4EICEcQwKVAxbRlaa5eDMUR8oLO8jbBVEJ4WjKdTy8S0If2L5hWFbp4YtDFnI/qubNeH/hg80Mh8kccwiUfx33KJ4GG6+wISw3R7uxqIFC2jRkoW0/+O9lEW6+MqVdNeWLXTZ8hWU1Mro2MzwbAj/S6UpXZAUcViV6WyWrQ1e3LAWFCRwbyCu8ZLohvznp4sL9x4uYcfg4pGaPokZRG+CcYuCwsWARKyFZpyI+XJtEOeiLAnBBs2Y9Hx3AQ4FjUgkggcuJnTaKyJeEkuiBSSkdD7IKjzEQl8fm4XS7FUftIsqyP3CvWArhMtWV7kaFUcuwEGUy1TnCrBJtjBQxenC6CjNzExz6bqZ2RkGEURSiuUqayR2vLiLRoZHaOmy5bTtgQfo1Vdeo7PnL1CtCV7DKxLjgQSDmmo3REAlhDJfNtrLcQhUnwZHQ9Qi6RLdMDFWW5ew3WTyzjtXEjMEEg5jlLxEJIHfY1vbEZps0Kr7wUfy3OJqlZRJJmmwr49WXbGK9n20hy2Jy1eu4M5eK5cvByYQiuYKkSuWQRpRKyRxYRSzyPDN8iYgbkKKEilxK8L/IfSZcOX1BQikl4cBceA6y3etuY+Poy2AEGNRXBRI6AbiuBw/ocyzauIebReQiGt3FBiBgbIvQAJ+2ErSBLtRJIvUBwmbWO0shIjf1R0kZCGEohsRoJI7UBjThr7YUfCwoahDQk+jXuP8jCQmBu8Yck6Im6zsuoROUW2qyj4uhztR7bqGRsAgK+vMmENogx0JysvTp05xvgYKz6CgKqIcL+56hZ7buZMWLVpEl112OW29/3564YVddH4UICGp4jbWts9Y/w50F8e1m+/OQMHxeysu44GEleMLgUSrwtINV0Qzwbxo9Dn5wBAxHUIOYxvhXXRSavwlZIdwxAJNcljtKtWu+a5cdz0hDWWBojo5QAK5NTlas3YN7fngQwaJVcuW0eYbNtOqlSs5QmWVtPBdkJKpXI4XOyTYICrNSjEAwlzwC9z6YNGSu2Fh2kjyFocjubR/K+cW63a0cUt63lT1wBbLMeLOdAKgLjqJ1oKpRtBwqKyH+JizNLzwkm9J2MXbuZiUUT2DuTEW+5Zj44M1HEpX18fMUnsnqrS0jUouCYw28ixqUhCViImqZq1O6ZSEOrGLoJAJ3AsQXNA3WIl7jvQ0E5yTgR2fXQ7NHqyVK5wNit8AGcYdoTJpujA+RmWuj1ii2WKFdr30Mu3c9RItXrSIVl9xJW3ZcjfrJs6NjlGdgnoSSkq4++RQM4OEhEkja9QTQbdmhcpJZNBiMVRP5lcJF2JPWgy0MutyHt+t6OBVtgp67Nk6LUvEXWFBlYQ6/U/42p3bIYIm2BKQZWPhX7fpOvrte7spQ+AoltKmTZvY3YAgjh2YJCIXGU70giAqW8hL7Q9byDxZzE1Qt4JDrIG7weCkYirnZhgxGbEsfD7DuovbjPYtDxl+i+ooCHbZ8ecKHOH50v43ulgSWk/CA4OLBQk34EakxETsUWHa6i5g6kFHz36jTum4ST1XkFAihQECoUu4DzkIbBoNjo2DyLItCyEznphc3xCVrlEHAqAgEY1qqcZ/MkhoURKABqIcKLteqpTFzERx1UKOMsym17g8+/jYBFsRu156hUHi2mvXs0n8/I4X6NzoKFQVUk/CnoEHlJz+zS5PK0gE+oQYgGgLDmGrIhrZUB6UYcXVP1BSNfDBDYJbp6xAvE3/CKh588GdwUxue/IssERNB99vlwkk/EQClQTZQsgk02y93XDrTfThO+9x3crLL1vOILF08RKWaafSSQZtRC447T+TloY8UonGEE8tCtn9hX+QzuJiDYh751LF9XsueuERney2GOnJ7mxQhkGwKCA7v2qQsKcR1428J5CQ9SFhF/dy/mFn/IpaEjwY1rMhhq/A8TXUDVT1mjHHvEo7KMPmAxLYFaGOrFQgcoKaUno/cq8FJGaBhFT5L3ppcEJPGgVt68InFKXIzOzUDI8P3BB8xgInXVFwObgJT7HIO34SeR/9Be1KnaHz50bpV088RW+98w6DxMaNN9ANmzfT88/vpFG0+IOloySb7dRCr0qEBQDRzlIKWQke0HvOYYsZ4VuHUTDmOWAPIsq+m8/bhu9wFkYb2Xccselmmw8Wxk/4BLfQBqJT0CqcmUSKF/6td95G7735Fsu1V69aQTds2kgLRxZSPxe3FVCA5ZhBjdKsiKKEJNV5GrIkLKqBojZMqTp+zVkIXhctBhHd/V00xIBG9RSh3fxfB0hEw45+38T5GTPxIKGDF4kLGxihE7dji9XsclZEB9vYdqpe3A3MArgFEDdBggtrFiABMRP37KzBukBp9bSAU016P6KFnERBZAmCoIRrMlsqsjsCQMCLU42Z50jyb4CH4GY8tQrl+wv8O/Cfz545T088+RR9/MmnNDI0TN+49Ta6Zu21tHPHThqfnOA0aSMuo1yBYIdknMrleIPjb9tRl8IHjIjL2Mn10Ftu62bKzurNk+iOb6PWwmvoDqoLMnovbnNyKdNCErlyeWzZmPkvYWdwEnA37rnvbnrjtd8wgF+xehXdvHkTDQ8Ocm+TDNK+M1mWWeN5BNaqelQqvXbcBEcyrI6nkZNKFPuhUV9IZSFPq3/ph08jbfl86+N32JKIPGRNDQ8vurmBRRxImMvhm1ihs+oiNGGI/5mFK6NXEdJJOEZVFnLcTotDeFHPzkg9gVSS3Q0ufgpLBt2/kYyFxrCIUjCzjdAmajuICwRgQRgTNSzx4mIz0EKUypy8he8DUFB5itWYzSaNj09QhWocfwd7fuLEGXr62efoi0OHqb9/gO66+25addnl9Oqrr9L45CSDBIOA7cCmgdB7lPEI+oR2fDouZBqyJQzvlFMIJ7hYdCT8DOxfyk/wjtqaOBTGC/mX45n0FEYKRt0QH6wsUuJbFrzbhwxb4SvMgEd0I5/L0yMPP0Q7du7k53LN1VfRHbfdTH2FPPMQuXwfPwcUvuUKUyG2QyXOtvhDAqkkV0b3iUuTYIcUlxpBMBPerIkgESz4RefGhwjNS8dJOKsmZoJI1EtGvAd34ysCCd0xbIJEpdeB62Dmrbk7GnKNudH5gESpXOJW8uAWUIgEk4f7QSIqUSuJlaDFY1BNXQYxwUlXrLiDC5LOUBWNarzdEVERqCuRCo4/Z8tFl72J7E4s/nqiSf25Ap09eY6e3rmTjpw8QYVcge697z5asmQZvf322woSyil4IGGds8R4aAWJkBERY96HXApnFbXyBeYy2cKWHb21UCVPQNBX3rmEtwCPJJNPXHWNuEQAguXUHUhw3xWRCEcQmlYViEY2ABK4vgY3ay5kc/Sdx79NTz/1FPfIuOaaq+juu27lJkmwGiGaAjAjmtUi/xffRclDj7jURWxhTHE5VCTlh0etzZ/vksAKsTJ3BgZqbck9BdqKS2lJsM2l/UrjNhGeQ9rkad4gYZNxbjaEblCmo4ibBJ7/yqElCxtpLFxml/6qRiLamcNz5iSIWBUJNwADhEQfaPgx4RHmTKg+gQnUOqojSyNfvBCp4BTuRJOtgcpsifUS3DG8WmGZL8Jl2P3x77PnzkrVa0rQ7PQUXRiboMmpScrnCnTyyAl6ZtcuujA5Trlsnu7fto0GBobo/fffZ5l2IyHkpGzDAhgGSDZeBhQmYHN0URv/P5gUcaENVWi2PGwANvJ1JLdBFpUSAfz3VoLUolH8GFUuHEwDDZXrwoiCRFyUhHkCnTO+C4I0biMSARKsk0jBksjRd7/7HXrmmWe4PsdVV66m+7fexSABF6Ovf5Dyff38PPkaQ3PUQELAjft7qjXBAirPfXDhTJefoSX1vQiH7eQcKlVlqI2jbT6XGiSc+6JA1Wn9GkiEeEcD87Di0rckwqrK1h8wtij4JLRDxYTl3JEKHHYT9j2f6FEM17Vhu5HuWEoKup3LUoY9ObHTMXuLKhq3g1sxMzPLiw8xdXSWxkKHRgJZfnAteFFWEeYkdkdwrVz5J5nkY9nsTREVZ4pMfKFCVb0qhKdENNKc9VkplWmmVKSZySkanxinE6dOsqVy8vBx+s1779FUWdKVt27bxgz+p5/uoxkQo5rMJV23RAnIYUjevSTJyNyNsC2gx5tbYiATfZChPI/5bAOdviO7etzEC33LuQ0GhjoP9f1YUtPnO7SUXYGfStkAACAASURBVFA3A+5hkp/nt7/5KO184QWuArbu2rV0/3138rOGqrZQ6GcNS/j6gsxmWbzCPdjmBDeTSUpPbRl2O7wkr6jwSrkK0UkYl6HREU+AFVxP4G6ItSbFd8zC88eQCyBpRaq55mbE7AchoYEX3ZgLQNgW73udYaENCLW2rwhI+MfFTQgfMKS2QHw6Nw+uV7bOiHhJm20FNRCWiFCAsEJzFrDhUxPjlM2mXWgR/RVgWsIHBXeBHYRJSSU1UYkKp4ZoCm4GV8CulLlGAYABYMKFbAnFagp07vwZGhsdo/0HD9CF0TE6dvgYfX7kCM1UK5RKZ9ndQF0JJH1BqVkDMQlRp/UC4RsESHFnC0lvj1ppUQvCB0+BXQ/ZQ3VkVYfSlb7sjCZaQuBiIIeNFZcM5UwId0p/YXMIEqXsLEYLURwEbNksPfTANnrn7bdpdHSU1q27lrY/cC9LtXMACLNc1SpCiBrS+MWLF3PeDrp8WYFe9DgdHbsgcwCp4s7tCPI5Al4h3JzHrpXBRbmMQMYtroq5A84qEdvGuWl8DoBE9Pl5g8wut2c1dBJIdX02fi2ZwJLwFGA9lU3vYklw89c2kw03Y+o/Pcr3o93N6ddt8MU6CPwn2RyDPgPO/PbliS4jLny9sEI4IYs7bKVFgZdoMmnJyT2EdOO0WgVNBgk8SFgP+E1It6enpiQUiQnNYVOoKKUqFVwZVMMWoRZ6b1R4B0IYdWJ8ij747fu0b/9+OnfqLJ0dG6MSgw7Y+PuoVCzTF18cpmJNRVucwizgKM1yNETnFJAeERka8qj6VKaGREvk79rGp+ucmdMBlwQkxGq07SgcNmmtiWGeq8wdmcvgJO67927a9+mndOToUdp43Qb67ncepQULF7oiMUw9JFM0NDRIg4NDvCEsWLhAKqEnUecS5PYsR0fQvBlAgfcgpmJL0Uv68slHIyf5+p20P0gOmytIyB7nazcEQITTlrkBranPvXa14Lo9VAWKxP4Dn/J0cSfsCSDs0bW3JKxDdOx18D3Jjbm7YpQIOG4rzGHXFeSCGFUVWC7+jiATXxeBIo+zJHg1y89yWTkoJyG8SaUok9J6EAhbgpSsQc0ou0Yak4UjHqKoNE4CvzUFIECSEPprVCq8+wEQ0HgWIAGSEzJtpHzD7QCkAUz27tlDb7/7Ds1MzdD5sXEq15uUzubonnvvpYmJKTp67BiVkGGqeRsACbkvqbNoL4sehcfZIYASm6ox0YceVBeLezoXaUW0nXgSsuz5Zf69hVWNdHInCJPsoTmglgHEVHfc9g06fuIEHTp0iDasX0ff/fYjtGTpEqA6nwkNgVGODtW0pepYnjOAJfqUYUHc1PQUy+zx7GEpwqowGb/UuPQSuSxpyohL3+UwdyOUENabJeGDhLkq/lhaVrKsTN9P623ElVVqPRj78oGDAAk9qQGEIxRbdf3BWTpbEl1Bwl/IemPOpwyFosLkZQKWhBf+C7aaYHAspMN8gWeOy/qSqAQEVBA3IQELkwk8BKTSXJYOC5aLjZBUq643OIoBcRV2FK43oBmhmDjTpaKUq9MMUa6OzeFVaDDKVK2i9uUsp5HjM0RPkPD14q4XaHJ8gs5dmKBKHRO2QHffdx9PwhMnTlCRy+kjVd3cDXXhGCSMo/Bk6iHBlHESajG40vpdrIc2ZGdvUy18VHgLaXUZOp3TBxRx172zRVXhTp8RJOXh3Ll0hm6+8QY6f36UDn5+kNZevYYee/RBuvKqK9n9Qxh0aHCI8n3iWnA3tkyaK2EDPLggLmqYllFrAnUkkgwax44f4zA3uwmWJu6iFXJXzrWIiXKEs0bnAxLRvA8ZG9f7qGXgI+MXHXgvOBCX9BCAhAcQgdkeEeiETn4RIMFMstvzdZ3LlTr/2q2DwJ3AujDBndNLeMaIEHsBiEQ5CQMNLFIs4lQ6IQKqdJoXc3mmTOlMirKpNFW13R8mhRFCCJPi5zBxMKGcBgTWA3I0uDkK2vvVGQyQDg6QgeS7VCzS5OQUcyDYjVD27sWXXqDpyUk6PzZF1QaKmxTonq1b6dSpU3Ty5Ekq1eW3mTzVupY6A51uwo2XW9wBOMgQ4t+SgxOENDtYC5cSJKKqzDkgTTurQ0z64PrZB1dTXNx2lVQrR3TdumsZ2Pd99hmLqR59eButW7eWczUWLlxCw0ND8kxV2s6l8lWFidRx6Fsw9rAsuAtbqUinT5/mnil4xbkbdpuWRi4ujURd8D9W9brU8rmDhMm7ncFgSs0Oj7Vn1yNG1Zw4cHCf1A23l5etJ+u43S93AYmEdUqImRn+OT2wCBGPgiEBcOglIuogb+oC0NNbDN4VjzHwiFTpwU9zdiZ3b9I4Po5BvYimFJyBhFcK4hJ34mLhjD4RSQtGLon4pCAXoflHGTREIKC94HL6sCq0qC6HP+t1mp6ZZaA4d/Y0nTx+gt5463UqzRZpdHyKas009Q0M0NZtD9CRI0cEJJAPwqs7ITyJjZs6o+K1eUIrHRg/zOjAwRmFXdyJSwkScwCFlkO9MW/htpSgdju2yyQ3PQDqjEIhm6JrrriCBgYHaO+evbRs2RLa/uBWuvHGTTQ8PMx6FISwuXO71mXNZkR1i/d5I+AEPxTAzXO+DdL9ARBnzpzhZ9wJJNia8MKd7JZokZq5goSAownIZOO090yD0n6ttgrdOj6a6No6eHD/vJxQXduxvyUhwpCBGHuckZVMYoYsguglKQEHckaz83w3whJlrMu2WSQ+cJjdgt8BQOCzXDbNuwwsA4IGAnJedJJOJrnsGfgA6BS4ZAGijlpUhgkrlmtLWTqmaJEHUkH5fOnQxclfXA5fQA3fEeuixOHPt958nT7b9ylVyxU6NzlNTUrT8PAIPfTIo/TZ/v10/PhxKjNIwJKQSc8koy525mzs7yHQDZOVBvRBeLA9n+zhcvC8OoicWhc232l3aOh2To/os+fmn1RHVN7yKlFLREQ1l2pJrFq+glasWEZ79uyloaEB2rb1btqy5Q5asmQpDQ0Ns0sBAOdG0RhTqGhRLsCSvpBNqpJtCLJQCwTW4ZmzZ8TlsOK8Hgdh42hchV+OEe4uoijBZ0I2OjWmW/x6e2YleEpMJxlQ7YbNr46CtHlYde535gsS/oTCQ7Nyam6BzuGihLP0gSFc6de3HPzIh/lPHCPm3hReARwFHdco1xVnkWKnSP2G1JqjGdWqZvYBK2psGWA9cvVrTRNGFiG+h10HBBdHVZSkrNZRZ6IiCV7gJvCndu3CogZoQqKN4zHBxicm6OmnnqAvPj/AzXzOTxUpmcxyk+CHH3uM9uzZw8RlGRYIF7dRFptBIiIzj4RADbyDQrgOHt066zSZoiu89dj2ICBUVm8g0boz+S5EZOdzHFkr/oinIZWy8UL9SbGuiDmHxcMjdNWaK2nv3r2c+Xnn7bfQ9u0P0PLly2mgf4gXJ7ct4EJCFXZlwE+wy5HLM2Bw6ngSrkeNeSZYihOTE9wbxUDCFnlAMEY0DgZ82olerjtQa5plYaIwwb9w+rYj8XWtuN/Uc11SkPBDoBcDErgR3ukamiGqoqbWRe89XM+d8WZtSAckhcq8CIU/Nzz3IYjIBK6HTRDbZcIgoSnoUFiiCCryNzSkCUsALgTCoJh0cCPwuQMEraSMCYVdnVOKEwmaQeu+TNYdD9cCtSy5V6c25uEFm0CWKNLMixz9eP3N12jXzufZgpoo1SiZytHKFZfR9kcfpd2//S0dN5BoStUse5lZ7EK/oZwOWWiBm2isRHhJ9gwSnushv8fLsK2l0LPf62qReNfVEr0IfkZ2XcfVhsRPwTXJrgCQEG4KIJGmhYNDzEF8vGcPv3njpuvo9378fVq2bBnl86hAlpLao5Wyup8NLjiDVoBQzYK7kN9H+FuS/jDnARaQ3ZsLYfUkmPcyjkQtHUdiqsvgamKyElU5CbWQfxdAIjo/EhcLEmhoi0kMUs98MAykNFGJvOIAwvYAmy/8Na2f4Lsg3qmsvoIfHnXqTdWgGxL7iwp/55LpIJwgMa5UpY0e+7h1dicwkWCZoMU8zFA8RBbONFH0FotZ6ljajol6EcgOBwFqFgPSz60WJiwM7EAwWQEaKDQDfcW+zz6lX/zT/8uE5nQV8u4CrV69mu5/8CF659332CUBeWql/hkGhYQIR2x0XMTaCBZdW/1DL5wDz3K103xxWleQcIx0WyARFIspZoQmnh1egTHRpqKTXjEWPUACcwOtD0YGBmn9hnX0yd5PePw3Xb+BfvyT79OK5Ss4Z6NWkaI+3J6xWqRcPkvgJdDCL5/rY9dAyuxL0SGEorkyWYKYmzC3gbkJq0Ll9AwqblK1pMxXr3DuJQaJzoPe5VPj/2K0TRcFEta4FhPX7SLqI7bsVm0AQsE2dAd++nOcaiwoSBOVWlgCkbdYPBcEDxdp6BzOrFSoPIPWe1kRRAGYkC7O4VDpCo5eDPwZMkE1nMoTJpkUthuTi8vjY+JIk1ko/cBTAHxKpSLzGvgO6ytSKQYMhF8Pfn6AXn31Jdrz8R4anypRKlOgyy9fRfc/uJ3efe9dOn7yJEuyo5WnHBejgGB32hUkIlaBP+AtFoBXCR18SPjVyZLokd7ia4kS351BAsRhpYocGbNahZ8x8s6u0aIinNKdStJQoY82XLee+5iUZmdp43Xr6A/+8KcMEhDLVSslfk6oKQGJ9mxpmp8TcxLpPL8Plw/PWoRx8psQ1aGYkEUt/EK4kqklu5+BCFs5Wi/TWRLqglghGuYmjJOYh7txMSDR0VW5GEui3YnZ5PI5BhWYtLuJ6DQMgUTUIvF8JeuejN9zHYsismy2OiwVFp9px+9mpUaVopS9h4CmnkCznAorKbErwFqYnp3h/p2FXI4l1lgCJsuGtYTCJXAdqg2VZJdKnDMAYOBkL0yilMTasSNhIWOyM1law+8V6f33d9P/+X//I01OFmn15ZfT/du307vvvkvHTpxgkGCsgsRdF7l/L0b8MnBE1ljIkohYD3HPLeS6uahS+Mmwy6EipLhn2bO7EWvNdAYJ3kyiLglIZTXhXSq9OB3S+DeVpMF8H226YSN9sncvi9s2briW/uMf/T6tWLqMO7wDwKUpU40uXBjjjuF1qvOzzWXR71NcF0SXWDjVhM6G2PJgAtxyObxq2YEy0lNbqsviRzwkYUwrXqn18XWBhHuecSHQiwEJf6K4iWczN4D2sBAmZna1OibaqNhjysOmdNjkZgtWQckpx6LEJY7Brq6hzka1BmaSrwYTBb4sIhb1piRnZdGVKSlVqIydhvuBRCGYqRxiM9FGMsXcBEgu/MctAxsoiydCHJlk6OtAVCyi9D6iKlWqVJDnUaGnnn2Onnv+RVqzZi1tue8+eve99+iEWRIgLs3N0Ii08C6igROyNhhUBoxQUpUvqmpT69JcPn526gpo53g7czD+l4CTiAGJFgDoYVtMJCUaweDkuBnhlBAFw/Ppy+Vp8+ZNtG/fPu7buun69fRHf/yHtHjhIpbj83Mql3ljQGXyTCZHtQaeDaqjSVtHa3MuPJR0HMfnrHLEHLDIBv+p0miznJVPEZIxKIGH24uChPAbAWkbyuL0XBh7FlHisoch6+2QSxUCFYvKKld5zDTv6mLAiyvRne2OsyTcd70PbXB8MrJFIWY8hoEE77JChHITWJCTlKDS9AzXPeQy+mC46/rQUQw1m+PFK34tdg/pVo2X4xrATyDZi60E9JOUIjbYlXA+SyuHicph0maNyiXhKuTzGlVqVe4H+tbbb9PTT++gkZGFdN+2B+jd3bvp5KlT3HbOCu4yECovYf1BMLqc+EWRZDq+VGdnOBAJpO06V2xsPT4IuzC7GAwSMoi9Ep09JxRdJEiIRaOUpdZ8sPkGgDQtC47JpzJ015Y76IMPPqCxCxfo+uvW089++iNaumQRpSnFViLAAgu/xo2QiEqVElesQj4OPASueaqWAIa1VlMymSNcsvA5X0RBwtX/NIm2fuZLuBkkPA2FS0P33A2X4BUJf84HJHpZhzbHfKuCZ9KlsiS6QpRVbel2oO6agSEik0F2SFnw/s20TGAPJNzxWt0JKd/YYRoV9OWcZbDgJiwAAt0gQTQiNJpKppnJ5s85tyPDgCAxdenqBZUlwmWwDsyNgJsBgBAzVnI9mNxF6X3utQGyVBr4oMIEpNdnT5+mHc/soKPHTtKdd9/DOonTZ89SlaMatnN7C1bDoLgGV1si4pY5QPUAW8YxeADyFQBRgMRCEBqxqO/rd8DTxBLSMc+0E2D4z8yuv9fz+j9lO68xHJYh7DwQIurLZOmRR7bTG2+8QWfPnaMNGzbQD7//HVq9chkX/YGcDiQlE9wK6PiNKjrFD/YpJyFtCyCWk2tPEOfbWRjT3AatmSE8RdTVkGQwAxMGCXZVZCP1Q6iB22b5KbrEI/oSI0tNWNjJ3evdFQyLFC8OJHqMh7uHOk+Q8CcFP0heuMFO0g0kbAD5ezVENhJcaBdya+nrwgnX7G5I2jWiGqpoQ5o3d+4SQhK7P77HSjv8G6YqWxySLMQ6CQUI683BMXZWbsLtgJ5CBFfAOnAOVRCmjTo9/cTT9OZb79Edd95FXxw5ypWyxZIIQNLneoSHMJBQq817Js1GUJ804CfCxKJMHBFrtbyUXAwSf2R8Oi1m/7kY2CjCu2hQHEDwgukyn2TvUPfCE6iFQUMyjzWIwB8VMln6wfe/Sy++uIvOnj3D+ojvP/5tumXTdcxFIbmPa5oy8ytlABCpQp/WdF+WQ90YJ/RH4aI+fGNJMyxV62CWhNXZ1EpWfnKXZoxKaW2zgqR4DZdzjOR4KAQFRXY8hDcANtl3W7mANzhfOUj0+oNejIEnY68v4InsDrpA1HVhToFL3Xc4k29JqN/OzDT4B45GVAQcOKFSrkm6RBNzCEFpNHTeKlEdacHJNGVRpk5BgBeo8gLifsh3wUdYO0BcJ/5u4MHXoKpJAAXcDN5FkVBGRG+98Sa9+OIrtPrKq+jUmbM0NjnB9Zb4Z9iliJNgyz3EhTubDbNAxO0w+ys6ckbMRd+3e/R3tTmBhC16VxLAvw75Nd9V7GYO++UB2TSXbTx02QyLCRS5cY1TKZ/O0OOPf5tef/11boy0cNEi+sHj36I7brmJc3ZQIAguKFt3OudwWoBEfggh0LTLpBVLQhohNVQ27qIrXJpOQhpStUok2BYWxXFmSTiQiBCXFglx7orlpXhOO7u+ysNYOrrPx7VdGd29fnsoLZ1t5uxu9AoQLZMOfrO/kbW9aOmdwDdu1q6aWcYHdAQbn8TThy6l7iU3A3JrVtdpARn4iYziKZibVRbSAAwSTdSplOw/UWhCGi3gYMVnRBcBy0L8Sy57p7uHWT14z+UGYEEnkSBW40QhVqmiclWC6OSxY/T0089TIpWhc6MXuHRdkzNWBSSsuIxMCB9+lcR05K0NmpWEjRmtiNnKR7gFJ+eLc2PiQSJEGrnzhMjEEEMi8NANFKJXzfev3zMiWZDGVo2elwECC1l+tJDO0tb7t3J04/iJ47RgwQL61iPb6d47b2NBHaJdaIsAYpkXuVpVKIyb7kMZQuF9WBynYw8Ckssj+2Xo7O9qFRmp7R8TcjdUKmAgE5JuuxZ8EXfD2jsoiRmEV3vdfns47mKjG/MFCHl8Hkh0QDXB34hMWy+cXQZPLBV7y/5N6vxhphrp3yAsZ4vSeEd/g3MwQFCnpIsXHhZSthu1BJXLaLgDswZElVgFBi4cftWFBSUeH6cve3i+6yFgIlqMaZSlY8m1RigSCZocH6Mnfv00Tc2W6ML4JM2C2/CzNy0E6mTYEbDQxWLrnwlIf4DcB/FEpNuZXc/QVhfGv+fg1LJ7tlp3RpyGn5J3GSGgaCGgva/xzu2DhIqQ/CQ/McHhaghIKEZQLpWmLVu20JGjh+mLQ4doaHiYtm/bSvfffSflM1nmmFierxXPuUQcmiyBp8qjz4rUv7Tf500FIOFZErzzR0FCoxwGEiGxlesuru5GlL/oBhKuYpdW9DbruQcM6HrIxYDEXAGihSsIcRKd9xFHutuMUsvC+IhOE8qfOGYyAyRgnTTKiG2DcwAYBN2TcFwmZ412TSWHCSRVoBCdSEkzUGkGrJyE7erVirgWGCMLfZpgRkQ4dQ6RQuKNzE6IcOB+VVCrghJcG3N6cor++Re/ZIAYn57hY+oNqX1hbKNb9JYOb06EjlOYW2gNVXaLUjiHgHUDAUjYs/eBMAQSRgJ4uND6jFpBQ55zUGGp3QQ2LsbOaVWh/Psxy0E4CeMOiHLJFN3yjW/Q2IXztP/AAerv66MH7r+Xtt19F4dH4WoYv8N1S4tFaZeAHiuwJBQkNFGAs0PZktCsAStHx20B1SKT69OaEgoeMh80EuL4B69RlbopvMG0Awnl4vyK1pa3NNf12RYs5gsS87qAkL+ICTcHTkJXgz8JbMGbOKojIuqNMofRqEvoM5Gg4swsJTW2nWyKAMvMQlCI1VqFi46wPLuRYmWmWBLQN0iTX65aBfabd54mk1+IbvD7ussDlAw0cJ1cJg/1KxDpQCm7RpXlwJB0wzBOZTNUnJmhf/mnX9KZ8xdoioVYVarBDwlZVV5Oi9crQY6JmmcKEh04gbgxdIV29Xs8Pvw8PF6k5YtGvklKfajupoXKFez4VL64rovQTtadp6TVdH6fxA0sOLlO01zgGLiJ69et443h0BeH+LlsueM2evybj1A/52WQJHApqcxuBzYQ9Ajth7uhtTNxLswNbhOA/IxwL1DpHSo3Z/Uv8fvOkoiAhN2XWJ3yPVNedgQJK49v46jrbF5rNHYCxEQ3Pv/8QJjy7mqP9HZA9KLDu1iwOyr4xp5UdlG5aFusvBBj9OW6J4nAyLQR2PmRto2IA6IKxRJHKxDyRMgSpzeeg1tMJiG3RQhUulNLrUTJFoWmAjkZKBiDB28WAmLouFck/OB9WAuwNpx74UVkACyVOq4HlbEASlXmKOrsbozTM08/RydOnaEZqDirdWqQiH3sxey+/kPGofUVjLOZ3IErIJYY3G5x6gAsSGgLl7OLKayrCXfKybdChB9OEFiLaCv8BC0tP8iS6rC4yK7PX/RcScyp7wMgjEZDfCLTF2YB4y5buZz6+gt04thxthTuvO1WeuzhB6gPKeCJJD8vSeSS+YAwOfq11rXUE54vMkql07ikeRtI2GIX8JB5amXzOfqgiVtmSRi5aZaG0xqxbqK1/oSMhVlbFnXTJ2HCLU/C3W519gQiUStC/534+kCie6l125mjKeBtQYKpes1MVaCQ9O06l8WvIf+fXYYSZ/ghb4MVko0aayBQ/BQhMXT1Qql9ThPOQCOBrMAcuyqIeCCbU/T8UNxJwpHxD4FYyvT+gaoTx01OT1G5UuLrhNtSAVeRTNDo+fP0+mtv0BdHjtPEDDgL5I/IQm55dUjScky3J2EOWWQWNjV5NZuwPtwEWgBZ7pqnHjP7/BRtfyJ33kZkyQfXKSHiwDLQCIKmf/P7Xp6HP9nbhU19jQaSvAaHCrR48SI6d+YMlyi8afNm+uZD22iwkGOwxOIHsQ2w6Ovvl9KFIJhV687ZoLmMNBVW5WTTk6ebzgGXCUsXfIZxEFFLwjQUsgF5gkQjPK2buSegcvej3IO5yoHFoVDSIYzcC0i0c0e/FpCwxx6aTB67bhc7V5DQTSwoK6fNcbDYy7NFStSbnOCFnUJa+KHGJTL+QE5JxAOLHPUNOR14ZpZ3MbgUABn73PQQsAwGBwfZisAEMoAwbgLCKhxr4VF8v4iwah18RJmLq3JIN5Wk3e/vps/2H6LR8Qk6Pz7BAFTjZCIrFd9l6bVELNQCYaNNEtUCi0R7dxDuW8A6mERmWSghGflZv1VCqI4DX2dQpLjz1eJTs5DETZPfD1s17vxevQgDFHcvWs1OhJeO5XBEKiyJQl+GVqxYThfOn+d8nU0bN9JDW++hRSNDnJuDMoP4rjRVSvEGkM5luZ0BroEbCmdFpm+/EAUJV/5fx7I9SHihUVVXmlXI1c4iBXTVjggEtK5EXyDfDiyv9hGBbiDRia/qCBLdTtx9IvgTM5imGsFp8/VIKrRnrvukpBsY6R0l/zQuQt0UC1Hi0WIiILphBWy5b2QqyboJ7CCZbJJ7QqLaEEKgaOwCoKiWq8xpYDJhF7CeG6aBwBjBlDSlJQDFfAL/WHM/EqkETU3PcAVtuBwi5W7SrpdeosnpIlfOPn7mDPfeaDTVtFWug5+HHx7ge25nVwX9QbsRluFJ5i/UOKCI45Y0Z0FP1P73ojS8hTXxRWnkEyIjzY3hr7UuAH9+hi0MuIo6J5JN6i/k6fLVl9Po+XO8WVx95ZX00Lb7aMXSxXzFDPAaEkd2byILoBBdC6wMrkylO3wAThL1sJcjMD0pNuaLuRv4u3M5nD7CLAlxq/1MUh+4fcso9H5UJ3IRlsS/IpBQyY8TKwV8hM9P+ABhHISsl7AvjMUPgKihvkNF6kUKSUXMB0BFaQVtQUzigcJUhHUBS0MK3kKinaJGLXCPwEvgt1h8hQpXKKTLqeElVw/RPjc3BK4Kcx4VUV7CvZmamqRKWZoN79j5AmskTp87T4eOHWUJNzgJAwZZJ9ZKSpv6RjQhHiQHOR/Oz7SDsRjDbEZ4M4hyFBGgYBWaugxO7yDHxM3RYPIxs6Rl9dvteGG+SWJgugnoJcu1+t+3vV32XBMa2WJqJhvUl8/RumuvpVMnT1BppkiXr7qM7ttyJ11x+Qp+5kakgpjEZpDKiiQfGwk4plQaDZr8Tl8gZ61RjkbDfAtARVRc8Bbn1zwNaTotm4pzN/SZYpy6gYSJs9pZDp029W4b/r8CkAjAwRa7/2c7fYQhrO+esDWhYMHdwpNJmpmY4nJ1nJEp5oYjl2D64zkl00npw6FJO7lcVitdizZDoiEihcaAW4Yn7xaaDcpRDCg6UwFwmJWB8/J96BOG24HiM+ySNBr0uN9SAAAAIABJREFU3I6dlM7k6Oz5UTpy4oSARBNsqmPtXDkzB4hqSagRFZJYkVZ/NhPLJye55oKLGYpWwy1I9sOj1kIQThVjxngFCzWqCW0JMFGdi6s05lZ6WE3Lwrn2prKw0aGN2/uHuUphV8OBRKLBfV7Xrr2Gzp87S6WZWVq2ZAnde/vtdM01V1Aygz4qkuTHndwKBeYjcEd4dsJDeLkV/MthkOB3TILNACEdvAwkjLNgS0LfN5DgEKYfbu7gbvgKTh6PyJB9GSDBv9mJuOyGPu0eW9z7YTPSv78gguFMORf3l8+sRF7UsG4HElYQlz+HQrJY5jqWMhdRYUp2b7s/WA7IAgXz3dffx+5GHmQWAARKSugZatq0B+fTruLmKuBcpuHAoreXFZvBZwAoI+cANrBkJicmWFl55sIoPfvCCzSQH6CJiUk6MzrKa7xOUq3ZJ67smh3gxKgnBQgF/ARAwtEk+YqkVMsxtgKVF4hdkbpQ+RCzJDysYZut9WWAEvrEBwQXou00m7o09dFojZxB5XiqU8C9ZzMpWrZ8KdWqFSpOz9CqZcvpts030tVrV1OmgDJ14gogTbzQX3CJebIBCIDIf3aHHSwJtSKC70Awpd/X9HUr+28qSx4jr0CNA5wIxxJ6/ysACZt3iUOHDnYMgQZGVcwE6AT+EVY+BBK8QMM8gn92d6wHEK6oTHgPCRaBvi87tnTfwoMvwzWoSHVsqCYl9CSTjvtjcGn9DPuwvMB5LSQon825dGm4CpBS41h2WdRyAFhgp0GYVYhPKXhrrf04HKZ5ASZptuzQonYgH50Ypw/27KEdL+6ilctX0uT0DI1PTBInaDUFJPxdVg17idjE9FuVkBrGVsr0RV+KDwEwKGFox3WTS8cxIIHB3yYsq9Yb756RC7K53mkS+t9qt1GEr9+sC3Gtsrk0jQwPM68AkLj6iivopus30IpVS6lvANEMhDdRzzLLvU8wJJwZqoCD3T8ACTm30l4Olph7cLkaQkAGPASsCryngCGT0AmuzCrwQcB3Ldxi9XJBvgpLwsa9I0h0Agjef+YBEvIV2YnavXxAMR0Dp4h3+j0PJLBIAQgoO8cdvnkRa6xZZCuq0xdugtnsDPxH/Bt9O1HDEoVnskJgoWsXx8HJWQRmFXA5O646JcpKnAuuCAMGpNccLg30DUZ+cqSjUqZz42P08m9eo1de+Q0tW7qc35uZBW+RpGRTFXoxA9UgqCIlHd0fSwFAlNtvL17rlcjstLe3fXaheWFWYvho9xjV5RHjpANMONco/lfjpwXeFUsJQD442M8lB+FubFi3ljZtWEsLFw3T4NAgVyPDZwwWGuZEZ3fW28YkapnK0Qcml6MBd8GqTRlZyYCh3cjxnpgNAUh4vxOyKIxjieFaLjVIdHrWv9sg4YmdzCRrdzO2gwJMpDhvneqVKiW0GhUWK6yFdEo6RUtUQNKKGYjArDOxxkJptgiqVcnbwAOG6Abfs/AnrsMADMVJuKJ1grjmJfx/Vnqi+hV6eHJbQaQgZ7XikXx3tlikwyeP01PPPU+ffvIZN4ypoN0gYp8AiUhlapuw/NsMEkIGhopE6ABFMjdCw/ZlgkSwBUT2/CgIOFNaLq2zJREf3egFxBIEcjpJ/QMFKuT7uM7ljZuupxs2raehwT5u3DM0NCQEZSrNfVck9T8RBolI2re/YRnnwM9HQULSv6VCllXK4ogaiEvtMuYLqsyNtHPg3qIWhOkjfJ7KAVVHTqc1XNrL2Llzd3I3vm5LwipQdU3q0gHFtIRrYCBRQ+QAuzsK2Zqloa3Z5AGieAhqQqCIraSMY/EWZ4uUzxV4oUJ4hUWF6kV4ibZCmgNzX1DUlUBjHuR3sIQXLodoKqTJMPqJSpUrIzGt4jaslqMnT9CvnnqKPvt0P5NmaCyMVDJMVFgSoZe3owIcmAaNLD5zpaiJXhJzmQq2WDUpYe5fDQNRi6XpnbeLZRD9aTm8BzMy5pqTCbiSderr6+e+GxBTbd68kW65aRMtXDBEA/193DAYlkS4QG3YkojjDOznJGU7yNdgK0GtB9M++Lkb6AgnloSllweLWN5T7YhnQbgQq6CHPFsdkl64w16OabsBf1UgEb4AIdbavSzcKdW4g/JzneYtRyUQdVC5M5v5WkOCpc1arJYXOqsl4WLAD0W4U9R2UGAm06hXOctgkUsX+EGgVwZ2dew2eOEzC3fiN5GxyWXrUujhIGFQKVuHln+y01suh0VG2AppNun82Bg98cwz9M67u7kMHvSZde4KJZZEGCYCclBkS/4Y+q4J9y3sPL7epyFytNu2PgfwYEfIJrJN7jl8PwYhY7/dCT8SBJBoUDaTFil+vUE33riRbr3lRlqyeIQ3g0IhxyBBCQ05mwLUdnP9VQtRmmuBt+3vlnRlvIIABSImwk8EsmxxN4yzcNahh4EWLfO5Cj+pixe8gkSvi7/X4+IG+CtzN+YKEmxFcMiwNfoRdyMGLMwxoLErVHSolA0FZUoSc5hUbDSoUMhz7QiEIaGygwy3hAQsZPfVG7yboxAu5080UIJfKl0j4QsPFwseWZ2szoQLwapKSReHBYFMwVoNPRrAb1Q1eUj6TZrrwWCFjmC1Oj3/0i7asXMXLyjYPKgXg4IzEH/Jq1WDwEZCRIno1JCc49HJjAg+MyJTFpr93jxMkDaL34DCSLBLd2YbGcm5MW402Ga1khXzEkj/T3OpQfDlmzZdR3fcfgstX7qI+gp9lM/LHGhg+aoOIw54/IiFLTq/F6gLJWsY0/WMVZDAtXFrBVVa+mDjuy8OJOzpcxEbbxNQS4KvoUcD698kSJi/78yqmBRWf16axWHl6gESyMbLkFQdgsUAUxykIsACVkQmIwVpUXEIEw15G/g7GvsiupFKZrhBLB4QwMTCnNh18CAnJyc54Subz3GBGivPblYFrBpYMJxerm4KvoMcEQ6JgstIJumlV16hJ598msogWblWgTx5NksjL3vYTIW2AwmGmF5fwh04n3gOhW97/4UIyd0h96SXcyY7kpwCRwZGED2BggJwYw5gI7jmmqvo/vu20OrLV7ILArKSDShnScQLw5zV4Glj2oGEdfQy6yNqSdjnIVz23Ae3qMHX+/1G1QVhSJ+DCzaXY1vm3NflbiDRih9MzI5nwiNblGZetRMg83m0E7iBC3xPpIVjoUklKfEZuRoUVzwW0RNPEBCL0D5wmLTO4iZEJPrzfa4DOXgFWA34Dw9eJN+oE4FmvwinSn1LIQVxHqlIhYxPREfwPlwUK7mPo5A2jmK4b7/1Dj351DM0XSxzhib/B+6EC5tEUUIIrSDHU/zb4CUJZZ1Awpo5M7BqZMGV7Yv83Fx2/k5p/CEb5SJBwsLnPlaYleZ0EnofAF08L87iRNOdbJauvPJy2nb/PbRu7VViXWgYuL0lIbBj5eICAZ2FNgNBF2/uGu7kyuymjdDoGFsSvmXgD4yJ2qxNgCwQV0fTuTSOjOgGqV7wuJvF0Sm4dOjzA+I2xqLSXKZItwsOPrfQvEzSSC1LLzV8LiBhpj58Tu7FCcISixM7OHYQLKxUgj/j6kOsp4CWQmoYJnhtISbQoDTyxiHnxsJXLQTOaxORS6xbCbxkUprIcpFU1K+QepqopM1hW9ADSmIaiKC+JUdKUFa/UaP9nx2kp5/dQcdPnaYmSCsGM0xAKeVnZmUULH32Ozz60nu05dXmcfrPIPodPxIirkn7OaGFzMPaLJ3oMq/9vJzoeVpncRhY2s9y2zwCl8YK9iZ4PLG4crkMRxrAQaxYvoS+9c2Haf26a0PmetxuaxwDbtvVe8AERjkBRL20OY9wC7agJYrBnAQK2OA5emQlg4RX+s5xDOxBhu8zFDmxNeq7G2022jgXtfcVGj4y4UDCM2OCQ74kkDCUdyIbRilX18CiGnMFCRNRzYIv4DqVmCxCNKaB5Gl5sGgOiweDXV1IyCKlKEMDfQNcLZsL1aKKVR1RD5HrIrphpCNHOzIZjl5IBinR5NSURDdUVFUuF9kFga8LqTasDjxb/F5VS+Ghgna92aQjh4/Rk888R58fPkwN2MY6oYyTYJLLq6Tlnk/bx2OhUS/A4dfhiFmfIPUWLlzIX2CXDZXBa2hJiHHAn5Csd3aBBWykLqfsO17ynWpjTO3ZYiCFNqmwhkA78MbPcZdurT9qNRDcghK9RC6fYU4JKf8IfX7vu9+mTZuuj2hMokDUqmVwPIICgICEhSvteAEJtjgUJARshFcASETdFLu5KFB1AgkzKIy097bh+QaDYseYQUKWqP5/aJy+HJBoi2g6kS1Xw4jLXtwNsSQaVC7OcnEYthy4TF2Cmxlj0gP9DRgE2SU9HAshRaiIjfoS0q8T1gEsDTxYa4bsLC6NVuC7/f397FZYghd+B0uFE8S0riWX14d+Q3NDgFy8EBv4r0EnT5yiJ595nj47+LmsBwYKRPjFafAnjiNyO/nlmnJtx/rjHauYTCRp4/Ub6Aff+hYvqClNY0ftjHJxhlsQ7Hz5NbowOhqy/Fqeo5s7qBPpXbfxax06h4cXSe8gYVaWHxHzM2PFNUtyPQi4GgN9/TTQX6DvfPtRumHTxlCEKG6BOoD2G+2oJQErlEGDLQABAFP0OktCXQ+zSHhzUhfINRj2BnLOIKGqZDt/Owuim5K2k5XhQCIeKL4GkNBEKAkRquetIZ92nAS7DtwXoc5hxxpyLSCJNhJO65BDVYkdHREQqUzV1J4L4C5QOVmqCuF9y+zk7ltIGbYJ4WovJLiknTDRqG0pdS5ZbcmFc0V5KdaQNHZBpW52U9Dbg1ORm1yzACDx1LMCEqhYB05CdaHhHcHI2y6PxXI3ejUv4a8/cu+99Bff+x410jlKI8+BF0WDZo4cof5slv6X/+1/pz179ogL1cbyd6Sq8jL+gapEDl+Sdx/uWYdVSnI8I2dnp9pcwRZgZAEMsjulyNDI0DD19+Xp2489Qhs3bQhV5fIXqLhyWhrf74lhzx9tIdlKkIgI/vN7Z4iYSixX685lGhYkGxq/4RPGtk/7g9TN3WCH3TVRDgRYnS21XmeGWoRmSTgkD1kUXy1ISLMZaYISEFFBinRbklMbp3CXJYRArYR+vcHt2lAJCqYmujKZUIWLvTS1izgEUGUhNzG/HdsNoRVHQ4TUNP8T12bkpbSjr3PdgXKp5MK2yOewNHHwE4lmggGJQ6Coj5mQHBMkk508dZqefPZ52nfgADXBl2g1JvymFVPx/e1eHnGo2lQkMhRVXAIwv/XANvoP27dTM52lvssuoyobWjUqHTpKzXKJ/td//O/08ccf9/LTnsQ6KFEvlawjX/evq+NU6wEkghgo4wkrcJHOjU7vGakHgVD4yNAAFfJZsSRu6ORuiFXALoOWifOtATQK5kxPt3mEM0F9kDBlpezy8ZZEFKB8nsW5OF70gwlNF/oND56zGrzxvrjoRkyNy8D1+ApBwiwIgIR2Ag+ZoB1CoJyAxdEFEI1osJOU5jsaXcCAs55BG8Eaj8C/A6sBUtw6hFgiQII015K12IdENIOTt+Rzf7IAOEyMJdaYFNgFgQmugytjszRcrAfr7IVr4s7U9Tod+PwQPfXcDjp64iSDhDRvSbLv6n7P20l59/AzjFqWrhDCxkgYD+D4gMhjRe7CY488RA/fdw+l0jlaufpKVXPW6fCn+6haKtL/8U//Qp9+8klHkLB4VXCQzVKbUUZW6BHeMw0mcRB+DGkrOiYK2S9qOFcGjRWzCDEnklIjJJ9O02A/xFNZ+u53HmPlZTjvJVhVlmDl6kgo8FhI09wLK1VnwCTuj1x5EOYUi8SeJQusXH1PG5ugFgYbT5Y+7rUAdGOkxKVDXSOL7LkamISssvk7HCF3o9VE6WnjuPiDVGTEVgSsAlNjSjTRFVuJdTe0gAzLpDlqAH+4wVEN+PRc6BQFZxvIBsyyqW89FsxaweDn03nO9ES4FPoG20XY/eCsUnEb7OHhfevYZWFXAxEMiHM9tJMXWxUACXVBcAysCLg+H3z0MYME1Jfcv4HNW+nvYKSUDwwWFeo88FLlmyecOzAe9AcHh+jb3/om3XrzZspmCzQwMMyagoGBfvr84EE6f/48/eJ//Ir279/f+pNC1OgCCBfOsnwa13zYT4lWopx7j/jOhAv/yUpg8lPTU8KCL70U3e05iuQ9H7miJNVBpHKX8RQ34xko5KivL0ffe/xbdNONm2KjG7YYrR6Eb0mYmwDMwt+tFoVZCXaNAhLqargy+WJJcDVtT1AVRDRVku3XAO0IEvJw/TliG1XUO7tIS2J/az/6mJReNzvmIODoGT24O5IswEBr4O9H8sijIGGWgOVJVCtlrnSNo/EeyMehgSHJsdDogJGhWKDcjyOZ5GpEGOyZ6RnqHxgQF0O7ccH14HyQSoXdEIlgQKpdcpoJHG9hUXAY1slLFJWin6ggksF9QiWdnNvKsR6jQW+gq/jzO2i2LO3uHWsdGmt7TIKc5jO3HWM/O9RbyC0bARGnUf/gB9+lu++6i5D9+MUXR2hycpxuvvlmmpj4/9k7DzjJqmL/V/fETbM5Lyy7hI3skhVREJCgYAADhicqigGzvmfWp++vgvgMoM9MMAcUVBQkiCA5xyXssgE2sDlOnp7u/+dbder26Ts9aePA9uWzzEz3DeeeU/WreKq2yKbNW+SSyy6TpcuWllTvdslYzhQq9bgnoq9Iuy60PRoRvnFtpISoU9jmvVf9XRJfiGfneiSHSE3eGA9A5yel7EaPGqHmxiHzD04aRfu7KLSECt0OAKY9BCeyO5LdFIl9ElHPDPVReJZkskcD8zGYMbrfI/gyPGkuai/gYekS52aUMxHv3VDeCL4iD4t3Ffg9+3R64tXMksVPFWIbNYm9d+MsTDYQ9RkB+nBiLyDR3R10a3YwA0iLLlAvIhRTofceiwyzE84cRCMWzX2whCcSmXRyg98hUzBpYxGLoZrn4D4GIh5VGfvO/RH8BITGjx+vSVKAhLfz4zsyMS0xy8KIrW0tpsFQJVu3sndaAlhHh9x4y83yjxtvCntQi29bwhspcA5R+bJTU3TeFU2OnlZh9KhR8obXnyH7Td1XNZjBg4bIqudWyty5c+XxxxdodOAXv/ylrFq1qnRLd6pnRtppuCPSq6fxAmTxkUR8Yr9EUNk7WVfCldVW8p7apZMnTpBXn36yzJ9XqkkoQGi0IjgttUdsaAOZynRUjSDKkXBNorRdnzcEjkzUQtEUKTo8y2fWKtB6n42UfyENoiW5ImXwYEfWoluQ6G6RBhJIKEAQcqRMfmur1lDQXMVQrl4TYML8U9C2Bk93yAMgV4JdlxBFG74BTI2OnDQ0DLeNWZrLYLPNc6iH6c5KN1dw+BEtwSnmkjPeSq6hUS3pb3s72HruURCNsgAgnZ1y079ukRuuu1HTsWPTOzExoyQaJaywM6O7PXKlzNo7UIwbM0bedNYbZNKE8TJ0qG2bZuyTJ0+RJ598QqMD3734Ilm9eo2ZAFHGX2zp7i6Q6C6ftCTxyzuQV7Fxi3wZq/kxZFCd7L//VHnlqSfJnNmzumincZITm/2S6ETIglUXaihBZ4lPpg14rkScbu0mRbF2hPmZip+bTqgRskizSkxsU5+LFbQDUCnDp/JBYh9GuUDQDoNEH2R9ZG30fVdAX+/rtn535kZXFdmSdDTXgEY2/KT7N/VF8UNoJlzYiam5CZ0ybPAw3ZQFodTpBqyc1X7I0pmpRtpb23V3qBa9DWYAzAIoqjaiOz3NAerjVFOlvl7vg+kCaHhJOI9s5DrRIqyDF7+Tpu3gkaPmRD4vt/z7Vrn++hslF7qH+/sWd1AmnqhQVQsKsepIsd4R/1kawQjFbdVSKY0UQDzjx46Rs970Ji0Qi9N20KDB8syyZTJ7zhx54oknpLa+Xv7vhz+StWsAiR4OJd4g08KuXP7yIi0uGbvcIfgdIiLT+5gTsGuxiS4En1LT/T4KYAgGVf2tS9eQQYNk/rxZctJJx8u0/aaWgIRvrEokPCnU9AQNpoPeN/hMoBOmMwYV00Si7MrINFHKJFISzJnY0anP80zL4IdzgZQGkeTdA0iUbAZLOS7jed41IBEG24VBy2w66isYdHeeOhpDvFeTnno5HElhXNQ79mlomDJMNvsztOtWiJig7g8bNlTzJwgNYnIQJkWxxKyw/RzmiLQCt1aOjvCWmTSAh7e7E42GeKTCEZ0ha15+iHaYNmNRF8teND+E/iPJqrNTHapoEnfcebdce811un+EyIbNh+gGMHXcqWM3gY4gRdwvYZ+nw5pdtsQEZivJJwi3nDB+grzvfe+Vo448QouyPPzwQ7oB7YgjDpehQ4cqZ7ztHe9Q/4Q9qxScolQ8+z48vJgl2jWd2wFAx5MP1ZxC8ljyLqny9A789nSX4GzOC/kBYViu0TD/FBQmukEx3NGjRktra7O8/Nhj5Pjjj5WGBt6teJQFiaBBer0IY3bPnrRxeEKVYlLSONj235g7yMOp1Aixc0qjIeYHSRS0sObhLRMAcfCKac41y3LaQ39Aogv9RBeruVGOJ0sdT8UzdoW54Q68JD+iC4V3HSHXKNOrE7FNpT22PoTEP42QhLLn7OAEDDoxOXA+VuNfsMQnLfaGBFdnVUHzKTZv3hIVPTUnKI5Pz59Q4CDVm6Y/bTT/tYX3BC0rX2f+C7QBA4dWBSfa3Ov32r2rXVra2uWue+6Ta//+D2lqbdEeD3oeIGaqUUCB4hwU8aLU+CyxS6Mp65JgFPsSMiITJkyQ9733vXL4YYcKzt+1a1br+02cOFHb33EAEuxgLRJTFC6MSrElPq3Ihk+GEkm6xNmoAIj0xbHIPhpz7saSj9+9rBzf2ZZ4rzWpOqXlp4QaHTrGUBrUBEaNjB8/wTTBmio55eQT5Oijj7KwZMp+L9lTEUDf61NqxCtyODo0FbMtQ6gzcvy78ubaiKdrOwAkABKBRDxfiZbh0ePU3o4YXMrxsX/WmyYx8EGCZKYOiswacfQ0YIdn24ad18IyGnokMkIuQoiS+D4KzVsIDN2BhlCgyKn1Q6BGpCY45WFysz89ldoiEu2m7ZI8FZKpPBnLHJhm1rA3gxNdk/AsTZMYtlEMnwT3xskJaEDsNChGm3hq4dNy9d+uleUrV0mVFsIJiVnRbsDYjlVpXbb9n5GEqrXBXi4ijJloHv+P/QoTJ0yUc855l8w/eK5s27pVnn32Ga0cPnvObHXiYg6+493nat6Hzns4Ysdbuc5T8T6Notc9hDaTxsJWqk+BAhVes1XjxkJxw57gI8Lp7IWuNEkrXfXKd08aKzKfc+fOk8WLn5ZZMw6QE048TmYcdEBi18fM5REJTcfGYa1hzNLKU1qGLkrDdu3C+oH6XsmAPhr29SgGDYytrL7TcRwocEb2zzxikQCBA0Xko9pNILGwfPC8O3Mjclr1hFy9f1cM4sNwMKShf7wpqKyOoxSgJkEn0QF2W1ogHbuT+bOaEtS0tGYwBhx5qa2uS1r1+e48rkX9Zy2rsjRlgQALUkWP0JDCrZvFojoLjJGaEt6cJylHFzXr4RzdzKXZlbZXQ02ZdgcJC49S05LNYdddf6Pccec9gp9CGwKh7XidzCTc5p53U/ljqV4kMHN0ORF7nk2pk61UfNIC793nvFtmHHSgth7YunWLNDY2ams8bXFYKMh/vPOdCobsijWejBgzhPJ8tVySmzZXtONLpFm4h72DZWba9wYigbdKCIAkfevAFmtX6O+h0HBUCT3d6ay6uk4mTxovRx99hBz7smNk8OBB+qxYILkJ5HPnoO8hUNc8rGal0ZppNG5mhP0bIUidaHaRs9ISqeJQRTHy4QIoAYkoocr5Iq2plUQje2C68qFRExUl0aEwdhVEer+C9JhM1aP6YvOz/UcUy4aY4kSknm9qdj4IirNRy8W5YwnfQuI4o7J1qzoMqURl11DgNmfdoUPtCF2YEMGgtiUMSiIRn2u+hKZv2+asxIkUBuhRAJPcFuHwnaF8hzbi/TZYZH4nqqJJVNwbk4kdlrmcPP7Ek3L11dfIqtVrNCaP30N9JOrL6LD9lVkDHotuFEHWxFc8a75vwMbkDOfaQ8K84bp99tlHzjvvPNlv6n5qfrGLlvqf9Vpe3pyRb3/XOap1kT2aPMqJPXJWlvWdRb6FIvH1sMoxAOozoqrb+qyQnej4EpDIVHsbne1nCEyczciwYcNl3rxZ8ooTj5N99yXUa3Ga2L9impE5H3WDXcrc0KK2ITzK73aYiWGduoKfpJjJ4qcE34X7L2z87sj1TWSJlhrWtjuwSHwTibJiTt7eTAqfcQfjoiUbVX9LKQeqeab3bvSV68P89/X0rucFkPBIAcTfpyNDrwwLO7Y2IZXbrdAtlaXYth0yG6kX2REqQnXkWjEWdAu2Rh+CkxEtg81YaBma6UnXLK0LYYtvPTOslZ9+HjbSxIDmABHv6+CdOJ/PODx/wiIqZmLgE9FUcvZvdOa0P+gtt94q/77ldmlsbo5U3WLMngIplNmDid3LHqv8gSUisyLd0s8YvgQkRGTylCly7rnvEcwOgKwdk6itTUaMGJ70wTz3A+dJnurfYQ7i7evKlHrfUqU0TbR9lSnuxE7Ar0xt3sQhGPqnFGnHHIa+BkSuhjc0yL5T95Xjjn2pzDt4TqIFpIPDPl4LY4p1B9c2j6Fnhu7jCGnXYfOXznkACQcQxqZUFjFJUdsoOpzd7+drqBGTeEt/BHolGlmokVnCL76XoxcmKq5JpEXEju9UqvweBIkicmm4MaRi9+qP0HoMOPTYBp6XFkKaoRkPZgN5EKEQunXlxqeQrZLOnNWfJClIox6hUY9vAW+jT2iO5CuLiLS3t0pLC7UirM0bEt2fo0xGpauQgOHVprTRbORPiYHCgYbPVJtoa9MkKwBOd4IqUORlw6aNct0/bpB777tf93V4u0BXdzUNHM2D77Tse8QagXhNjBb5I1Z1AAAgAElEQVT7eSZmQVT1qFjvwVxvkyZOkre//WwZPXq0rF27VtpbW9TOHzd2rOaS1NbUyIc/8QkrLKw44NpJ0VFnjwVw41HFf7gdbsSZ+ES6ELWxrqu6iQ/b9z4YV0rDsGEyZZ99wlb/Ntm4YaNs2rRJE9I0WiWivghK5k+ZMlkOP/xwOfKII6S+jrA29+ia5O/MqkxPLoT2hbVMTd/67T/1FsHvk3zmDlw1ncI7FtWuYtPhSFrHvialqdQepdh3lDB4bMJFDuKSOU0hchcto6zKZ4vh1eldY90zmkRsaoScBHdaulRKVKOg3CZko30wMtLY2CQZVdcpcW8IjD1NiIkc/ZzuCA07MZF+mDS4KXA2ai4EjG659TAdWgWg4qnT1dW16qijSKrHsNWp2WnbxhMfAHkUORoLF7cMe7o30Q4OIhmYK1piPxSe8cIubTg1iYSEVPKNmzbKXXfeI9dff4O0EI2pq1UNCQCLQ3TqTEsmKXj68fAH04txulUZZ4pqYZ6wy5Y5gJRhorPPfoeMGDlCNm/epNXBMbmGDRumTMLvn/ivTycd1dUHxIH6HcJ5GlnwHACqNOSBZC2xpVoRIWbbpxHMB35PSlmZr0HZKmjxFsEo7y4DBJgTAMxBkV23zLFqgFX09KyX4cNHyJgxo+XFL36xHHzwwZpIlfg6ugEJX0d1RIccmliTMI3A/BEe4k2ctilzI9YkitvFS7nXHcmukXSnCCRgAv2ELLo43KrXlbg6SiM35fxBJVBdtD3MTxNFwDJLnu7GcelP7UZH3CFzI2zocrXSa0ekbbBk4oKNaiqtRQZIYGKfhucraJcsjUKQrEQ7v4zWECCCgeOxqqZWKENNyJF0alR3tATLkMxpmKymulY7fTP5mqINkER7PuxZFKLJyGAINCT88Lf7H6zsPg2FrSYmQEGKtjOmJ1mpVtHeLm2E/JI8EUvXbm1rk6VLlsnvfneFbNiyRRfN942oZqMVl0VqggNNATTYpGbiGAiiNSULrglLZmrEBAM9jBk/Xt785jdryvKSxYuls7NdxowzLUI3RtXVyhe+/D9BytgYFezCTnA1x0LNDFOhGY4VGdbIEtobDkcaFRFudiIvSTX3fBAD9KqgkpjiEsrepThIJX/Ydcs6sYGP+eYfADdu3Dg57rjjNHUebcj6o4Zdpj2AhOcxIIw0EqaCxdv0FTMknUlLfBEhYYqhpiMPRWdyEfxiX0J3PgUHiNjBGIdi1UQBjBM/iU1UfL9YC0nrUIlTM3ZIuz+H+yzuASTKe0TDAFLI1R0Clv3cF939EmylpgpUUJ3SIVBznlmxWYtsNGuKs9avZD9/Fb6DdtUkvH6gAUmzEvggmgC3tgk7wQEC1H+yLzVhqtochJ0d1hDY/RsWxjSCh15hAgjNSvZ32uYuciuCZIZ5rblwsRFPXIbPiSGuldGe65AWKliFiIp25ApahVbNyhXkkQUL5Jabb5VlS5YKzYbYjKZOzWxGasPeAu1MpvtLqjUZi/+qs1SA9pqSIeIR6i46gZlWk5PRE8bL8SceL02bNkn9oCHy3Np1qpHMmjVLNmzcKJMnTZJvfeN/NTPVfBqW/6GGQRAiCqCaIl8MBZuGp1yuBAtwJWubzlHwbM1AG3F+ugOF05LPoTMClbDr6uusl2cd5ekaZP78eXLgQQfpJQr6IZzcH5DA72UgYVm8ieT2jVlhy7ePw0wQK1OQzsGITRmfg9jUKCqFpVK5BGgCHaYL1nQHEl20k27KLVjB5rwMGmzNkruYPGmQ6KIM9eRtKvmuvGoYQUpRfUxt61UNQdXjEA0r4wDzVGkIzdT5jDrYcGK6zQ5IdLS1JIlNqnV05LQQbk22WlrbsalxcFapmdLU3KRaB2G+2po6TcoibGpx+7y0tDbr+V5C36IXZG1CcZZu7I48xgATQRyeTGXsYZoN0p8UbvIPuA8SmoK47eRqkJwVpAFMqwlr9IogfVyL1xSkualRVj67XJ59drlu3d68ZVOI3rQp4OGjUFVZ1XUrlKIqP+FQtCLthE4qMRvLbKLd5h47erTMnT9fGjdvljFjxio41g0erPPGjtD99ttP/vbnvyZ1MlhpTAjAis0xgCZ5LjwfsKTSlTnzgt8E7SJIOUt2syQx6nu6E4Mc09ippsqRm5oRPXgEwBQMA0GeSWbopEmTZNq0aapFuGmmvhvGElo6Jp3U0SRi30AArSQvguhGdYhwhIK3RmfFUG1RkwhhzGSDWKkUT0AkaHvdgYQLSX9vBZZQtDktbHV+QwKWg6a/c7lz04zf5ZzIt6HfufbOvC1++knl7hIHScoz2yctIeWVTZAxengiRSK1BibyIjOOYuVCq6i4TAp1Fy11uknqakydRvvlO+3HoGXhkFhGRPWD6rSLFolLeKrRPMhVAN+oWgXgtDa3mIOytk5NFrIim9ta9BU85EgBVQ6vVGUp3HZPNwVc8wDINEuzqlolHAwEuKjmEhjH/RPFMCj5FKa2s9j4PeqqKblGT49W60itzwc08ur45NDxt1iUh+cABBRY0WbFwcFKQV9TidkNWa1gaG0JIUIt8qd5J41bt1gdTq17kVOzh+ZCOHJxsBJKbhgxQrJoTaGeBlJcs1nZBOdl2WDAEEli7BoGRvOpr1PnqG7H7+yQJqqMa8Nm/BbF8KIxQJDcqPxVhKQNBFVjUqCp1n9F35A5NBPVPACLm47qqGRuPTEqImpzVFoY26JGoWdntWXvuu9Kz9GwKLQWzA5DAHPGBhBQr0uUCOfSLy48E+dQpEEk4cceBHQX88GdmeWYvQSA+8TNJScpSOwwQBisl8buyzhRHCRcAiTSQDc2RdWWUtc6kMCwEJ1dB3M3qVpMCXxYSMOOoRkwTKJSAdUbxmgnLRomtfRqD7m6o7Kzwxxl6hSrIj/Bajvos/MS9n0gXUiyMlubYi1NTdu08YsW0w3SEvo0e9aIGOJSnwWJVO05BQ7PRdKkYs3EpOdGcD4FIq2rtmYy3As7G+ZXACRXIkRSFAiqrMGxAZOp+ACVhzo1mQyTDt9LteWAcC7jNpMkL83NrdpDJE/+BmHW5mbtiWpAYXU+Mevqhw5RZyql6gEf6oKyw1aT0PCTVFFzA19Q0X+EH4d1Gjp8mAIE90KLw2Gc9HmNGtA4Iycl7IOzWU3DoK048yfM4ozuUZAQ7bEEOybW9sPEW7l1wKHyWGwOKCBrNXXfKm5roIIoVE+3+xSdx6ZdWugzCRyEFGoHruJYg1Kd2mrvTXg8vN1/dk5HVDzFpCctv8w1qQdnljwd9m4ExjSVpycbo5uhd6NJdDk7ckLGwNAdSLAw6q8IGYyo65gQNMrIZAuqBWioJo83Wpu6m1rsfoPQCdz2nFhdSfc0a+NfLXefU3PDHYy6FRhCD34SbQAcys8pIyBJQzIOfgoYFCa3uLptR/dDi9ZoUVxACwen+TkgOmUepDj1JtrbFOC4H9aAOvwyFrL1UCxl5hJ0CdEQHoUT1RyGWQU3GA/QUkeWpwWH82EANQ+02TGamO13aWkNBYRDfQ60E0BDy/C1GDBzv9pBtVJVnZVcaITMJjvWBC+mmxJoFTU1dUnHc7QQzJNBQ4foOm5r3KbPc4etM2uSvhykelKWHn8AWgRzgT/GC9CG7EVT+12SG+NyvuVh+R6P4LCNUqRNnbdrk3Ts6DPXWiwEapqGCh4VPkXNIdEEQvalmfUhwSnZiFZMdvL0+CSCEAI+yTVBI0pr1LGZEvNVF63EtYlufBBpnuzJ96jvlt7g1X+QCBzRlwGlzAy3ezykk3ZYutqlUlE38FiRFt1TkQEIKOKCasxOTfMRmCS1+g+6UQimIESpzGrOR+5B1qOlZqOBsMuzWnAk4mNQhta0aCOsHB7PkDJeTNuuUZ+BhRdtsxfS1zciQcxJP9NQccuYxxr7mJ/Oto23drQnPTpoAciBGZGhA5k6Vqt0o1Vtfa3G+W2jmYEM4GXaSpW0U5lLY/uhbR2JRuFdvR6G3btD1X8+Q6LD9MwDGgOp7owb84Nq4ACYhRbVVaOl6WF4GIHzWwCTxm3m8A2MxLlVmAhJ7kZBs1yr62qlsalJtmzbpg5gz4hQSRt2vDrjanZj0KjQlHT7P++mZga+F2/GGxV2CQypPoioO7ebA2mzwH1ZntPgJof7AnyzoO/VsI5cwZEZ+QSM6aLciOCLijUI1zRcey7RLgItQA/uV0jMqFR2bQw+ei/PRoWmIs3FI81ds0G6CvntBIn4Rr1pFcFM6INuFPskko7hZbypJU8HWNgx2R4SooIXHZ8ZKdnqMWeDlvb5tNAnTEKM23IR8jKorlbVX5ie84ixkx4Ns8DgREDgADIfNYcCFRpPvYbrLOZPtWt3nmodzYKoCcCioklAyEhoN6VgbtRjk8IGpInTzKwzK9zbmdMsShoH4/ADJDAxYFBCt0hkQKGuvlbqBhHiqzOHlWoIlnyDus+z3O+Blz/etu5FctRvoBWaQpYgOR70/ug0ENBM0pBegUmlUaDmlqRZD+YJ2hvP0hBuS5s0NjXqWBV4dEgwsfkMTNsqGIPXVGs+yBb6p7a2aB6LzRUaYNaiMkGD8EpSRaZFKzBQMI3CNLYkNyX0vnC68V2Zblr4+7rG4p8njkf3KQTg8c9J2kvAKhSacWDB/6JgEvnvkgQqTzYLJlQX8yH4D+KNWzoX1N7wMnlJ8lj5vUyJU7fH9PwwI5GDthyb9hskShg0JLj0zP/9BAnf2BN3De/pAeE8pJlu0dYoAFu3sXPNwcY84Zw0EDIfgIUyCVFqlxiNWiDdOJemPdjIChZUocpDyNW2RxKvu1bFDpuyciRa0UzYzAaz+9E+TJ20ytu2ldmY3oACQLGcCdtqjtTnM5jcmdXMEDZ9ARIdGqql4AsSWvM3QvVuQKymtloGDanXoinOTLp5TROjNFaRlOKzqIYxqh02LwpmCmqEcMkkxbSx+ptco7U5mZ8O920UNK8EZ7Gp4xZKVXKmEVJ7uzQ1NkpzS4uabbZrkaiGFfJJ7Pywr4VGzNsaG3VTm5uXnGPRDtv/4NpdEnJUVd+kt6v7mgUJSARGTScPJk7IEG1wtd6luWsoPr4ENEP0wt/V/A9RSrabQTiWtZhN0CEisPD+Q+64TDNgnJOQmBOReeLAUYz0RMzRi7ZuGmoZof68AYmSXX9Gt0l14x5eXokWTSKkM8P8AER1jUUC8JyD6mgTmjmZqbLQYXDkIf2YI4CBI3FaBuL0RsNtrRapMNeF9Qxl0slhwJPNfeMkIUvXJZRqxW6gGG3pl2T92eYqwqdIXrZgNze3WDw/FNTleWR1app2J53P66RedycGYFGwMFDCJFCgqB+k8WwazXhLPQ2z5qw0njk66UJGBAjzw0wPVz+tcEtON2/pc9TBaY5YtKtCJxNu0t1K7xUTmRRwsyLVVfQxxdnZpLtFXZPQbE5VDWzfi5kxprlgvmzdYr4ITZsOm6iS6ENoZFPceRk2qVF2zmIWibkBAKkWETSixFaPu2hpzkIAoICTRZDwojHB8djFJ2GCBh+SaRWx4zJEVzSdLUQ2vH4EP5Uhi1W11F8WOan0TUJYMzavi5GRsHktHaWIQr5dgCDeb1HmOt/30Z0s7lWTWLqkt63iqcyJkFwUO9DcLupJISimVZc2CHapG19bNEvIviOJqlOZ1iS599bIaRjOGLTY10J79GqhEVNHIUqVVsFfQehNY+vVJD/hSCTbH6aokXbCfq0tWt5Ou4Gzp8Mz/0IeA3axqt0aQrXt5BqdaLOO4br7k9yNRCpiS9cYAwazidaAXjxXi+RqU59OqSNfgxyDEKFhzjTcqeAnUlUDUNSqo5LsQhjRtsnjK6iXxuYmBSXp9BwE209BGNOlDOXp+B2NhftrzgnaU9hspj6MNtM4XHMCcDQtPMTttehvrkPDxI1NxvhJboiqyxYRUnU97EdoamxWkMDMUN9AFC1Qya2bqqKuWPp9YNIs4I0TN9R3KGmdVwzfJxWtk92cobGO8XLiN3AVIAGN4MvgHe00MzPMYRl2hEb+CBunRa48yuTaCD8D/hW/D9E7p/EupkIqBaE7bcLN36TUXQC/kjyJeMdt5BBN8iSiBtQl44l2pSZCxZ2zS5dYL9AuR8jfjhPCXZPxLLoYCcs5Hcvftmjn6zsGn0TJuY5LTC7OypyVlPOUYuL2zYQe66pVfXegScJb2ax63NVJ6AASnELcGqZmcWE4ZQT8AdXssyARCkBq0Zwq/BAWVbEqUTAsuj2+AxMO5ng0SWOp0KaSm9pMRSzdooB0Dt5uiKujw/whPE93oAZpzbtYSNK0J3aoAm7a0CdDsZyMaRF1dRYKJJyJExFtBslPFW6cuKGpOONyH4maE7mOEC2BwAkFmzbkDYGtVJ9VeOJ3oj3mh8jozlOStkaOHGkhYJyuhZy00C+U7e9RPxFdy2BiMH9EozZv2CytbLTzKETYY5FsoHKmTCIbgUkBBA0tF/8ucTB6bkJUp8E1PvMZuMAPIcqQqOY5C7E2wFyZBhTMNGgmmDX+TPdJuKkTh04TB6ltQk9Uf0/t70mI+nclWkfKdOgWJIJ/pySVwU2gaK+HOt/dudlNBNP9LC74NSzbP5AwaEryHJLAhjvmIq0jbUJEhqNHKtxZU86OUibBe69pygWpzou0NbcIG6Kq1J7OypYtGzTSMXjwkBB6dNXYalyiLrs0ADCo0aj1KmssEUcrV3fk9HoqI+WI6+HfgPEDQOk+g1DIBqbUFG6cffTNQIIHoKHsHAcaj/pCwo5ItB3MCxaQDEY4GLAjg9KTrxyINVsx7DpFwrt/A5ND83yqiBpkZfCQIeo0rdUISl5a1OSqVvDIUe1KozEmRRmj+yJQy9AqXMXHSapJakFrUPMi16lgAJBZxKTdHLsKoLaRTQv+ZGyLO7UwtKGRFiNmd2oxhO5h6+ZtjbK1qdFaGAbppGZFdbX6hdRZF7SGeKOc99J0BnJNwze7OQg4aSWMHHIWuE5D3nFV66izVmKqB4ZRkAjaimkExc7g8bhUO3JwShyMLjcMHNIg0heAcG2kW4GbSh/QeYv8DZ7745GTOMKh9TWi0nduYvhPf6YDWmIdsJx9BQlX10yVLJYXSx4WIZPaYankKiVGZZg6U5VDY96SF4pm0m05l1rs7sT0gDCVufhAzHmG5FQ1PdnExHZPMzFs27CHRq30fpbIQ0h80u3POCAJZ+aCZlDotIQqrU1pmZKeFco9FShCnUufXBjJC+f6d7pJTPM1atQHYFqHOUT5SciUhQZotKZlYlObQ1SZW/NErKtZThnXNjKhzagmIJ4bYVoZYKXSO0f41ip/+/N83WxjG2FQIzLP5XCNjGfhKDYGM7PDHYyq1YR0aN1piyakpQOtYhU/+V53foacjBY6k7NuEHnY82F1GkJPC82C9BKCRUGTaAxRSNGUlGKSmpngxQ1uaYFjGbMhpyEUsI0Z1s/3nzr2ZI+LF9strSFhPgXv0VHMuDSaNzqNn+mad1+BwsFN7xFV0UYTJFqGFmrJa0XhHJs9CjapXAmdh7gwTSpDs6zT08/pK0gYyhXz5Z1QyoKExb6SzTwQCym9Y8eMlywbj8rswOvPBO7uc3lXj0SgiaBlaAk336gWe7nLqnHmhIsPNzFKMq/SL6b7Q0IGX7LRINzHooZJzw+NLCRH8Vlq6ER7JNIM4sSl54VCsuqHCZ5yxeJuDnIYTc8LR2R7QxcKILp5LYo8mT0WtgGY49B9CdxFNTD9zJOVgtM1GkM2E5yx4bO4ObJZgcVBl/X2J9f1EN5PZ0Om1rXH+6bmq6dzt4eWMQ/Xr1sn2zzfpLuohs6FhaEdBOKxlHVYxk5Q15L6DhKu16TMjYhByr0wkYbhw4fLkKHDQo9sy4/vS5LH9kzgrromkZ4huchrKqjUDkVOvAhJF14vU1osAZiIoLuMXZ13HmKOOnQnTGSZm4rJxdafXacg2qxTDiQc0FWTCAVr+uJj8sxCv2cCnCHBx6t+qckWHGbFAr3FfI2yTJTQVdfXSXfwKumg3g8C6JF5BzBIuD+MRLh169YLmlqJMzTSEmxbQbE8QDmQKHpuioLdk7aYzj6aG2arK3NH3v5yzFBKhFkt115fP9jS9RJqen6ChE4Ym6xa27RqtG/GYpNWUTXsKp1K1LwwB30FCUwqu2MpSFjuse0VMCbpQSr2EyRUlqe0jziUl/iVXUtxyRykuGtJBhKWJASQJV57a1ETog2ertxVE+qO+T2smpCTJyf4AsVz0QMIdwsSkZ+h+Ix0lK/7+U5/s7M1iZjHMJ9XrFiuTunkiMkh0ujj9O1yWkRJuDbi9x5Bwl6ua5v7RKVLzUapHSRa6Wh4w+hiMYxQfMB+lOqxZW2iaDZ6+74fAmS7TnVwVPU8NBD2beN0Ki+G2LqQSMjMS+Jw+vzE+RuiGRrGDQlgiX2spnCwO8uBRIgUqCVTDieSKS7WlQgiPcBOCOFFzmiNrASQSKpiB5s+XjKdDwpPBa2BGwJYmpUawEG1kvB90pvCU6cDyhWjA0UNtdjbpbyt41mJ5UEilos9GnNJuLM3YVeKPZYDEPsw0iBQFiSihKntIsCuLJPkvmzevFHLDvr2hvT9lXc8X8O1jG6iG8kah5dQh2dP5oZGvBMkKi6YgURX4aX3Df4IPPnUIJSChZMKMdqHtyDa4Fum77//fu1ijbOPMJsWZG1vV1PFswF9XwTXPf744yGKYMSFR55KRPPmzZPly5frPagx8NRTT8mMGTP0iZow1Namqc+bN2/W6ziPY/HixbqNmefdddddcvTRR3e/lsxJjhBhszr3yFos5rCEsmFhuiD4JUuWyNSp+wnvaOPo1MIo9LXgekKN+B6Wr1ghY8aMkeHDGzSycO/998mIEQ06bjI+WQuKuo4bP07Wrluv4VDecc1zz+l78F7Lli2TadP2K0pwX8PArKj+jMmzMhX0AkhomYkgeZmflStWaigZJ+rQoUO0T+qoUaPCPLbK0GHDZOWqVbJ69WqZPn26DB9mY1WQcC3DpXKyjbtYZdrBQKMIuvnNIkZpkOD+rM2TTz5piWe5nL7rlClTZNy4sbYPJJ/XcaCCT9tvmn7f29GFuYNT2bJoyxwh/wItknNYN9ogUj/TUDej+2d4+edWrdJdtNOnT7MyewXROiBjxo6xupzQoW7Y68eRihgaHBojPrt8mTQ3NYdxhHtGGOtrbIAX2gqWw+AY4RzYegIJE/hdqyDbtvCUgptS0caMGydDhzWIFMz2LAcSjzzyiCIy5cX4HQbXlOp8Xu655x5ZuHChTJ48WY488kih7Pu6detk7Nix8txzz+m/P/7xj0q0MArXYdqwYIDIAQccIA888IDcdttt8pnPfEafQ6HUf//733LooYfKrbfeqs+j9uEdd9yRlD076KCD5KGHHtLnTJ06tQegKEhrk+1rUJCIjti8IIKxZs1aHd+aNWukqalZCRgge+Mb36jvumHDBgVHxsu4IX7+/vVvfyOHHXaIPPTgQzJk8GAFsHnz5iuQLHr6aRk+YoTeZ/RI5mCIjB0zVp5dvlwzP+mZYYRbdF4lzuQMoVpCm5Zj4kARV7tevGSJrF29Ws+jVsWoUQagI0aM0PEuenqRlqaH0L0Y8L5T9tGIi9c9JwMWoCd5LNlaXdIm0nIfFARrLBPUQMK2d3uPWNYdprzhhhu0WtZjjz0mhxxyiK497RupyzmsoUE2rF+vW9uZP8A0BgHGAfCNGz8+AcI0SDAWzvNObeUWn7FAX3Q3u/nmm5VWXvaylym9UPSGLmeDBw+WjRs3anmBKftM0XnjgJ4RWDyD8/iJuTBt+vTkUQAQ8zmsYVjXx5cFCZPLODGXL3+2W6tTNVdNoAn7dkIeiz+kJCQaoknu9MwsXVw+41LtyIA05jlPmwdFlEhsZnc2iciUffcVGqKoL0LN6a6wBbKyMDfeeKMcc8wxqglolmRLi0qNFStWKPrOmTNHi5mC2lRJYqFgDqTKokWLtBIRC2Tx/Q4lkiOOOEK1g+9973vyne98RwmGhbn77rsVSAAGwAkAQtLzO/fk/ozh//7v/+RjH/tYjzCvJfHIBC2Yjz+eB0fr22+7XTZs2CiHH36ESkPGzs9rr71WTj31VFm5cmXSmwMihsBmzpypQPLnv/5FDjlkntx5x50yccIEmTV7lpa9Z7s5BVtI8QZ4Jo6foOFUGJiMUe59xhmv6xEkKDxD2FaZNGgP/pP3WLhokYwaOVKrdjEu7q1MlRFZunSpPPzQQ3LQQTNk05bNGoYmFwRNYs7cOZqkxgGAQrzMJ4BmeyJKG05biBWQIG/FUucBCU80g5EATzQV1pt1vv766xXAYTjmb8GCR2XmrFkyYfx4Bb71G9YrA06Zso9lfOJHyuVk3dq1+g4IE3tOqWHAOMm7sYrqXQ/Oh/nJMH0wAPq1//iHnH76aTJsqDWkBjz3n76/0hO5LFs2b9bcE0DkF7/4hQo91pF52bRxo8yaPVtB3w9C7evWrVU6APhKjnIgEZie0DMd4B3w3VHsZiGfex4F97RcnsgM8TBxkjFpT1a67q4XqD4kjLA8SJQ6muL5ZkD7TttPTQ13MpUDCW7/r3/9S18MxoE5vFALzA+xg9qoZ0w4DPHZz35WkRZzA20CFH/wwQeV0QETiAMJB0hwfOITn5BvfetbSrAPP/ywPgPJ9uijj+q5fh4T9rOf/Uze/va3K1F/4AMf0L/LHS59uT7X2i65vO2iVEXObK4AGhDVJmWqOXPmqgTcvGmTNAwfruNFk4C5Fy1aqGbHgQceKOvXr5PJkybL4CGD5Y9XXin19bXKGDDs8meXy6xZs3VvCnkIFHBB9MIIf/3rX+XVr3617g/505/+JGef/R/JGNx5aJqEmRtsbGOvCO9qxGO1NtyH8OTCp7TUPpKuucUKBzP/hxwyX9atXy8LHntMmZvv9tlnX1n27DMyc8YMZd7YZ8FQWR0AACAASURBVMAcwRDkdYwaOTqRLDZP1qiZ51s9TNdBEsrT71avXqOajG+zR6N4yUteorTy4IMPaB4Kz0VYsLaeiAajxUAAmKFtsPcDxlSNL1pg/kb7URoss/Dul+Ic1m/okCHypyuvlNefeaaCE5oCzweEGAsaLnk4CC7oF612+v7TFYSeeeYZOWjGQYm564/juYzzuVXPqWmCBhkfXd27Rm+YsIBEHFzwdy9JmAo3SNbIfQ9BUCRREnf4AkLbDxLd16ZhcFOn7y+FvCXLKDmkNAm0hd/+9rfKOCQTLViwQM0AJvOlL32pMjNSAm2AycYsePrpp1ULAM2RbJ6MxLVa+amtTTccoQ286EUv0ud+/OMfl29/+9t67g9/+EP55Cc/qZ+nQeKiiy6SU045RaUTgPKhD31IfvzjHyfrk6jlPpmhI5dWbdLy70XJpBp+OO/mf92iRAJR4+hEVWfsmDuvf/3r9TpADgY55JBDZcGCx2TatOlKZFf86Y9y3MtfJkOHDE3UWCQ7iVKgEWXjmdYrr7xSXvrSY2TixEnKkFdc8Qd51znvTJQ/t0c9rRcCIZVaa3eGknkAiCZbBd/FPffdK9OnTZMRw0coGKPlPfLIwzJjxkxdq8lTJqvpxLj3nTpVnn32WVXBYcyE4DO0PmhUhgDcrBJWgFN3yKqEs0K+Sdg1xbytrWYCuK8ATeLEE0/U8a5atVKL44waPVqzNzFBLIOzi/KrGhF+iwMOPEBT2svtOfLU9XL+CsbHvbWcoPZ47ZRf/+pX8s53vUvNqRUrzYfD2mGGsc41JA2GnbpPPvWkAikm0eZNm6VheIPSLeeXAEG+IDfceIOcfPLJJWtYTmD5Z8zFU2VAwrUFDc9HztPk/dKo4+dEjs5iZarUCJhAL87VvSaRDgsV8XDq/tMkk6nR/Q/ltAgGz2QzSdddd50CAM63//iP/1CCwDSA4DE7mGzMDZyQaAmo7BAkCwaQ+Dl8zrV8B6jEIOE2KWogz45B4kc/+pECE/auAlqhIH/729/kda8LKnv4LE04AJ11FTem9ZTkYvCGTMS8rFixUs2m2bNnK0hgo9544w1y5plFkCClGXUfbeeMM85QprzqL3+W153xGvULIKXIWJ1x0AzNBl23foOCxE03/lPnZvz4ceqQgvkfeOBBefHRRxVX1NXUkPyFJoGDzRoKeQf2UpC44Z83yqwZM1U9vuyyy1TTO+GE41VSbtvWqHUkRo4aFfqusoOVLFDb+OYqLtmBzPMRRx6hVcpL9wGFqE1Qg70BktnMUU8REQEkAIYTTjhBGeof//iHMpD6edaukQ3r1ym9IGBYd9t6XgoSmAJPL14ss2bOtE1w/nUqRFoWJJK1NXcGQIA5CGP+5Kc/lfeee66CBmBKX1fMhdGjRis92SY8U8vRvhjn6NFjZPRowKxKna6stR+ANpoS9MhennRXtO6AgrV/bMEjUX2LKLhAdmgo6uPCznw+tgaaH6MFmmyDnX7ntVTQPL0QbrmH9wgSZSLzMRPB8MNHj9FeF92BxAUXXCD777+/nH766Up8MBxSlUVEwwBEcFjCVGgGmCColYR70CYSwhJRxycv+KY3vUnVe9TJhsim8wlxR1ks+T1d2cd/xRVX6H3i94lDoH4thGe9PqN9/HFR1NBj1Oxw6wUKMyH5aL7zhje8QRfooYceVMagDLw57iw0+fNf/kJe9rJjSpamYdhwGTN6jNx5xx0ygerQwYfC+YAWQDpr1kzdpt3lCOYGgEbaNWPRTWBBe3BNAucZYeqr/3q1zJ0zWw444EAdJ1J45aqVMmf2bFm/YYPuGcFv5BER/AaAivsutG1d2ANhm59sTPqTHXTBz2XmRuQHSGkSaBquhXAuPiwAg7Vcu3aNPPHE40pHPJvvy4GEJhVRZiDUrkgwpAtIWGXzeO19PdzeB/xw7Cqwh9oddApjGz+aL/6R8ePGWap9CHtx7bKlS5V+t2zZKrfffrs+A/Nt4qRJCXMzZ9rxLamXWj4MnF7brVu2yIqVyy3CHSp6J2kD6byJqLiN30fpO8qnKXn/pU8vKDsKm7tylllxeFaovBg2iwfOQ/bbn/buVWVBoifVaUe/SyZnR2+Uut4dPxAnBABT2p6L1Ilxn8j0GApew8C891p7ILAOP0py7EPWn+VUmC8BWx6m8f0U5vPpqtF5TU8DHQOeYjjbtoYruPnuSW+X6KHSlKM6AVWtqGV2tmV72sub38OGYiBhY9JzdAenM14o3RflVxAyjZ2FaY1tZyxjOcAvKxi972v0ZXJtpJ2ksz5L75Vy9KsZVzysy1qQ5KmdqrHAUm0+mt8w0WXAvyBPPPGk1gVhHbRwT9AQnRfijVuJwCvG7Uvu6YDhZJXZEZDQrLluM9oKMmbceBnaYHkIA/1IawrlxusTzkICEJrjkbGSeCVHLyARkUtIVgs1FhI7MGxYCt2pzFNtanjshDQm7AoSfv+i+6/4xNIwuPkgbLdoaCSsHB9lxKZEiG4YA2BCrN23XCsAFdt9Wo+PJB3YanAas4WdemFIluQTStj5Z5EqnIy8Z3nVLXm5TR4yp4rmUHqSQv5AcbtAV6dmqXZR2os1HoBpZlED7C4gYWcnWqP7s2xzVImJUfLaSYJS6etiwphGx14ZMxuSzYLuRPf9VBE4613S85revc0pyxY/HpSBriFOf4nuV6DryhlmBHszKzJh4j5Sr86s7VzlAYYuEJ32utBCMTlT7dLv1meQYFpCCnSYNc1wSyR/6Q4XC5zEGX9FcCoHckXnVET6ZTPtQmd1B/yIUBJnYtAWtFxgtK/BVXFd9bDEXjTHt4CjSRTPK5WyPka3kf28+Lk7olk4VZfhBV21Eg2jG1rzeU/uoWvQEz33rEm4w0StgKiqVVrQBLROolQ6x96HNbAZCX04hhUMs6bleRKT7qIN5mSRFnrZEtETSBiyuSOjqCD0uECpiYoBwt7ByryPGz9BBg8Zqo1gdsZRxnG9M27b4z1M5bceGRr61DqYcU3BIO4DVRp4lIHGZA+LO+6s9oQtrAGAE4+tiUmkEvOhjARwU6JU2oVXCltvksuCRPd78rn16LCCN0UGJZu0WMNUnWhJI+JgJEWb16xviDtwLbPPMyhdstmLFgVSYpp4qrNx5E5bz57uFANcUbT5o6NJi8EktfGr3EC7mOBdtO0iBVuphDAjTgOpQSez5X1UQ+nHluZmdZYSkmWiyVrVKFVIi7f+JfaZ+4lMhbFRd9lkWQYg9Nqli4NPwi/0/RVRqK8vmkQaIGwQVDqyMm90eK6tGyT1g4ckcfTtlRC7EyTcRlQ1W5sLWyGc+ICpPDml6D0OJkIX6nMbHub3buCeCRfZ91Fj3yhkHda3Z2eWS76iduGMF1rbhcF7TQ8XEA6ExXejXoT3aTUppSOMtBEjctsKr28UknRw/tnzTYtIg0RxnqIScLGWFGs83Zq0vWCJA5j7S8LpRRwKOmCSQFScV4UyQ8yAWcVzjYd7XoPeUM4jhjo3oTiQCwitAVDEd/1NP6GAUOhji6DasmWT9V8NkQj3B+k6hiIziaZWxv+QCINuwMFD55kli9KOyzAF/QCJ7pyXWm0gSCbem2IvdfUkuBihVWs1qJzuqFSp7BWEAsoVuy9Zko+rTji5yIzj0KIshG/UoWe7DvGUW1HWfOLRVu82BWZC4xbrGG79Kpl41GhCeFovwosUhgQjSzQye4/JpxgNZoJ2yUbWBpBgHOo4ylonbq15SYGXTvOCV1db/UsrShM6c+fNXHGzxexZ10oKGou3DUUGIC7xu8T4XNWPM+siXTve4OPeb3+OE5kRjWkP3I6KWM10Pgu+BfXke0esqJaiAkAoie+1KLU5Tig5Z9WeQqEf3Q2aaMTFnIZIe7DEzqLzs3u/V3CUltE8EoedNktyDdl9PV2zLXtk6jja4vwb+xx6Q4TU93FKgYOEOXRsfJT4K5fnwdfQKqUEKRrkyOFr66FWB/virtuUahKkrEe1umgUataExDqGsmSR+SQcHM1EKMZQ+2JulNMirPeit5k3mxdiU698qFyV0XL41giG8vEdeWowWgk3s9Usk0wTsoKKzLPqauu1MQ8edtJtA0lZFSWYT6sWW9Yj6ceai6/FXo1BvYCu7idQxw6VmDo0H0GrZlVXaRUlLYXfmdMkHcKFZB9q2brA1G2tLVqSjf6hCoah5B5MQQtA0qbra+u0+Ioqd6G6PyDDvXRMlMyL1Fk30VQz0cK5bfo8dxBq1ysvdpOWsNHuxDgF180YX2ZvVafl/SDKIDFNTWVJALCMpn43tbVIPtTwNOnqxWltTNYkJzSs0VJ0tBegShcRDevYTsVuLWIbOnR7gh1LmjjYSlN2Q2GamLvKGA7JLtiu3+nUKCCVCj27o2fGlmoE6S3oFnkqvber7b6vpJ/4YI5J9xuo5hW1CwQoqHrVgxaVaHuhwVPi/3Oe9aS4qNFPF5dZVMHbtKVSCy+tUWaWLnq8oCXeYpWry5x3Y9kpI5aGQA2ViluTjeDsM2NokWotGpuXtpYWk/QQaif59VaWy/pM1OkCdeao9WjhNtcQeC+V7J1W8h5pCzHAzG5pIXk72tpDGboOaeto0w5SWgafUmsiKuXx9ihmUkSWrM3WZqkdNFglPgtGvUsOCF/j4qppWOi3vd3Kw9sWafa6mORnKsmSpPr1IGppaM1Dey7zAaOjLrJxCmmr5elCH9MYoJ3R/TPApwiMFhFwP4n34nD12LSDkCgTOqBZrgILYKXfHdy1HJtKDvxxFNHplLamFu3OlVeAtt4TzmDWG8PNDG/ea0BhrfG8qrU1U/Zit9qwiChHuNbNIvcNOA12UeTT6dNxzLmMD6PEN5vQtQGCaUvF9PmYgWJAKOvfNXwJmp/qdUX5GvnnEjOlGwTRCESk4rs2YWUZi+0AnbV8PpROtY+MVeOIo1AueJPs2sD8HumIHcHxsBwkSrSJ9B4RNAlXzfyhtliRrtodXKZAwgZoE8cLW2tlAwZX17m3qtzans5etqWpVdNkte4kHlo1E0KLO7YQ59gfEfpbqFpG3werdUk3ahjOTA2rPM2eBHumte+j8W5TS6NqMiQ0aUcsQEi7bFfpWEiZNhAimaZGWttbdDEAMS1ymzfNgrmyrdBW6l57amZqlOG1ojM8GNRrnkOpe41Z605HNCQDEs6xDuUU/DVfB9mS3uvSN7p58g/EYZuhDGS86RArZU2Ebb6c0dSkCSEx3sFqfdphcfoAEoEoyZvQlcsUpJlO4M10HtP6eMXIRCjwatLfelGoGUF/jVD703ptAAYABlqhdd8qNtQJ3cIj5laQiKNEqt0UiS6OgMTORgXP0OS5eHapWExrwsoUifMx2qCkb1taGKlL1MphUserHVsT4ETD8qOrb6eUgVyV18z04FRkTdB+tchQhFB6LyR/MKe1cjtAW6ZkXQwEsV9Co0zl/A6J3yWYsd3wuZobxZtb8dQ+HxFIlAIEksknEKaCuTqtY1S+IK20hdPGMUEdpbtUhxWMZd46g6kC46Fl0CTFzBKyG6vVhKDbFdK/vbO9pJkvDKEl8mtrVVMAcGDOFvbah2xdIzTUZMvyw78B49Hxu6FhmLX/E6pAA0y0BYS5s6GbuPkh2tFwKF/PEuatkY1ttqrSzUw0+2VlGYeV0ceUomeHmVJU+1ZfSiFjjXkpOFOV0RZ4AIMXxzVCNCD0kKIyeui45ZvfLNoimq2qZlLofJ74UkpMk5D5aMa/zjkMT0+S5lb6f7arWeEahDcf8l4UChChr4gl7hhYGBBY1yvAorrKTDd7X+vhaeeaM9MPX4/oA90U4Eex5F1RLU60juDNL17rHvhSiRwzsGtU5hsL5l7o/BZkdK8sAH3gc7MDOCnyTV9BgitNmIZ7BPAutTYc9ADOvFZqV80jKd4TwWO8xhqIQsO2fSzm4yn/WtqztgcfS+KTMKBAWsUv281cWaxL/yX2cdAieJaVL4sR0X6HCbDFrTiqSWm6UtUATNi6VaJt5XTrdaha3NFGt+2MVCGRQj/O9tAkF6YzjcIcl9yDe7KBBsmI5kBdAY1G0Jeio0M3IDU2bkvSfOkJoVpINitDBg/VQjK2Q84qRGNuaH/Q4G9QZq+lZkJonJNDK6ixztrK6JbtBpPrZqyODqmptj4Z6t+giakTFunRwZxRWzX02tAiKmpT0vzXOn/jtylqfGgjVp0aKaOVqquyUgcohmY9XjoO8wgA0p4lgZzVjAlOYu5A1eu2jnb1f2C+mc/Q6ED7Tnj16JAQpW381MdggKc+iSrrgO6dxREIuuZqJmJyhCa/oeFuTK+xdmBTo6Wzi3xfKuOLoXpbctWMEi3Jm5kqkpZJTdf7h/C0VcYvAStfm57zIJC8tkZFoIuehfDsIfgRX4eGp/TrLQmVb8rxnYc3A+OXC2HGl0W+CaWlFDDbNBT5t8SHlXp8AAljal7MVEm3V1NOG9CpkJdtW1q7xFhNYsWTFsAi7CxU/4La4q1SQKWv9rAYfS6MIY0qdXUTptDxRN7+Kpxi+BvoKO7bm0M1a2UyfAKFajUFVE3LZkPfCOtqlcBbYFBizHEfhYZh1AWgAS47D6ukOkuPTEDN9l+YSUP/CRFtb5HjZynBIDHRJAarT2KQjsU3znBuEi718QZJC0OSpKW+izAV5qvAkUoTY+snqtEOh5ok3TrK8AvGImaNlrhPZdmp/RpuwH23trYoqNrMF4I54s1wbMZ8a7ESWwG/EtqE9cxgnqzjt/kiTGuw+bLvrS2fAYAxaJJoldIoEgDV0Gk3QiqCD3X0qbMvfBicun5KsiU6faveb97bw7fve2g1NLYu4elUmLbk5j19Fzm9exyQd3pDeA2yRtfQkZnQTkwplPGkyMULHwt+FtsbYDsZ4wrNseczI/ff/4B8/GOfMq97uHl3810MY5XWycxouTcKtZQ6PeMhOmgoUwTUsopFpRAdI6BLpKzgWwi+jTh70VE7SgCKc9rNgWTefo2sqPQFdBC8NBQ2R6D+naVhcbWCB+aH0n9gAn0tIhchUqTvErRKQAawjJ11LlmSMGU0Eb6zNJE+UbJV2nbtIr4CQ5q2VySEtBNLQ8GpRUzSA8KLFSWjvUhJ7dlQ/t5Aprhxq0eijVwHXaSuTnQ3WkDqpjrPPYBJSUs8v9YTxvqQGLV9SNDTVaVJWjvj/kpLvd0ouF9OOPFEed/73iujRloZQjU3U20Ii7cyp0nm6aceKbjd6mhftPccBcym2bRpi5x22muEvW34AzTLqwyBlRtvMUwah596eLMSR0v31xQJPp6mELrqdeZKcmV6m+a+fZ+Mu+uYmU3thZnqwZG+cWJWhC8cTE09NFbs69Hlmr4QVHTz9Fj6+tzezjMHYh+Iu7cbVb7v9wy84oQT5dOf+k/bwu6yw7M+o7tZ+KIgmYVPPFygHBp/agaepxontQeKW5evuuqv8o0Lvp04Frmf5xoEgdPtgEt9zv1+rz5dEPw/em6ZannJPcpqV316QinG9gGDSu5qXh/U+X4+bHtO7wuO7I5xbM/Y+3tNb+860N6zt/H2xkz9nZ/U+fDG9df/w9LwQ5e2JG0haMRq7gafRebxBWgS5hPA8RTHS0m01TClqqJZ+elPfiY//enlkqmy/IiE2faUfbeDk7XbLg8I6VpPDGa7agw9gaQ/M6HVgcZE/ZmU0ihm2St3x3z3Z8h7fG3yBfnnDdcnjldLViy274xTIdQnuOCxh9TccMda/LKAhKZTq6fZQOJnP7s88TyHYme920P9mcG95NxdTbh9IcQXBFj0ASR4z1093/0h2z29Njz/BtUk3EoobiR0H4VFDIk4ZiXz2CMPqqvcnB+lseVMBs+6f9YNSBgIdTkSZ1xFy+jRBOsPcfX1XNP7iupBMQu/5zv0RQvu6xh213npdy0t71I6ioHwfgNhbRjDjddfFzQJ9zta1rU77C0sGyKQjz7yQME3TnnihU8tfSirNb5qLezLahLm3eiiTThIoIXovgetBVl6WHdry1Og1Bw1Lbf38MY95Z6zvffcmdelIwrpTMCd+SzuVVolMoQ2+/kQ1o08jvTYu7sN7+QSqEQjDdGknmLx/RxacroFaEvtpZ6Aoq/PgZ6oY0lBl3JHd++qWkuhoPQMLVoCYOn4dsba9PU9ujsPc0PDn6EFowY1oxR2i+yFqu+PPvJgwcJsXbOyAAk0Ca0yVCjIT39ySVdzoxuQOOusszReTu1KinpS3JOD6sl0sqK68le+8hW59NJLtWjG97//ffnwhz+cECTXehem+fPna98Fyu9TUJaDylDxcdJJJ2np+Z///OfJx5///Of12QAVlbD5/vzzz9fnX3zxxf2aZzIZKb/POPygdD2dvt71rnd1uRfv9+tf/1p7hXz5y1/WcvkxscAw9957r1YMp0kQDEkNybe+9a0lBXlf9apXldyb2o5UD6eEvh+eFBOfmCZEJd6uFQS6nQNaFfCujJ/cDT+Yd8ZJO4A3v/nNZa9nzJ4BSu3J1772tfKb3/xGmyNBR1rRS0SL2n7uc5/TnhTWaGeYfo+w4Hzm9xWveIX+fc4552gRZA6A6/e//73ObzmQ4Jw0UEBP1MBkDam0zb1csHA+vT2gFx/33Llz9f2+8IUvdHlHKrBTjJduab6mXq2dk/mMdaRxD7Va6ftCAWYqtp977rldALy/a9Mvwu3m5BtvuE4TDy3pO3Rxj7IybXNlqHTVE0jgkzCQsI1EP/vpZX0GCZCUyaJy9YUXXihnn312spUbdAUgqIwNUh933HFaAJdq1xw00Pnzn/+sJeeppA1YwERMMovxqU99Spmf81zKAUYsOn06OCifz7U0wGFRWfTjjz9eK0tTYZuS9lSg7uvBu/g4uIaeHPTmAPSo5s13ECAMBQhByIyFd4UJABmqb1PEldLuzCkMBwMAYNyfqt90pmLuAM6jjjpKvv71r8u0adO0Wxl+I+2Glc3qvHENAEWF7S65D914ivoiZbn/d7/7XS08DEjQ64SixRAN473vvvt0PilSDBP8v//3/5RpmFOqVfM751LAGKZg3WhP8O53v1uv/93vfqfjpT/FaaedpudTOPk973mPtj/gWt6Pf9AO60grhC996Uva+4O5hDa+8Y1vdAsSaaCANphHqmwjwP7+978rEAEEdOKC4RFAvBvzyjMYPzTJWAEs3oExXX311fq3axkUXQZQGSP346e3fIBGaBDF2v/zn//UDm3lAHxHgYKK5n/5y1+Ub/pyXHftNSGr19wJWokgpLjHGbC6x6pHkNCimua4ZOEu+dnlCUg4sWk4L27kE208+cEPfiDf/OY3VaOAaWiew31ouvOTn/xEqEqNlkA5fQiGDke02QO9P/KRj8h//ud/6oKmj49+9KPKNKRYI4Ho/kWzHioVO7N4CjZggnYBgb7lLW9RbQXm43MYnSYr/T0gfLp9odm4ecNYGAeMf+edd+otk2hGCCf/13/9V8IELnEAPdcWqHSNRoVmYWnZWdV+mBOkEdIbqQzxMlfMEYTBdX0FiXLvmgaOr371qwrA11xzjY6BnwCZP4M1BCR431tuuUVYj6uuukrHyRpQ/h5Q5z5Ib0AByc01gDQSm5YFCJCXv/zlCiTeCkFrNYqopgDzAkDQEYzHfAO82hFs+PBeQSJ+16qa6gQkYGTADboDwOn38s53vlOrPFGWn/cD8GFwgIvDi/9Cd6y9a7QICUAMQfTe975XrwHIYTRokO+4hmrv//u//6vfdwcSfVmb7mgVwQKgwgeAUm8m4tV/uUr5x3YtowiEXaUhi055nn1QRD4JgfqD44xBI2L9fzKuyy65RLUJtg+XxPq78TDDnP/zP/+TXE/fCRYAFAckIASaBCP1mWD6X0BUqOdve9vb9DNAIDYNIBxUUBaHg5Z+nI+W4CnAAAFIT4MfEJ3fMUe4t0qYsFUbIoEw4gNAQ8O5/PLLu6wHkwmBIoFgAAgNbcQjQ05gAAeL9MUvflEZHk2JA2kDE0A83ItWgwAVKjdSjjlZtWqVmhOAF4TF3MB8NA+iBD8gwTuhap933nnKnIwhJgpWbM7sOTq3v/rVr7q8x+233SYTvFdo6tvvXnSxXHTxRfLBD35Q55a2AYDrH/7wB1XFGR/ryjyhxTDnaD+ABQz/3//93yp9AYn3v//9SYMl2hwwL0ho3gPzE60LswYA4T6Ybqwv7wMwocFwD/7R/YpzvDEPTKvNmYKzzV8DiY3pgLkXH4xn+gH7ayl+QIIGQzAVIEBDpve9733aEwWasC3vVkOEMTK3aDHQBFoD1zP/fIcGzDMBPrq/OUjwbNaZ8QIS0Chzx5rvyMHaJy0XUzcCKABcnoNZ3RNQ/OPav+vGRfch9RRfyGzYsLbE6VviYkmBxPcv+p5897sXS55dmfHRDUgwkc7gMAVMgoqGFIEhsFEhRJgaexRAgcg+/elP62QDEqiVLIQfvDjnuQRHvWWBIWpemIWCwVgMJBVaA6osaioaCmozBABgfe1rXysLBFyDJE0fvAMMATMgHQEYz0jE9oYhIVBaC7rDyhcKc4ReCzfddJNqSF5zAUJ65StfqQyIqov6jbRFI2GxkQp0JIN5+NvNDdR2pCm2L+ZNGiQmTZwokydP0XuWe4/uCJWUdFoMfvC88+TmW25RpoHIYWx31gHctBRkHmHW17zmNQqYaBGsAT8BAUAEonUfBM9knVlfQIC1Y43QFOjMBpAzXsAdE4R3hdgxa2BO/DowMODgzOkpye68BJQBYvpsxoQ9qL5eZsyaKUcceaSavg4SaJg8DxqC6XkmB+vM+KFNf2+0GNYJuqHpEGvH96w3gIamx33webgmgQZ4ySWXKOBDG97hfnuBgjljvOUO6BwNGYAE1HpyFD+x4DHzQ4Zt5D1l8Wby8a4s/JnxzGqqZvGDCy+8QM7/xoVdvLXp6AYTjSqD6kwXb2cYkA4GBl2xPQERpB32FETPhCMZobobeQAAIABJREFUAQgmHZCACVCh/MA8QfWFUFBR8Tmg9uKnYGFQ+7CjMWmYML6HaHEioSEAEkhGFhgp3Z+D+2OrYyYh2ZwxMQnQbiBQpCCqKGDg/hGk5zve8Q5lKEwuVGe0BUAT5kISofZipmCzQlDMB74TVGwAhefCjHT3gtFw+PLOAG45c4OCDOax7tseiHgejj32WDnt9NNkzdq1Os8QPloeByCPXwXQ9feHydHWeGd35CGFARKYEV+LH/hYAEvGDbCjVdKcmd+hCd6T+/r8oqIDGDRkwqxh/ek4z3m8tz+vOwemP5fdwIcceqiMHD1KmRohAN1BE2iYNIdmbaAlDtaUZtL4H5zhoU1AEw2O9wXIWS/MKNYMQEdrZG1ZM8AROoRecLzCuMxJb6ZAf2jSzwVs0TIx2zHReEZPILFxw7rSLbA9PDQFEqVnpkM337jwfDn/gt5BAqTDlwATQyBIXCaOReBg4um1yYTDKKhqOPOQqIAL57KAgAQSBmeMjwVCYkFQg5E8MBiEx4TApDAR98dW515cD7Ij+ZHSoCwEgBYDsSOd+3pwP8aNlHTtBnDgffFeowXxO9oP0oz7I20BQtRcNAgIHWBAZeQazA2caTAmnzM+pIX3UgDMAFbOAxTQchgH4AHY8TkgWo7w+mP7xnOgc61cZ/L5mtABnWe45hQ/D5CgHynv6+vE2tMFDYDECesHtj9mJswDQGCS8U6YI2eeeaY6ENGM+BuwByQAJDROTDyeA72wpsx3ybjLhEP9e3qXwkR333OPOs1x9gLorAEMDRAh6f29GBPABbj7O7mfCCZkjAg/NBuEIq36YFToAjp3PxwAAe0BoKwbNL2zQQJARpiibcEffuw0kIgqzvTKKxdceL5c0AeQQGNggpkMbGkQlxeASZkoiANbFIcRC4D54J5smPeXv/ylOofQBACBmDBZFAgLtQ9VkfOQSiwqwET7P9RjpAwHmgWLB/JDtH5wHuNAw+jrQT9MAAyiRTVlLLFk9MVHK8AZyRhYQGxtmBkNA6njIVOYAAKCoQBJmB5A8e3NzA2+FzQynJS8a3yg9qON8Xma8HqTrL2/c1GD/MhHPioXfe/ibombccMcvI8zFIwH8AGiXl2cMTIfhH1hUPwBhFMxrwB1oiMwLWAByAL2+Kbw16CyI2wAWlR4TDDAs68MBw0ghLgnoEy7Pa4n4gBTQ7PQkTMW98esRFjFB2vDGJDY8cH6ITwAeQSfzwNCEp8KkRivHdLXMfe+RnYGIIX5TEidg2f39gzVJOzkXh+T2RUg4U/tabBpLaWnl4rv42juz+htMnqdgX6cYF5gi/T09lz/PpZC/XhUstj84iDp4OESvaf77ThIlN7dzc7tyVpMr3V63D3NJb4cK/Nn9S521pGmzb4w1s569kC4z4ABiYEwGTtzDOoki6r59HTv3kCkv+NygPLrHKi6Y8CdDRLJc/uxTb2/71g5f/fNwE4GiaLsuODCC/pkbuy+V939T9qTEicGhN5AaFeARH8yNnf/ylSe2J8Z2Lh+XVTXxKilu6MP5kZxU/gFF35jrweJ/izEnj7Xln3nFHapAMSeXs2d+/yNG217gx07ESS++a1vyde+9vVeQ6A793Uqd9tZM+DRjnIM75qHiYTt8TzsrFFW7rM7ZmCXgcSq1c/JnDkHd32HPu7p3x0vX3lGzzPQozM5XFqBiBc2FRGWfu65lTtTkyidMEKSt995Z+hJ+cKezMrbVWbgBTMDIfWFCNnSxUtkyJBBuw4kcJg98+wzcu0/ruvSXfsFM6GVF6nMwAtsBkiHmDR5smYg19fUpqrO77BPovxs9WXL8QtsniuvU5mBF8QMsPWitDXFLgIJZqu3MNwLYkYrL1GZgRfYDFgoPe152qEQ6AtshiqvU5mBvXwGPIO3r9PQhzyJvt6qcl5lBioz8HyYgQpIPB9WqTLGygzswRmogMQenPzKoysz8HyYgQEHEl78ouLkfD6QT2WML6QZ0O5bUXNsf7c9ChIxEHgNgXhbdW9bhl9IC1R5l8oMDIQZcJCIO/TtcZDQhh+FgiZaOSh4Sf6BMGmVMVRmYG+ZgRgMKGwU1zbpj8DeadENNAYHiHJdnPaWham8Z2UGBuIMeD2Scj1/exvvTgEJwCEuUdbbQyvfV2agMgO7dwZcc6D2Zjk/RU+j2SGQcLPC6wLG6k3FUbl7iaDytMoM9MjooaKa9xTZLeaGA4RrEAywP5WTKktamYHKDOyZGaAY8S4DiVhTABx2dnHSPTNlladWZuCFPwOAAho/moQ3hurrW/fL3HCQ4CcAsStayfd14JXzKjNQmYG+z8BuAwmGVM7M6PtQK2dWZqAyA3tiBnY7SMS9HffEC1eeWZmBygz0bwZ2K0hgYnhX7EoEo38LVTm7MgN7agZ2G0hUfBF7aokrz63MwI7NwG4FCe8Qvieb1OzYdFWurszA3jcDuw0kMDXwR/QnxtrTctBMlc7QdMg+/vjjtanusGHDkktovkpb+j/84Q9y0EEHyTe/+U1tuOs9MYmwcO2HP/xhWbduXdJp2ruX+42+9rWvaXfq+vp6bTXP38SKK0dlBvaWGdgjINHfnWTxYnDt+eefLxdffLF20/aD7sjf+ta3tN07reBp0w7zxwfdmc877zz9iO7OP/7xj0u+HzFihPzwhz/UbuQAGt2WV66MewyIAhLn0Dm6clRmYG+YgecdSMD473vf++Saa66RfffdV+gcjRmzbNkymTFjhgLEz3/+c/nKV74io0aN0n84S1etWqWMv3z5cl3XffbZR2g0MnnyZCEnfcOGDfoPcPnc5z6nAPLd735XWlpa5MADD9T9JevXr5etW7cq0Hz729/eG+ij8o6VGVDtf7ckU8XmxvZoEu7H+O1vf6umw+rVq+WGG26QefPmKQBMnTpVJk6cqABy9dVXy9KlS+XTn/60fPzjH5cVK1aodvDII4/IVVddJZgiH/3oR2X+/Ply7bXXChrEr371K/npT3+qv2NSnHvuufLwww8LGgrAhNbCc7/zne/I+9//fgUJN12cjoqVhLuvHtwbzVWiPr3N0N7zPXQHbWNGb9q0SaZPny4jR44sOwEILwSmb8LiJARbU1OTNDQ07NCk7TaQ6Esq9r///W/ZuHGjpn6++tWv1hdjcvh83Lhx6lOAce+55x6dgHe+850yduxYZWJAYsKECfKZz3xGtm3bpt+/7GUvk6OPPlo1AO734IMPyl//+lf1RcDsRx55pNx2222a5IXGwD8mhEV5yUteoqBywAEH6E+0EQCGZ77nPe9RkEh8E4WCZDs6JVvISYFuR15xvFz18Wi5OJejeH5W8lU1kq/afpDZIWqoXDxgZuCZZ56RK6+8UgUcfrL7779fNdo3velNMmnSJB2npxRAvzfeeKMceuihev5hhx0mra2tKkT5+0UvepEMHz5caXjatGkydOjQ5HpACP8cPjf4p9wxoEACXwN+BcyCxYsX68v85Cc/kc9+9rPK5Kj/aAvpA//CD37wA53EW265RbUBP5jA733ve3LhhReqOYGPwTUCJox7Nzc3KzgAQkwwE/a2t71NAQUgWLBggd7uS1/6kvzyl7+UD3zgAwoyBbpu5zsl98ijUvfsSikUtkm19jbNaGcCB4EiEGT0s6x+kS9t2V4QyWerJTd1msjsWVKorRswBFsZyO6fga9+9asqIL/whS8oPSPAXv/616vgwxzmWLRokZra48ePVzP7qKOOkjvuuEPe8IY36LXvete75PDDD1ftAv/a4MGD9XoEKwADOCAAGxsbVUOBtxDG6WNAgQSq0UknnaQSH5X+E5/4hDoKYVQm7cwzz+zyAjgw0R44B/OC3+MIyt///ned1IULF+qkwdxf/vKX9ScaC9exABxoFgAV2gfaCs9jstEemOif//xymTp1Px0L5kteqqSmpUkaL/6u1D/+sGSkQ/LZrHRO3k+ykpfOVSukNleQQiYjbXWDJTt2rLQ2bZVhmzZJVSEvnZKRKu3DXdQc2vebJtk3vUWq5s4rBZHdT6eVJ+7BGXj729+udPmjH/1IRo8erYLsNa95jbz0pS9VfxsHQuypp56S/fffX89B67311lsVTJ544gm55JJL1ETB3OAfWjpAwD3Wrl0rU6ZMkccee0xN9i1btqj2ASChdcTHbgMJUCveGt7d/F933XVy1lln6bkwKSoXL41GkQ49oll8/etfV/PitNNO00mJXxDnJkj8+OOPy3HHHaf3wNkJaAASMD5Ie8IJJ8jf/vY3efTRR+WVr3ylah04NnGErlmzpmSoaBt8zzX5TFbqt2yRlu+cL7VPL5RsQaRj9lxZPXyESL5dJtZkpXDH3ZKrqpKOw46Sppo6qRvRILV33S6tzdukesoUGSZ1UrPPJMm3tEnL/fdKdWdeOo57udS87g0iI0eVPNv9FcyN255pH0ZvOSgehqYk2e44IHRs5fjwMe9IOBym4b47co/d8f7b+wzokRA/Aouo3O9+9zs1jfnMI2t//vOfVTPmH9oDTA7/IATRLNDKcdTTwxNhy3fQ9Lvf/W4Fk2OPPVYwa/C3eeifAMAhhxyy50GiJ0K+88475ZOf/KQ88MADOlDsJHIZAIGZM2cmg8e8YPLwN5AH8etf/1pmzZqVEA1+B7QKfBioWhdccIG8/OUvF5jDQYLrLr/8ckVgvnc/w1/+8hcFDXIvUOcwT2BMAAkmYzygeaYKkNgkzd85X2oWL5GqgkjrhAmyrrpOZMZcmTpxjLT/5jJpzdZI9atfI6sam2TCjLnS8be/Sm78KKmdPVeqm9qk8fHHpK6lWWqefVbqO3PSPnKUZM96i2SPeonkq6qTdwbY8IcgQU4//XRdYOYHFZG8EcYG46A9AXYACVIGpxaOXgjkueeeUw0KldMP37bP+aie3BeJwhqghnp+CWCL3UtUiGfde++9qn0B3viFeAbgGpt7S5YsUWnmB6ABsWP6MUa+x95GgwTAcTrHuSo4jt1WxhmNRGTsmICsWwx2MAnaKFIV5oD4ebY7n5G6xxxzjA4FqYoD++CDD9Z5ig+0SO7N50hartndDmX8BzfddJM63hFk+Mhg9JgHEIqY5HfddZf6KhCCH/vYx9TkOPnkk/V3fBKs39lnn61CkDkGUPBX8F6YIHfffbf6LQBe1oU13OOaRHcgAbECBjC250DgH0AtQptwNQsUxA/BS2OPwTRMBAf3hhi++MUvKrPAQEQrzjjjDPU1cDhIHHHEEUqwHCRMoXVwPQCBr4L781zyIvgcICIqAtgAKvMPOUTqt25STaJ68RKpLuSkPVsrzePHSefRx8uQtlapvuYqaayukarTT5PWIUNlxLjJ0njFlbIh2yZT3vYOya3fKB3rNkjD8CGS/ffNUli2VAqZgjTNP0qqznqr1EyanKwXaiL/GBdoD0PzkzljbDAEwHfppZcmJhLAADPcd999Oo8QAQTIeU5wMACACuiilQEqEA+MD0h4DQGuA1QxA6+44gqdByI8SDIAhHEAVoSVeRYHnwPSfiCpIGqcb6wd64NJx+8wM0BNGNoPGNXXDekIkd9+++0KKn/6059UoHCgLmNfQ+z85D2YGwgfYAJYAHz8U6wtAMi9GD9j8UgVAAEooY4zLsYOaMKku/tA0P3zn/9ULYI5PeWUUxJ/BGPh/QFY1hhGZ87POeccNYdZIwCY98VXx/X4IXDwAxLMF+8FSDIv8B6gj3bBeg9YkIBYQT4GjFYA0RCK5J9LEAb/wQ9+UH7xi1/oeRAM0i0+iEIwWUwKE8b1Tmh9AQnABaaB2JhkpDcgAaC84hWvUEkH8JxCK3YFiQuk5unFUlVol9VDBsvQfFayU2dK/YuPluZfXyb5UaOlZeYsGbLyGclN2Ve2bNwiLfUig8buK/tOmCjrid4ceoh0/uXPkulolnymIM1zDpPqt5wtVfsYs3EgHSFmtBo3vZDq/H3ZZZephIcZMLNQMTkHxr3++uuViPgeAuHgnDe+8Y3q7fZ7Ew6GuQBCgAIi434QFLbsmDFjFIzIPAXICSHDgHjWWTfyRwAoGAtmTYME5yIdIXrGzLoAMDAs42DNHnroIQU1P5BqACPgwrWsCQCHzY7EhJEAbBiaMXEuWg60xLvAANAIjm+kLoIGBzRCCNMU7QNtxOcTbQhNBJDAN4a2w2cw2e48MA0IyUO/jI8kQYQCY8cM5714Pw60J+aTcbPOON/hHQDEhSyMD2Cj5bFuHNwDzRL/BVoFtOWRjwELEjD9i1/8YmUGiJQDwkaFfutb36o2FgSPJEDdhKjxNcT5CmgRH/nIRzTKgSPz85//vN6Dw1VGPuNe5TQJzsPcQKtAYmPfcZ8YJEBfQOKkk0+W+q2bgyaxWP0Ja170Ihlz5DGydf06GTqoXlruvVeqRjRI54SJUqirkWGTx8m6q/4mTZs2SfWhh8rUA2bLlr9cKcOPOVY6rvy9VEunbKmukpq3vk1qjz9V8lWWAk5yF5IcwoWhAE2kJHPGwrskQSIjqWFSxsw1zBUSGWJjDiAOrsG29ZYFOID5nPAvai2gwLwTZYLgkDpoKsw/IEFeCdoZwAmBYfZxQKzkquAMS4MEz4agAWHWGNsYIkZTe+1rX6umEZoEY0VqsoYwAkIAYAAk0A7wU6FteMo84wac8BOhCfCda5RoRGgrfIYJgXaEJsm6Mh8k2/G7H9AdjMK8wJRcz2exCbWrwYJ5Ym7Q1DAjoF80wFe96lWqLSAEOScu5MSYeGfowc0nb03h/JH+m2u8Un2cX5F+vz3iuOzO3ICgsXEhSI84MHj+ITnYi/GpT31KLrroIp0gCBSp7s4rZ2SkJ79jcmDTxU1+uBeIivrIwn/oQx/SSAp+B+6Leo0ah7qGVOOAsEBcoiOg85vf/GY1T0aPHSP1W4ogoUySzcuaocOlM98pE5vy0l6d0SiGZDpl/eChMrilSUa2tEv2pS+R5Us2yZiWtTK0tUUKUyZJ1eLFksnkpfCSo0XOfIsUxkyUfJQyATPwzowRaclYkN4QAdIOiR8fMADS380NfodJkd4AHYDsc0fIF+kKIxHNgcn5DmkGKKFBwZz8BEiYU5gHiYvZwnoQHuaZ+EsckNPmBr4A/A6MFdUWYIDBkY5oDTwTYr755psV+Fh3AAigwNxAXebnW97yFpWqgCf3QpvgYJ3wGXE+98KPxHrxHKQy1zhjMBaAIgYA7g3A8hnvABAzFt5pdx08F80BUACIva4kgA1dIsR25zGgQCJ+caQYiI7a73Yn3wMS3//+98s6kiBeiBv1spyjCWaCAZCaEDYqcgxYPBOiYoE8tRtGiHuBcA4OoS/995ckL3mpadwizd+5ULJLFktNrtC9t71QkHyhgDqjORSZjP4anV+QbCYj7SNGirz+TVJ/7InSmckmUwKAIqEBJxgTaUJIDG0AaQyAAnyuSnIhYAeDABLMCZKJ8eMVB1wBZD+YLw+HASQAI/OJxAdcULfRUJDkPA8pi6edSA+qLKYJIIaZGB8xSLgmAdNhYiClAR2S5WCGGCTQItAKAAkiTKjQMDAghGaAHwGNEZBwqYrajO8FcwcQZSwwFloI2hBhcPfDkGOAJgqgxBESfsepB8hAL8zb7gQInzuEFmAAreM7AazwxWEeIax25zFgQQIpAzHCsEg5P/AR4DQrd0B0SAzs1nIHL8uC4/SE+JFGMAQTD0OceOKJqlUgOSE8iBD1HlWPv7FhIWpXVXEwVne0y7o//lEGLVoqmVy7VKecPoxDEzAVHDwVM3wYJ1ZqMlVequfPkfqTXiWdgxvis1W7QtUkbo72wLvA/DAnDA9hQ0zuY+CRmBl4uWEyAANAQTphx8OQaA3xwTvGpls6VJlunIRWBnj5NeWA+emnn06eg4bAvMP87mRFkmN+sN4wvzM88w5oMV4kvjvnYBR8KbwLZgpzEWuK/j7O+K6Sp+mBz7ku7aTbnczX27MAc7YhYBazlvACpuDuPgYsSPRlIsrFyCHE3hbeiRlpgw+D1FSkTzr0wxjcOQozIM2QZPFBbmVVpxrjUtVJUpbqCaXD70uWdVAv8tU1ov8yVappBIjpy3QMyHMAYaR45Xj+zsDzFiR2JG69qxJwyo0plmiQCX/39PxYeu/IOz5/SbIy8oE2A897kNhVDL+rF6rcuCugsKtnvXL/7ZmB5y1IbM/LVq6pzEBlBvo/AxWQ6P+cVa6ozMBeNQMVkNirlrvyspUZ6P8MVECi/3NWuaIyA3vVDFRAYjuWu5eCU/26Y1KVSkMfz/eAZ79evXLy82QGXjAgkQ41Pk/mv1i6rgISz5cl2+vGOaBAIpPJSa6tQ6pr6jVvOZPrlELW8pez+awUqmpCFSfSn9ulkO201KVCVrJ5agIUJJ/JhZznKsmQ5cjl5EBrObmcplLXci9qQhVEspKRzpD9XNOZEcl3SovkJFtTo9/5kc2TEWl/kTnJTk3K0HFOlEeZnF/ozEuhOisdPDuflWopSHWBknXFjTmam/28T5fa63hmr3vhAQUSNfmcLLn7QRm772QZ2tAg+RXPSM2wIZrN2Nael+zUKSI11dK2uVEym7dJzaSxInU1UrOpVTK5NpFCp3TmOyQ7YpTkmjukqq1DWvPtkhk5XDfy5CkblxFp7uiQ+vGjJb+5TaQmK/narORa26UmL1JYtVKeeW65jJ9/iAweO14kk5Xq1lbJtBYkN3yQdLa3SmHbZqnOtUlh8FDJDB0lmUxWQSM52tpk46JnZOz0fSTT0SGFjnapHjxUJFMl0t4o0tEmUjtI2tpzks9mpGbECK1yFdfE3OsosfLCA3YGBhRIZCUnNdta5b7rr5fJU/aRIWtXS9WgWsnn26UpV5D6eQfLoHFjZeVt98ii2+6QF73nbBk2cZIUWjokm+uU3NYNsv7hR2X47INlw9IlMnLSeFm7ZJGM2G+6VOUL0rh+vUyaNUMevPZfMu/0k1TKr3nsERk7dpxsWblaslUFya1aLvlMrQyZc7A0zKUgba1su/VuGTZ1qlRNmiibli2W5sVLZeT4sdLe2iJDDpotVcNHSiGDlmBaRtOyZ2XDEwtk1H77SUfjNqnt6JRRB82QTH2dtDy3XNqeWyND9pkoKx5fJPlMXqadfIrkquoqIDFg2WTvHtiAAomM5KTj2RVSO6JBNi1dLQ2tjdLWukUyNRnJ1wySmilTpWrUKKmSjPz7V7+Qw155qgybOFnaqkWqO6skv3KFLHvwIRkycbysX7ZM5p15puRXr5bqtja57/rrZO7rzpCaceOkZuUK2bZurRSmHyDrH31Ipk6cTOEKydVUydoFT8jgcRNk9AHTpL2uRjqfXSELrrpa5rz1DVI3cqzkVq6Q1qZOGXzQfrLwmr/JiANnyehZVF4KmkRnXpbecZcMyuZkSMMwWfHUIpk+eZIM3meqVI8cJc899pA0L18h0085VVY9/JjkpFUmH3Os5DOYUpWjMgMDbwYGFEgghVuWPCXDBg2TVatWykipktzG1VI7bJi0VGclO3qCjNh3uvoYbr30ZzLvVSfLoCmTrXx9e0Ga7r5bRs2YKZsbt8raxx6V0RMnSfua5TJy+oGydd1mae1ok5FjJ0nbkodlxBEvkY5ho2Xr0qdkfE2drF+9Vpo7mmTT+g2Sy4nMffWpMmjYSHnmsktl0rz50j50kLRnCjK6YZTkaoaIjB8lC678o4w+aLaMPfjgou+iIFLT1Cy5TetlycKFsmXrFpk9Y6YMmTxFhHqVW9fTTERkvwNk0b9vlpr6Opl0/IlSkOK28IFHJpUR7c0zMMBAokpqGzdLtqMgN/zmUpk/91BZv/ApGT1hgmxpbxMZN0b2P+ZYjRXeeuklJSCRbWqTRVdfI7Pf8Frp7CxI04oV0rxooWSatsiII18ig8aMkRUPPigNLe2yedUimXzWOdK4cYM8e+ftMvvAA2Rra7tsadosW5c9I7WDh8i0E0+Q+kK9rLntJhl3wqulaeMzsvTm6+Xg406WjmyNZCZPlkev+pOMPWhmF5DING6VJfffLUNHjpSWrY1S1d4h42fOklaesWqZ1Ddvk7FzDpOFDzwgtfX1MvWEV0hndWldwb2ZKCvvPrBmYECBBLGGzXfeJ+NmHSD/+tWlMmnaATK0YZi0bdoq1XX1khs2WKYe/WLJFFyTOCXRJDqfWCyFTIfUzpil/TBqc3nZ9NB9UlNXJw0zZ0uhJiNVbW3y8O+ukNmnnioycoJkt62RjU8vlKpcRtqyNbJlw3rJrVgu+x01X1a05OWA6QfJpkfvl5HHnSQt61fKE9f9WWa86FjZtnGLTDnqKHnmjjtl6NRpMoz6E2FdiXjk21tk07KnZPSosdK0tVnytOvJVktHoSAdnR1Su20zsQ5pr6+WqkJBqkeMlobdXENxYJFhZTQDeQYGFEhkCwW59dJfyrFvPkNuveQXcthrTpXaoUOks6lZ1i1fJc25vBx03Mu0pNtNP/+FvOikE2XI5AlC5PLen/5Sjn3bWdI6aIiGPrcuWyUtz62U8bP21+gBBWLWLHhKMi1NMuaQw6TQ0SnbFi2UbE2nrFm+WqbMnSfP3POADB1SI4RA1q3fIjNPPVXyTz4hC55YKA1jh8vkmdOlbshIefbBB6V12xaZNGOGNBw4W6Te+koQDCXIgTOSln+Ztk4Ns1bX1UlHW7uW4Ce0Ku3t0trcLnUNRDxEmltapX5IaW+KgUw0lbHtXTMwoEACqdq0fJUMnThamtetl8ETx0uHdEpth0jnlkZpr65Sx2VB8tK4br0MHd4gmVpz+DWuekZGjt9POrPY9gXpbG6VTD4vtUPqkzyJNlT/IXWSzVZr7kVnYxNeD2nvzEldwxhp27RZqmszUiBsme+UwqhxUt3RIc3rNmqUZfCo4eqfbGtslI6WZqkdPlKygyioYvkOGVr3tbfLs/feJ5lCXrKdxd5csVNSz6aWpaZQFKR26FCZMO+ISsbl3sV7z5sj2N3JAAAgAElEQVS3HVAggRTWBCjjc5PNmcBoJCJpPkJIcOpSAIryUMGu136cdsQp1FxC4lRN3sKVltoAs3IWyVXuPuSZBekkr4FvyJ+AoalnG+7bXSQik6dDT6u9QF/CFdyTWpb1gFnfLnneUFdloC+IGRhQINGXGQ3Y0ZdTS84BEDxZKauZj6lDv3SNwL6LebyS6NTvKa9c8AKZgb0SJDAFupSdjECi3Nr2ByTwkfT3UIiKNKD+Xl85vzIDu2oG9hqQ8Al0E2NXgsSuWqzKfSszsCdmoAISPus7UZPYEwtZeWZlBnbVDDyvQaJcT4XOzrzkch1Ja7/0xJkmYY7J0qNnr6HvJN1VC1G5b2UGepoBGLWvhZK76zWyvTM8IEGC5q80y0m3hHdn4k3/ukm7Mt11193aTXzmzBnJ+9PE5oEHHpTXve51UijktXXd008vlsefeFw7UU+aOJHUJstp6EP44aEHH5JDDj1kj6VNpxvk9HWh6RNC1ycaCiXKUqGg7RNpphM3UPbvmSt6ZLBjNn3QYJhmQOUIlYZINAHygx6qNOWh2xcdwzj4GY/Fz2WMS5cu1aa1dBijWxjd0+j96r1LeSZtDOkqxgFt0IiIhkSsaTk6KTdPEDu0Ve4daQ9ItzH6hHB4K0U6fjF2GgrRmImWgjQYolESn8XNjbmOHq2MvS8HY6FLXbn5jq+n0xj9Vpm/9PzzNx3R6FZGH1h6p/7xj3/ULl87q5L8gAIJCPsHP/iBNsRhsQ4//HDtik0vSDpGK5qKyPe//z158dFHa0PfKfvso125Dj/sMPn9738v9917nxLdqaeeIlOm7CMbN23UlnStbW3y5rPOUuLi6Mzl5JGHH5JFTy2UE1/xCvnnjf+UhaRxh9U5973nyqSJk+SVr3qldpjalXsraChEtyrautF6j07WHMwHjXkhSpoWe+PjmOnpl0l7erpme5Peyy+/XNvbcT3vS5crGhBBbMwlhMUz6AcKYPzmN7/ROaOjFdfQqIjuZjFB0tAXBmYNaLFH42CAgTZ4ECf34ICZ6bkJ0/E9XdU4h8a3NPRNH3Tkot8oHbpokguB022MVoq0DeQA8P9/e+cBJlWRteGvezIDDDkjqCgqBoIopkXXhOF3dw1rWjGsuOaMCTOYMyYwZzGtOaAYMIGuCiYERJAsQfIMEzr8z3u6a7i0PdPdMz3QYF+eeZjpvrdu1alzvhOq6hzKAlLFyr0foaGSF9XceAefMxb+/9///mf1TqkKhrBzAXK0AW/x42qeuv6gXCgSTT+gEzU3KfJEJTHKKVJ2j7mgmtjDDz9sFcQo7gTPUQGOKmpUumeeKEjsLsYHHXfZZZdqMKAqF5XXoDVzj4DHAguV1ylLyMUYqS5H1XDaoo9HHnmkfYdc8D2fwx+AGPNP9TloQaU0CjxzUXAZoKHIVCoAklEggZBQuu20004zJmPwCABFcmEkNA0XkwgC99mxj1aVlqlL5876+6H/0BNPPKkHHhipgw86WFOmTDamXLZ8hf76171MIPLyIxW6bSNVMKhfpk7VrJmzrHLXrbfepoKCfPXp09uqWbdo0VJDh16rdu3aq7RsVYOBBJP766+/WpVztDya6I477rBuUtIPoWPsaFq+817jxo2zIr5oNOqEwmiMC3B15e8oi/j0009b/VAK+sLwFEJGoKAzNTEpqkzhZGgK8wIod95551ol/wAJBOChhx6yvp5zzjlWUpGygtTodIxP8V8K3CLEaGzqrmJVIFiAj7eMIGNBEAAH7qPuKmNHG9I32qJvCAilFvkehkWzP//889ZHSkBiSTC/hx12mAkehZ+5l3KO0Iyyj9Bj4MCBJiTwFuOmgrkrxss80Nbhhx9uNU4RKP4HXHbaaScDcerS0gb1RrkfYKUf1JSlkDHgdNJJJxnYcNHnG264wb5jPPQT0GBM9Af6MPdYI/QZUHLCy1igF2AEH0B/yiDyThQA7+WiUDKg7YpGe4Gdz7CEULSMl3mDloxxgwWJMWPG6NJLL9Xo0aNNU1177bVmAjJRIDbFabkADoSGYrhDhgwxYIHgRx9zjCFr1027atmSpdpzr71M8HJzc9SoqJE6dOpoCAtjQMyffpykN994XYf83yG6//4R+stfdjcCovlOPfU0jR79jrbYorteeul5Pf7Ek+rbdyedd/751X2gT0wEwoOwgP4U1kUo+XzQoEFWeBbtjZah4C7Vs9H63tJ3mPmME2bhHpifC2aEATCpAYRYkMDCwASnbRgZkMAagD6YxrRLEWG0IBdCBwNDZ95FvymYS38QVC4sONpFW3kZCSaFZlQyp03+52/cPjQcIIEVQJ1Uxox2RPPTP8AHtxATHZq4Cw2MlYYw9u/f30xkBAkhwirCUgBsGM+jjz5qj7k+MU+nnHKKKRKEhp/rrrvOAJ55oW4m1cG5KBJNPyk2TftYAAgnWtYrmIAECoNxMA+ff/65gY3TzPSfeUVpYRkAmLwDCwsAQWChMcDNRfV0+kN9WVd3lX7vv//+1XTA3cKKcfT2ggTWF3SDZvAtQAjgUSwakADskReACUuG7xibAwqsKOaWNuERSloy3+3atVtL2ST6I6MsCRgUBsTnhMFBYQYJSDDBTAyfI2hoT4QCDYgAYUJCtG8mTtDrr76mK664wtBz6bJl6tqli956520de+y/tMsu/YwxEKbPPvlUd955h64fdp3uu3+E9thjd+233766aPBgVVZVavhdw9W+fQfddNONat+hve65+16df8H5tvMT8xrhxZVB6HCTqHCNlYNWnDx5snAF+B0fG01OsVf+xhxlwr1CyMRiZsOADiSYPPqKwMGwsSDhJhdhp5p4rMkKkGKWUiAYM/Smm24yukHnK6+80r7D6qD/uAx8jklNvdN+/fqZULuL8dAGF8BLFXPmhKtZs2YmhIyRCvAUuMXVgLGHDh1qJj9mO2NAY7oLqwfLBSGgqjhzgjYmlgEIATzQCKDBtQSEMZVpH/phyeBW4EYgkPQHwUXo0MAALPwDADEHW2yxhVkaCDIgTTteMAQk4C36DNCj9eG3N954w2jLGHHfAA36yOe8HzMfQKdvxBmYd6wVrCIAhO+5n35wD8BI3wAIhBfrBnpjcTieoB/MO8oHmuFy8T30wjIDJKg4DiijJJk7eNDNETTmeYoOYwVhUfJ+rJ7dd9/d5CzZK6NAApMZrcP/MAwmGkEZiAqDXHPNNaZRAAsEEk2FYCEg+IoQobSsTCtXrDDTDPQ+8uij1Lt3Hz3+2KM65+xzTBi4QuGQPvn4E9115526/rphuvqaazRu3Bdq17aNDjhwgGm1rl26qri4iebPn2v3P/zwI1qxfLnate+gOXPnmrA7/55+wTxMIoIGk19//fVm6YD29BUhx31Ac6JdvMFDxstYsGLSARIIA4yHMPM/LgHWGZoE8EAI0H4wP8KAIKM1YTrGgDvh3Dvoxdicj4wFQNAQ6wJBR9vRDloWYGCsCBPgw1wRM6BtQMcLErTLnMLcWGBoYgQHoMGCQOvDD5jJ0AaLDAFEMWA50R7C+PHHHxu4wvzwBWMACGjz5JNPNreTvx1I8D2ggyVKv51gHnfccRZfwIqA77C2AB9cD+YE3qENwAuQQQABcWjHZwg2Aon1AL1xn4nPYOEwHr7HyoJ28CcKhr5gBZ1xxhnmCriLexknoAJ4cR/8DF898MADBhKA5+DBg63yOgoLGsNH7gKcACNoB0BjmUNbgBMXJNkro0ACTYtQMalMFgRFs8AATBbaD7CA6UF7Jg2/ku8IzmBOIawwEkRFGFq0ammoOfL+Ecb4TI6BRChkwhEBiaHmbuy008469NC/Ky8v34JMMH1RUbFKy1aqdNUqPf/8C/aOLl03s4AoQgaT0G/iBggS/jQMxWTCINwD4zKRAziiLpm7w4/3oj+YuUxmOkACkxLtgcnOhQnMeGkbQUQgYBjoiLYjXsGFxcBnmOswHheWGia8W10goMhnMDUgCQ24lzkAJDDB0XwAiDcGgdADjM4cxvKANjA9bgN9gKGxEPgbcCD+QH+wKtG4+OnML+4R2pn4CeY3YMFzCBfCAUjybkAIK4a+I9TQHe0PfwBguCIOJOg/pjsWCXPRvn17CyTjHgCuuCK0CQ/yDmjK5ygpeAA+RLHBg4DSpZdeovx8+lIpvz/HBBuQhN5YENAB4KUvxDocf0BzYhJYgNAWWXBBa/gEMOR5LDgCrAAQY2K+sWTcBa1QBtAAesLTFRXlys3NMxcOAErmyiiQQJPAMEwmKMwkgOoQH4Z2zI0AQCSIAGG22KKbZs2abQwK6sJsMMsll16qSy+71FDzrjvurBUkRowYqT322EOHH3F4Nd38Pi9IlBqhAZ4devbWvffda+1h2mI50GeCc2gHzEwHEjA9jIFAEKziGRAd7eu9YBjary9I0A7BKoAWweJCONGGxHRYNYCmuB2YqZik+Oa4HQgjwg/YIaBoa3cBMJjbCC3anQvGhPHQnggJ72EOYGLcB5jLCSDMi8WAICB4XLgtPA+QoRwQYOaUPtAXxsH8vvbaa0YzgACBAXwQcIKwCDluFO8kDuMurDy0KK4Mggag4EbRB4AQwQTEaYM+YglAL8bEO7AkiXlg1QJkuK/MDyDBc1gvzsQHJABJFAi8iWKDFk64iLHAW9DExXGIIWBpwie0D71RfvEu4hgIOs/wPLyGkONuIBcoQRdjYR4AFMCTFSrm2XthwW7QlgSDAaXRdvicTCj+F4wCYmJuwdi4H0woEw2y4lfil0MUTGCCgHw//O7h6r7VVrYUNuL+ETr1P/9R69atjWYQGwI++ugjGnzBBRZjsOXHAyPLj1yAxNZb99CPk75XWWmZ3nzrTc2Y/qsuvuQSfRb1r0FzGBwtg1UD48BQmLOY+kSmCSbhE7v1axgTEzwWJNwyHc+7y2lpnnXCGctICAkCxdgRJJiKyLq78L0BMkxo+ogZDuMi9FzQECGE8QALTFjucRe0QsvyOW3wHVYETA8gojmx8rDSaAdhwZrA0kOosDzQmATWUAJuDlz7tA2zAxooCgQVJQFNuRAAPmOMCDpjBBxQBpjpADBAwly4i2AtAkvcxe23IB7EPANE8At8w4UwAwzch3Aj0PAg1hZKgTkFRABDrFvGgTWAOwW9ACBcDp5FkTG3zsqifXiR5wBIt1QLneBjnscdBdBqWnHge+QA4KIvzJOjNYFowJxgM9YL73f8jTtGH72Xs9RRIsmucGSUJRHL/PyNZoZB0HgwK34i/iARdS6YA1OeCcInwzXB7EQ7sjeisKjIhPTHH3/Qtj16qCiaICbeu7KfxacAAoR2RxgALYSW+QAwYDbojnnv4j0AAkxNDAGtj2ZD4PHnEdzYDUEwMqsZrGoh1LGuWGyvAB4CisR4eG+8++Nt+kp2frH+2HtDu4yXizES9+KdtA1Y8R0gglJyoMz3kQ1+WyX7uoT3AeJYLix/ukA2rgK/YxVCU4CYgD+/Qx/mjPiWN86R8EU13JDxIOH6HbsSkMyAY09urlVSL5kGsvfUSgGEJVYb8Tef1/Sd03Leht0z7rtkNVxs59xz9QGITJxyN5660qW+Y9pgQCLVgcbLO5EFiVSpWLf7EzHzxibEdaPShvPURgkSNeV+yILEumPMmoAiCxDrbg7S9aYNHiRimdFM3RqSvmRBIl1sk23nz0SBjQ4kQrWc7MyCxJ+JtbNjTRcFNniQcEEyCGJWBVXIa4rSJpOYNl2UzbaTpcBGQoGMAwk6xBIa+wrY8cZmFm++AL5nowzbXr0A4eaDZSv2C1w2ZIh9f/2NN9jhrtKyUr315pvV68isqQ+95lpbE89eWQpkKVAzBTIOJNjOyzZaNhRxopM1aDaJcLjFWQtspOE+txefQbBmzA/74DlkxW60W269VRMmTtRll11qB2XKyyuq1+j9fp8aN4okWEkUjc8yUJYCf2YKZBRIsAONHXQAAxumONnJnns26ThB5n9Agq2lbD1lww6767Au2ODCJh+2z3Jw56tvvrbdll27bmq74HJyYovyAi7Rz7KZqv/McpAdey0UyCiQYPceB4vYDuuSaNBBzgu4Y9IOJLiHnZXsLGPbMceFAQKOhwMSbIlevmKFLrjwQh1wwADbwst2Wq75v/2mdm3bqWfPHarP/hPvrEMm/CxzZSmw0VMgo0CCwymcmiQXAVupsQLYq84BLc4neN0NTs2xFZaj1+xt50AQZxtwQThtx7kOlz8BS4P97QyWn2YtmmvhwkW27TYUovJXpBJPFiQ2en7PDrAOFMgokODYLcFGTsRxpJhzGxyQWrBggQm8E3LcDU79cT6Dvfsc7AIkXI4AQILjvZx8dIeTOLzlXJZmLVpo8eJFa6dSy4JEHdgn+8ifgQIZBRIc3iKWwJl+TigCEhwX53dOCXpBglN4WBucHAQIOEjESTqsEHIfcHKUmAVHyjnG644nM6nNW7bMgsSfgbuzY0wLBTIKJBgRoMB5fJf5mJNtBCk53ut1NwhsEpNwl1sOBWgIeBKT4Egxx5gdSPA76b2uGXqtuSprrWpkLYm0MFS2kY2PAhkHEpCYo7GkQCNgCRB4hZnfWQUhcUi8pUuWQQEUEpBgieCCkO+QPRcOJPy5OZZRyHtld2NufMydHVF6KJCRIJFoaPGOIdf0TE33rnVKNGtFJCJ59vs/MQU2SJBI13xVHwTLgkS6SJptZyOkwJ8aJDbC+cwOKUuBtFMgCxJpJ2m2wSwFNi4KZEFi45rP7GiyFEg7BbIgkXaSZhvMUmDjokAWJDau+cyOJkuBtFMgCxJpJ2m2wSwFNi4KZEFi45rP7GiyFEg7BbIgkXaSZhvMUmDjokAWJDau+cyOJkuBtFMgCxJpJ2m2wSwFNi4KZCBIcKoiXvoXPsumu9642C87mg2BAhkGEg4comDgI2tUWApTtNUv+QJSmJyU2RxSGwJzZfu4cVAgs0DCVyFxZjuUHwWFKg6OS8qRwrnR3wGILEhsHOyXHcWGQIH1DhIRcQ8rUDFbqxe/oGBgmVp2/rcU+FVLZo1WuLCrmnUeqHC4kYeeYd1+++365z//qU6dOtnn/fv319ixY+138lGQR4JsVZRov+6663TYYYdVl4MnKQ0p7kh7R/r+L7/8Uqeeeupa88Xf119/vWXg5lnK0Tf0RaYt0vGRIZykOOTrdAmA3bu5Z/r06TaWeNWmGcsOO+yggoKCtbrrcm9AG36WLl1qiYPJ2cF3lKnfbbfd4g6RjOQk+eHet956SwMGDKhO/Uci4pUrV9r30JuSBq1btxZ1Tbif5EE8c+CBB9p7+eEzfuJd7h5vrRXvfTNnzhRZyXgfCYoOPfTQhNNC7hFSHZLTNHulToGMAYlc/2JVzL1LgfKZCjbdT8GKOSoo/1q+4r2U1+6kKEhErIgrrhiiZ555Wo0aFeu550bp7LPP1q+//qpevXpZ+rsZM2bo/vvvV5s2bUzIpk+foTZtWptQvPLKKyZcd911l3332GOPGUMvW7bM2jn22GM1fPhwjR8/3p6fM2eOCRTZrUjbX58LYvPuc8891+qKNG/e3JpDYGbPnq2vvvrKhOmTTz6p7tP2229v/SDxL0l0ysrKLC0fyXh4jvojZA5///33rRQBQLnzzjtbDRIEg+/J0MX3/A1tqEGyyy672LvpE8BDDtFTTjlFF154oSUe5j2kEZw7d64+/PBDE0zyjt544432vj59+qh79+5GJ8ZDEh+ylkNPAJvfAViuM88808ZLCsIjjzzSgALhhhavvvqqtttuO+s3fT355JMNwOOBBGBD5jEAEtoBXowLZdGzZ09NmTLFEguRQBk6AloAKveQUBl6MVZAv1u3bvWZyo3mWWiELJx++uk2v/Gu9Q4SxqgIiq9c4bLP5V/5kVavXCDlhdSo2VYKFw1QIG/riMsRdTNg4FdfeUWNmzTRrrvuaowGU7Zs2VJFhYUaN368WRqDL7xQO/frp6HXXqu///0f6t59S2Pca4cO1U8//WiZuSf9+JOWLF0iKgQefvjh6tixozEdgEH2bcAHgYDReU9dL7QtjMqFoDEpJSUlJqQwPJOFVYMmRhDQeoxtk002saxaCD0WBiBHPylchGAAcFwrVqywfJ8jR440CwkAvOGGG3THHXeYUFZUVNh9CDwpAQESChPR7rhx46yYEeUMxowZo3//+9+WGewf//iHARPvojgS77rooossNeCLL75o+UQ//fRTA1AsIBIWU86APmPNIIiM6eKLL7bnKJoEzRFcEhlDj1GjRlkmMVIWkqYQkKLteJYG8w59GCvzQsYx6Lftttua5eSypwOiBx98sLUJQGLZAKqMlc+whLJXhAJffPGFKSDq1Tz44INGq9grA0DCJ184LL9vmSrn36U8rIe8TRXUfIUqAwqV/F15LY5V2JdX3XcYGSFggG3btNW5552rXfr1U2FRkTHsdttuq0svu8xK+AWqAhr78Vi1aN5cxY0b64EHHtCwoUNNW5951llW+AcBhvHQ2H/ZY3cNPH5gtZmPkLRr185qdvDeul5vvPGGCRQCu3DhQhOqzp07G3qjPQEktDZmNBYPWvKnn34ytwmA4nO0JNqWiUSDUw4RQEPoMb3p48cff1wNAIwLsGQM3MvFc7SF9saiAKB++OEHDR48WNdcc41efvllsyAcSJBxnL4fccQRRiNojiXx2muvGYjgunEvAgvQ0R4WwrvvvmtgtmTJEvsf8KL2CeUPHEhwH0mLAbvPP//crIxzzjnHLA6X05Q2+QE0AQksDH4fNGiQjQ1aAQ7MHRf1VxxIQGtoipUIeNEPLCJ+sq7HGk5+6qmnTKEA7CSQRtl6r/UOEuZAhMPKqZyo0ILbFchtr9yWx6oysEC+RaOUk9NUuR0uU1VOu6glETamhLHRTFdcfrluvOkm7b333pb38sorrzTTnTgETN3/L38xDVi2erUJJMx+3nnnRTRjSYkeefRRlZWW2uLqMUcfrVNPO1WPPPKwuRgwH9oOMx1Gvfbaa+tdEpA+Ys0gMOeff761R9u4AWg5TGE+Q7DR/mh7BA+NCJAgsNQncTEExoj5jYbF0qBdTHlAFMsHetAOZjYXZj2gguXFRZtYBrTDu9DgPA99qalKm19//bUJLUKNpfXss89avRMsBQQO4OB72nAJhuk/7svTTz9tAEXsiO8AAUCiX79+BpQIMbELrBlcIMACsBs2bJj1D2DAQoJx+Zy/ATlcP374nTly7pMXJBgzcSWADCCCroyvR48eloE9e0UoQHJoFAMWLK4HFmxGgQQuhD8ckq/iG2nhnVJxD/maHSmfL6jymTcpz1+o3I4XqzJ3k2qQmDhhglatKtUHH36gf/3rX6ZtYXAYbciQISZwTz35pFauWmWmFFqZe/rtvLP67bKLMR2p9g844AANv2u4tt1uW03+6Sftuttu2n333bRw4QLT+MQj0EouHT8MSTCxrhftIdwAGgWRHUjQHxgdYQLQALP33nvPGBkAQQB4N64Cgok2pR3MZgSAZ9D4PM9z+OS0wb1YCzyLAHPxHCCB0HBhJSGkaBJiC7gHfAa9MP+Jc/AM7gntAZ4ALJoZwMVSANx4Bz8IM2AyevRo09y4AQgz7RMbIJAMSKC1uM+NHeHlb8aDW+DNhO7oDfijGAAXgIrgMuMkhsFPrCXB31dddZXFmZg3QIL26a8DlbrO5cbyHAoEV5M4HK4eVmtsgun1bklAbJ/Cyg0tVNVvdytYPl0FTbeVYJjl/5Ov6d7ytT5RIV+TyLKowma2o6nQypjqmKxMPprqvHPP1Y+TJunZZ55Rh44dTRsCHjA1DNOnd2+7l2LCmKrNmzVXj217WJVy3BPM5rlz5ygYCGjBgoWaO2+OxSS40M74v9ZnghgpXAQlESgX0HvooYcs1oBg4Z/TJ7Q3mhLBAuiYQISAIBxuBH9j4qPF8dt5HivC9YnuIJx8T/8AE8aEFudZAnu4MPTBCSH38YOVBBBQapHYAgJNu4wZWmNBYHWwusDvuC2AhgMvLAosLgCE79BKBEABJBiPeUBDAQp8D5jwg6UCIDuausTFuA+x2h6NB1141+WXX27Mzftff/11HXLIIdYGFheASFCVC0sKReIFCeYCSyZ7yeYDHiJWdNppp8UlScaAhC8cUGj1RKlsrAKlP0thnwqb7qBgk70VziMSDUCsvWyG5oQxEQYEEFMaIeKa9OOPpnF26NnTNBTAQgwAJuZvTGS04p577mmMx/OsjiAI7oLZVq5cYUJRff1hQ2hyu0DRzAQqCepx4R6gGdHiMKxbzmRJEaGB+REmLAFiEIyNVQMmDCDB9OZeBImiRO7CIvnoo4/MvcDvRlC53NIp//OMi2S7FReWTnkvfaFdaqqi0aEHYEofABra5B18hmWE64SlhuBi9QAKBDoBF2hNG/SdOQIkAEMsCWcBAUhu7PSTPtAnAISxey/mg/fTd0AMiwkLsraLeQYwoL1rn/4Si8peEQrgErIqWJPiyxiQME2iKin0u4KVi6zzuQUdFfQ1ja5s/BEkMmOSvSCRHGBkRr+zvchSIDkKZARIrN3VcPV+yojIec36iLux9hmO2E05EdM1csXuzvQ+W9t3PJtKu+593ncnNwHZu7IUyHQKZCBI1EQyJ9SxIOEV6HjfecEgVoi939XWLu+o7dksSGQ6o2f7V3cKbCQg4YAinqB7LYp4mr428PECUG3Peicga03UnR2zT2YiBTYgkPC6HjX5/rUdJ0/0He3X1C6uR03Cn+jAWU3AlYnskO1TlgJ/pEAWJKpjF/UBiWzAMitcGy8FsiCRBYmNl7uzI0sLBbIgkQWJtDBStpGNlwJZkMiCxMbL3dmRpYUCWZDIgkRaGCnbyMZLgYwCCbdv350n4G/vlt0/pq2LbreKJnOJfJ945cNtP13TdkxuzT/M9x9XN9ZkhYqfYWn9s0w2mGrrYdW8sf5nJBN6UBd6ZAxIsO+fcwXsxb+4xLIAACAASURBVGefP+cu2N/PXn06yXd+f47ycvNUVRVQIBhQYWGB/H6fHVIJhcIqLm6sUChQfcaAcwO0g0DTLu9wh6Z4B2cUuAoKCu1dVVVr3s93PMfZinDYp/LyMjtmzOGryL1V1je/L0cVlZXWx4L8fHtHZVWVjSE3J8d+58rn/aGQ5bfIL8i3tjiD4ff5LA9GKNq3nNxc6yvt88M5BcbBvTl+v/Kj7+c9vIN2qni/32/PWd8qK9WouMjeC23oG+24fjsaQ1POSrhzHIyZ9hgX97r54DP+pp3YvvEOd6Sd73iGvkEnnuP9XNCRd/EOlxPC3cv7oLV7X2w77nQoz0ELNzf0mz7xt9G/oMDeDd2M/rm51ibv5Tt36pT2Ha34jvu87+BvL91c0h4+d33zzk3svW6M3A/daJsxur55aeN4yvGm65ujjRuj9x1OVtwYoT/j5x30lb65Y//cywXdYs9meAGDPjrZiAWzjAEJOsmAXP5DfuczN7gIk0ZyI0KIcDiknJxcyyjFd1y5uXn2Oc+659wJQ/ecEy4G7iVgTe93adSckNBu5P3haPYkn0IhJsKnnJzIcedgkDyOnK6M9JXLHYUOk+PRJizSbzde936eoR1Aj7EAjGvGyMlO3h+xsHiW7yLviORKiIwfxieTV+QdjNX125tj0jt+d6/rjzcfpWMSx2x85+jIZ955c8955y0yNxFBrOlevvP2zdsOz7vv3Lxxv5ub2Hl0h8QYS7w59tLD0dFZrXznBUXGUVu/ud9LY++9Xrq5+adva/N0ZG5S4b9497q58dLRCwKxmb681rQbu+tbxoJEPFPMuR+ZYKaluw+OgWLRPZn31MVkTKbd7D0bPgUcb3j/d6OK99kfXfo/0iBjLInYrtUHIOrz7LpikzUxjbXzUriJjDcG73f0sy4A09DjywJYQ1O49vb/NCDhBMShXE3p12sjlzM5M0mQYoXcK+g1feftv3NdvJph/bLk2m+PpbUDwnT0MZPmMR3jaag2agMJ3hmrfDZoS8IRcUOwClKdcK/weJnfC46ZaikkGmtDAkWid2e/X7Oas1G4G94JTafGyTJK5lGgJtcq83q64fdoo3U3kjF5Nvzpq/8IUjG5U7m3/j1L3MLGaBEmHvW6v2OjAQm3TON1KbJMlJihYACv8NclVpP4Ldk7NmQKJAMSXlc2GQW9Tlc33H4GtwaejYTXnR2hXbwNMnVvMfvkxkCBRIFLN0anbJwrWJvLv05Bgo0tbiNOMhMSOxCecRtXSJ9P0RqXLTkVwCHlPLUl1sXFLjbGTXbpeBeTQxZol82Ze9yEkc2bbNU1VZtylkRkU1VqKf7XxdgTvcPNGZnKybLtdl4mem59fc+uR3YzxhZxdpoZviILt9sRyS5T7+UNTLv54l7aZZ6puMYFLep6JQMS7t3u3thVs9h3rzOQcFtS3U5Kb0e8YADDkE7eCQvbUyEeqdupuwBB2WlHWnZqZHAv6dxJ7+41nagVAbFJo+8VPH6nhgXp2L1mV10npabn6Dc1Jeg7jEX/XTUuhJoU+9S1cPU2XEUtniHFP3RiDDAaFgPPkwqfildunNCNe0g/v1ba/3QPJon2AENKBDBeUuF7t3ezpdyV4QMQKbtHun03L9TBQPAYK3MZK1xJvL7Bb4Hm8BhlHLyAT0Fn/qZymCsVydzDp65+KnRhzCgmeJe5pT4IdU64j/IFVEBj3rnqU12sJpDwyhhjid2VXJuSWacg4WpKeIXT61fTeRiG/epuiyifMQkUomES3OAgLkBB4Ry0MKX/KELjtDAER7iYKMDFWSC8m7J1VOVCsLjHXbEI65Df7bmoiRO9E0B7vAvBoJAN+/QRoEjRn7mmaRgzwo32AECok4EQISDcTy0KaltQ6wLGpLYI91P9ioJEfO8u3gVTxat41eCS43kBY8O6YwxOMyH4zBfFkaiWBj0p2oPGdRW0+MxVJmMemet4FcXX5VjivYuxUSvF1ThhzidOnGjjwKKlDgpzQwlG+Jz7mTf4gPsAf2quoBiwmKi5StEgwII6IMw399CuK7oUz2JJRIdkQALZced3YhVovPbXGUjAzO5AlTdI6TWVYSjK6vEZ5eWwAtAqTgs7Yjp/nCIwMB+gQnk6GNUdemJyEBxXJxOrgh+epbDLPvvsY895g4Fuf737zJ0XcGc1agMJt//enRfAVeA97oAa7+KHQr3cQ7UuV8cTMKGvMAkMwrOU7gMgsBIAC4QLBgMY3aEp1x8EC+ZdnxoYDYtgUL6POWAM9AvaMS7mjsrVFOphXgFLxg2tmTfmGIDk70wswYeFi0WAYmFeAEMqolHQyR3SYr7puztUxhwCAvCyi8cBhK4CO8WeKRqFIoM+7hAYoA+v1gUsa3M3+M7VhAUk3L2JtiCsM5CAMGjU2MsLEgwA4Ya5YCyITAVuEJmJgdggLp3mOUAHAmNNABiUnUPjMqE8A9HdiVK0GQKK9qaeJKXzYi0IJ+h87g6EOQLVRkg3BneikLECAAg0WoZ+okVgMkxOGAVtSv+YLKwn3A3GSLUpNJazPrAaaAsBAwRgTHcSEbDgPgQMMFyfcQnGDMgzRue3M05ogoAwNuiEdsT0BvAcw2JJYW5jTTnLMZHGXNffMweAGrzJGAE6/qamKv8z18wzc8MYGCv8yHiZa3gLBciFq8tc4irjnsGvWLvQBRoC+FjFzu1OZayJYhKujw6AMmp1A2aGebymuRNG9xnEBBzQsjAXRELomRAHBLQBwZks7qdMnyuwu++++9r9aCaI7Mw1Z/4yAQjmW2+9VV3+zi3H8j/tulODziJwRK9torjXnXJ099MPxgGoIcz0Be0AAyDUb775ptXd5H4K2LoCvvQDq4jnuI++w0RoXkrw4Soxbujg3CAEDBBZXxf9cMfMsQYoMEzfmTe3kgU4Yw1BB4SF8Trgxd3gfoRvv/32qzFQu77Gx3tdxXSUEmOipirzAtihzPiM+qwUg6YyOvyHVQhdAEh4y4EFCurXX381YAdAaZs2UILwH1XP6xqMTgQS0Jw+uePqGeVueC0JN5BYQmB6wTzUpcS3g4AwDqY4g8Oq4MKUReugVZk0VyuTZ7hAZfxDTELQ3BHCrazwHsDFeznrxDGusyQcWCRaIorHwDwD6AESmKloTn4YFxoHoINBEBA0CuNCsAhqAmbEMWgDTbv//vsbEPGdE0qAFyDlGRhyfV4AAL43Y2UOYXrG50CYv7kwqzHBCfg5muKC8Dd0cDkl1udY4r3baXzmxLmf8DQCx7gReMYByDFGYmLEveBZFxsjYM58cw+Kgdqu8AIKBfoQV6NtLN6aLq+L4Nzi2FWTeKso3nt5p0tT4Cyf2ui9XtyNmkAC4UbjMABnDkFAtzwIyvIDoREOTDaEmAlESzu/zwsKbi8BhMPCwJ0BWOIVmo0NojpN7Y2hxCOm18z3go2zYBB+tAgWD8JMey6BCkxkCWVycgzUECyYjL9xVbicZUTbaDDXLv11/jBuTF3M05qYwwmCN7DbUILL+Bi7S36TyEdOVz8SzWusEsG6o68u5gC9mU8XC2JuqF7uaAavxrqrfIZ7wlgd4NAefzPvXNAiEUi47+NZDvFAIrY9r4XMXLvVwJr428XnGFsqPOELpzCb8SyJ2nzo2OCm853c515kdD4gA6xtzTdRd2OF3QsS7h3x2oh9LtmAkHNxnLaNBRjXrnessUFUJqyupmltwuYyI62rYGgsLySaq/oCBe17E+ck216yc9tQ8aGa3N/awCIeQHg/w4J55ZVX9O9//7t6qToWINcZSLhAldP0sR3x/u0FCUfweADgFaR47ca2mSozOE3Ac271IxHR3feO0WtjGPedA8Fk2nZ04FkHEsmOK9n7Em0CS7adZO/bUEAiGX5qKIDg3bFg4HWPa3I7arIO3Od33HGHnnnmGVvxO+WUU6r3sHitlXUCEs4P4sVetyAZJvIKUqIBN7QGSqa/qdyTaGy1teUFiXSPe12DRCo0q8+9XtCviyVRn3en49l4IOG1NONZFIl4iLm+++679cgjj+iYY47RZZddttYjjmYoyQZ1NwAGt3Lgtmd7kTHRQNItBOmYsPXZhnNNvC5KOvuTBYl0UrPh20rF3fD2hueY66efflq33XabDjvsMF199dXrFyTolAtAJgsSDU/ixG9IJciVuLX63+FQvT6WSG29yIJE/eeoIVqIjUnUBg7J8iwWxKOPPmob4c444wxbTvcq5XVuSbgXegfg1tLrQtRkCVGXtr3PuCBmQ/qbiawpZ1Y6cG3IvmysIOFoXNfApaO9t5368lYqz6cjcBn7PvZ1sE38tNNOs3M3sdd6AYl4rkN93InHH39ce+yxhy1HcdCGZUTOOcRejjH+9re/6fXXX/9D4ZbahK4+/YvHBDVNdk0M4wCioSyH2PfG1uRIhZHZ8MUuUrYdu2VcnmfvwKhRo3TxxRdbEPi///2vbS5jk1iqF/OBaUwbdblcoNi77F3XdtycuN2ltOM22MW2ySYqNvOdeuqptsMS///ee+9NelnRyzfxfk8mJuFW6lj2ZBkXy56l+JpORmcMSHiJufvuu+v+++//w6aS8ePH6/bbb9cJJ5xg26ovuugijRkzxgbI/gr2PrCWzQQBEhdccIF22mmntUwnCMRGLJ5JdekwFauFswz/+c9/bO2b/p533nkGSu+8845uvfVWPffcc7YeTpvszATFCRqdfvrptpPv+uuv1+jRo02gEAZ3zqQ2Rj7//PNtIxm+JZtz2E/CIaJXX3015S3byazMePsC49933302Hs5wsGGKTXCuuBCgzEawa665RldddZWefPJJ2yTGvLGblPHS3+OPP96Ylp2Zu+66q80vdDv66KPNFPaewARg3DkPtuHfcsstdZHzpJ5h2z99Z/MU/XS7fnkYcx0FddZZZ9lhNWh/1FFH2f4eFBj7eK699lrbEHfiiSeKncGM/bjjjjMeZhNWTekA4ml1Lx965ymZ1Q23dZ523QnqRATIOJB46aWXNGTIENt95t20wRINSzVsPLryyit15JFH2u8ERG+88UbbQQnjHXzwwbaxir8Bleuuu86E0GsJMGns0kSAbrjhhrW+q41gyYIEjPTCCy/YNlv26Y8YMUIDBw60nXns9qQ//CAcnM1Ak3JQiK3nl19+ufUJTQ6joXFGjhxpO0drs3T47v/+7//04YcfaMqUqaah0VTQgfc29IV7AkBzAW4w/jnnnFO97s542InJfhnofvPNNxtY4P8eccQRtiGJ7wCJm266ybbNM+6HHnrI6AJwXnHFFWvRAMGEju5EY005O9IxdoTLVQ4bOnSoASDz44QNXj355JMtAEi/LrzwQg0aNMiCgpdccontID700ENtLGzJ5xAXwECbCCvfJWNRpMOScFsRsHwA8URWckaBBAJP8ASE5QdG95rXDAaCcxgKU5YL4nPWwZl6MAyWAhqYSeN5Tuex7RdgoA1MYAQoEXHqy1wwFkyDNgH4sJDoz2677WbuDiBBv7E2hg0bZn9zH1qHsZ900kl2vgPmwYKCwRAU/Ea0LBtgBg8ebBoMxnv33XdtrJiwaF7GyK4+zhHAjFhWWCoNcTGON954ww7PsUUbSwJQ4IwAViEX8wTAYxmde+659pmL9RBRBxABw/fee0/HHnusjZulOc5DAKZnnnmmnV3BUoGOWF8AsEsDgLns8oSke4wcFaDP8Ay7ZwE150oBENAd64c5hN7/+Mc/zHJw/j77D7AyUGRsz2ZesawABz53pzKTjTPV5HYm425AS+5jDACrN9YVj24ZBRJoHrQQAPDwww+b/0qswXthngESWBJoFywHgi78znMICyYq/hZIDlIiGJj2mOOYgg4kHIOmm6Fce2hTgOqQQw4x0HIgheXgQAKm43yHA4lLL73UQIKzHvQfEETjPvbYY7Yl+KmnnjKQwUJCI2CtYKqzW46zAGgx3BwSmWAxQT9OwEJXrJg777yzQYbLOBjTgw8+aHOCm0dcYvjw4SYMgBRjAMDQwNAD5sNUB8gQKsxzrBGEjDEzdujCWQYOUvE3c8uBKS40OpaHywvCdnuEriEuZ0VyQtetBGC5uePtvBOBw8LgxC+neaHBF198YdYcv2NdvPbaq5o06ScDUu6HP7A6Hei4rek1jaEmS8LdnwxIAKooJpSpK/9YG80yCiRAVwQZUxM/HiHAzXAHohiIFyTwQfHxMd2IMSAEaB3cEAQScHCnDdE6gBAHcThI1JCWhMuLwQTARAgxgnD22Webv+0FCcYESMDwaCHcDX4njwSCjzZCmyLc+N8DBgwQgVc0NoKPW8a4sDBwKzBhCRB+8sknNk4YlIQouHFosIYCCcdkxEMABDQ6bgMggIYHxAEvDoAhGNDCFfF11gZ04dAegIElSQyC9phbXE3iF1zu0B3WFvOJdcLvCGZDXvSduYC/iDnBoxzWgr6AGHP27LPP2vdYTVh+ADU86dIQko0KAGQ88DdgzhiwDuFXFEAyAuu0f6w1nAgkuN8dNMR6gfaJrowCCSYb4mMqAwZoHUx0DsQAILEgwYBhIDTVBx98UH3yDkJDeG9mH5fLgv/ROA0JEmjDBx54wPxlmAKBxcT++9//buYqnzlLIh5I4J4gLDAeVhKCDW3igQSWBJqUYBpMC9Dg73Ncm3bQvgTdWAWgHzBnQ1wI0LRp0+wYONYEpxxxg9CgWAIAFitPuBVYifxgMWC6I9wIG9oVAETjEthjHrE+mEvAEcDE2nBMCzDwTkAHpYDV0lAXAWGsVFwhQIzfAWCAjX4BFFirzBG04KAXwXVMeywfLDosD9xp3ELu5TvawuL05mpNdgzxXI5EIAGAIzMcMCR254A3GWBye3NqWxGKdZdSOuCFNeDOHNQUC+BzhAHNiinE7/h0gABahev555831OUYLgyJECEo+LL4sQ6hiSADLC5qTNusKHD0nIAmQpNsIDLZSXP30S6uAXEE3B6YCTPYoTYmNJrUgRjaBtDgbxgJhqSv+N8E9WAwYhuYssRW0GaslkAXaABdMXEBHy6AEP+ZVRQAg6g8bTkA9pqmqY4t9n43l/jsuEIICELtEuQAmFh6WDtPPPGEgTnWIX2h/1hEjJFzA1iFCCHWA4qB+AwWBYyM1cR9bmmbMQMSjN8t4bnUcvUdU7znoR8WIQoMwL/nnntsbgk6knAGqwm3EuWGKU/cBAuKWAU0gTcZI5YtYwTUiNsAElh48U4lJzOOtYUykgx5DV+HEzaRTFzOgTL/u9PLCRuO3pB2kPC+uKbAjHfJBy2CloTQbjkThmHSQEsYyuvjEeTCgoDZELhkg0TJEqSh7vNOZE19jgW8eH/Ho2+6+oyrg1UAoCHUrs9YRG5fAKY4FgXWAhfCgXXB/LncGS5OBHACtCTU4XKpCbGUnCCwCkQge13MI2CEa+ACo7hPxCfgN6wDQBGgdONmnPAe4IKiQqmh+AB43EjiEYwRYCWo6V2OT3Y8f3Q1ciSXNN3wIZSu6a0OMKcMEsFg0ANVkd756GWc7O6hYEihcLTTPNXAGeC9YJI2Sm1IDdWmRBqY9hsSmdLd19oEPBwKi3+JLpOhJK4/tOX3r/WUL5z4XRHETSyP1adA/R4gqqWPjg6+QDBU3YtIfxxQ/PHpNTdGe9WQdSLCEfJZbxryPUlM5Pq6pTYz8s9Ml/U1H1HzZy2IWAtQojxbn/6FY7DFnyzYhMMJrTGzTPmXAL+8sMStvqqAByRM9te0ENvh+gw++2yWAlkKJKZArN2QnD2SuN363JEQJJI0durTh+yzWQpkKZDBFMiCRAZPTrZrWQpkAgV85YFkIyOZ0N1sH7IUyFJgXVMgCxLrmuLZ92UpsIFRYAMCiSTWeDYw4me7m6XAhkCBDQAkwgqpSkFVKleF8oniwA0b82WHIbvwKisrtHzZcrVu07r6nZUVFZFapdEixeWrV6swWp4+HApFUrzn5dn/9NLdlwozLF2yRCXNSuRnPTulK6yy0kiJRRaQI8tzUVrhVfoULZyTH/0ueeClFQtiWztrdvtUVlatlZxl/rx5kSJDcdfZYhfXEg+OMwo1J24NR/cHpJMfwmIvhK96v0Kkz8FgSH6fzz4PBYPy57CfwSfm3N0L39Bfb5KexCPM/DsyHiSCviotrJwsnyrVKr+78lQc3YPmc1yrBb8tsJ2CPXfYQVN/nqpZM2cZQxcVFto257z8fGNudthN/PZbde3SRZttvpmWLlmqKVOnqFPHTuoQPTsBA7C1mHMGbMtlh94uu+5qgldQkK/5839TSdOmalRcbLP70Ucfas8991JVZaWm/vyzVixfbm0h6Ozt52xDwoVpD5989+23WrpsqXr37qMmTTgM5VMwELDxrVi50k5YhkJBNWnS1MS2a5eu1jd2p/K+b7/7zs5ZMFbktFUrAE42jtatWlkb7du10+fjxmnnnfuqqBBAqfkqXbXKckSwTZkqYwsWco5hrrbaqrsKCgoFaJaXV6hlq5a2K/GWm2/W+RdcUJ1HhO3p33//nRo1KlbTJk3UvEVzNW1aEjlWLdnWbgCVNfxgKGjPlTQtMRry7lWlpXbql7bHjHnPDloBnlbpe8IEO1/BQGmruHGxigqL7G83jwcedFB1Ep3vv/vOdoVuutmmKitbrQW//bZW4ea58+ZaMpmVK1dp2s8/q1fv3po7Z45tke/YqZP1dZPOne18ytbbbKO8vFwtXbJMjZs0NsXBiVmODLD7tKYLWs6bN1clJZFqaCgZdnbmJ3FIa33BScaChA8l4QtpSWiGflj6mjoV76BNCndRngoVtk1pgERYgUDI9tH/78v/6YorLrdDUd9OnGhbUBsVN9IxRx9jQte6dRt9GD1AxgT36tlTixYvtnMl+Xl52ne/fVVRXmGnVQGJ/QcMMMGvCgTsvAb79H/7bb5tCV+wYKFWl5XZnP335Zd11FFHap999tVnn36q2XPmqOcOPfXNN1+rZatW2qJbN2PM4ujpx9ommjFMnDjBzge4nBnNW7SoBiDOw3BWgnMEHLpCMEh007hJE8so1bFjB/388zRtvtlmmv/bb2YNAXacT/jow4/UpWsX/fLLNB1x+BF67fXXtWnXrtoreuiupn4tWfK7pk37xbbJcwjq3dHv6N1339MZZ55hBZ0bFzfWvPnzjdHZyn3SSSfawbjc3DwDsfnz5uvtd95Rq1Yt1aZNW3Xq2FFt2rZVAcDtkz755DMFqiptvIyrqFEjtWvXVltvvY3Gjx+n5s2aq/tW3bVyxUpLI/Da668pLy9fc2bPtpOYnJx1INeyRQs7O4M2X11ert13303ff/+DARn5HjhLsk0P5r6XlixdaocJA1VV1UNnu/XLr7yi5cuW2QEu3scJ3WXLlxlAvvrqazbG5cuXqf9f+qtX714Gzr8v/l2TfvrJTvDOnTPXDoX16dNbXTftupbVCxh++cWXKigsMKAGzFauWGGHtJo1b75eK8rXxpcZCxIwWJkWacqqN/Trqs+1ffOjtEnhjuZySPmRnWPyKRAI6qOxYzVhwkRdeMH50bGGNWbM+9p+u+3UqnVrQ27OC0yeHDmVycTMmTvXNBsHeL6Z8I222GJLtWjR3A5mATAffTTWDmqhbWbOmqVdd91FL730X2NCrARX7/Kl/75keTE4/MXpPKyT1m3aaOrUKVq0aLGdpOQwUbzkpG5iABzqns6Y8av69t3RrAWsA7TtZ59/boeOZs2caS4CeSX4fp999zWQ6NCxg/Jy8/TGm29q4oRv1H2rravLK9LXbbftoVUrV+mX6b9Y32dMn2HaGqYc/c47uuuuu2q1JLBAOJvRuLjYzjxM+mmSxo8br6OOPtpMbQRj0802szMQuBocKz9u4EDT6McfP1ArrfjzHBUVkRglCu6SWrdupcqKSv2+ZEl1rVHOQdBHzkBgstNms2Yl6tZtCzsjccqgQXryqScNgDiVefXVV+nSSy6N6ItQ2CwprA7mBnDfpV8/fff99wayjIMzJLRTWVWl0tIyszTph88fcVc4Bj9ixEgbF3wAkFSUl1en7wMsXnrxJTt02KJlCwOy50aNMsuEcynw18IFC+3Uc9+d+mqzzUhIu8YVCgYD+ubrCWbF/jpjhgFPVaDK+BjL1NVaXV8WQ03vzVCQCKvSV6qZ5WM1ecWrKgv9rtb5W6qxr73a5O+ojsV9lRfKM6YL+8L6YvyX+uTTz6pBAq3EEesB+++vtiC2O1UnGXN98eUXpt2ZwB379DGTtlFRkXJyczT8rrtVUVlhk8jx7slTJpuQ9OrZW+O/GK899+xvbg7mMIIzdNhQO+lopxgXLDRBRlM0adwkcux6/nx7R0m02G68icCcnT17ljFJq5atTONh3mIyf/m/L81lAnBgN443L1+xQkcfTdo1n+U/cBmRTj31P7r3nntNyNCkgFbLli2svx98+IFZQZjF33z9jd3zl/5/0V577lUrSGBuv/jSSzr44IPUufMm5vZw+pYTsNRHnTJ5sjbp0sWOTOOS3HH77TrzrLNUWFCoffbd21yRxYsWKSc3t9rr8vn8alZSYoKM0DJfdthq2jTttPNO8vv8ZnnxOf0tKkIx+HTsMcfo8SceN5CgX0OHDdNVV15pcsi5oqYlJWqCxRZ1P3r27KUJEydUkxxrCBcF8J//2wIt+f135RfAR5HzEpddeqlZElxYCF/973/GJ7g6CDZz/OQTT+mAAw8wywgaokwAtN69e+nHHyfpt/nz7YBcPPeB5DU79e1rIM/pUdorLSvVtj22NeAmlpWJV4aCREALKn/Q10uf0QpNk/wBY+Qmgc3Up8VJal+0lRSMmKtcEN8LEmgg/Hb8deIRCBvCu3DRQj311NOWdSk3J8dcC0xZzPimTZqqsKhQE775VlWBSj311JN2TJwCsoDEgQccaD4pFgFmPCnMBh5/vIbfdZcuGzLEYhHPv/CCmcxt27Sx/Arf//C9nS7cbrvt19KicXOKXgAAIABJREFUiRkhEnR88823zHR1wULGMX3GDE2cMFHbb7+dHd+OmNoI2VIRz6CvR/zzCI15b4yOPuYYM2ExqRcuWqTy8tV6+b+vaN9999Err75ix/gTBYER1OHD7zI/e5POm+iX6dP15BNP6MqrrjLwoU0E2ZLPSPr3v0+ydHQIMs8CgFheFjPq1ct6S46Ozp07qVmzSDFlriFDLlOvXr11xBGHmdASHwXUAEBXRJmj2uSm4DNAlaP0pAdEEwdDIfXo0UObkU4+GjQF2CdM/Mbax8p5dtSzOuT/DlG3Lbpp1qw5CgSqooWsIwHQc887V08++ZTRG17h9CtH5rF4sNjGjRuvvNxcoyU5PoobNTKr5ZsJE8xS/frrr2y+8/Py1bFTR+Xk5K411VgdRx51pPX315m/asrkKeq3Sz+L0VQHhhMzxzq/IyNBIqyAysNLVBZcqCXhXzS1bLRKVy9Xn2bHq0vh7pG4hNaclosFidtvv0177fVXiztwahUth29Lfoe/7r23+e5VVQHT2AQHn3/+BQ0YsL+26r6VAsGggQoMc/fd9+jHH36wDEXHn3C8gUTjxk3Mn5w1e5Y6dOiom2680UACzTPi/vuNebpuuqnFOqqqKrXvPvva8WIXDU9mhmGYwRcN1gXnX1BtCdEnUrkvW77cBIxEud26ba727dqbcJKDA6HBvRk5YoT562h4LhjZ76fKU6VlzSK9HmkFsQYiGBM9TFfDigQuyan/OVVFjQo1e9YcjXruOcutgKtWVlpq+SAwzXtss43OPucce39uXq756i+/8rLNBZbZ3vvsba/7eOzHBqLEJnjlhRcO1mmnnWorM2M/HqszzzjTQJI4AgFRQJbLCxLESjD97cg6lkQoZHODdRcLEvSRrF799+yvLpt0MXrNmjVbjQoL1aZN62pLivyc948YYe5GJGO7zNVcvmyFCXXLFi21+x67a3XZasv5OeTyy83deuaZpw3Mt9l6G1uV+mXaL2ZdtO/QYa3pxtLCveHCclq2bLmB2tJly8xaadSoKCFoJ8M/6b4nI0HCYJ3T6j6fZpd9oW9XjdImxbuoe9H+yhcR/8jyk7tmzpylGb/O0J79+9tHCD/xBawD2D8YCJqg3HPvvebzwkjk2MR8RvO2atVC3bbYwjQU2o8o9YsvvqjLLr1Mz44aZZoQwWLlxECifTsDjt9+W2Dm8j+POMJM+6++/soAifdinZDF6tPPPlX3LbtbQhnLmv3AAwnnEG2J/++04sIFCyxnAb5+82Ylyi/IN4G/7dbbLBqPa0V+g1tvu1W333a7aVWCcmPHfqSBA4+3oOPbb71l1gCWUJOmTXXuuefYs3w2e9Zs04YuR4S3gxO++Ua33X67WU6ff/6Z5s2br/323dei+FgJWE15+blq3ryFBRRPHjRII0dGLAliLawe5fhzLe/Ejn13rNbqZH9COEY9+6zOOvtstW7d0oD7l1+m6+uvvrKgHxYKKx1YTAg+NKBkARbgSy+9qL/97e9mKRHzIFZD1m5MdwcSt9x8qwZfdKFWrVppsQaCjiUlTdW3707Kzy+w4Ke5rNFNxwDre5R3WLBADz70kM44/XTNnTfPVjFefvkVW9XiHYWFjbRo8QIdcMCBpkQKCgv1+GOPmRtI/gmX+g/gICjpLniQMZx04on2EQqMlZpff51h97VsGQGQTLsyFCQcmcL6edkHWqmZ2rLpAWrqaxMtxuNXCBCxFZCoJuQYrFvbju4JWNuUpkx9qBpauNcYhDVxW//2mYlrijUUyZuR488xDcXH+IyRo7aRo+vcY5/7wgr72M8Qtu/XbHIPGwNUJ+ol09W8uerUqXNCHgiFAlE/ec0eBwTfqo/T6ahtGggGzH/nOwQKt4L/Xf8iTBgx3emvJUWJ0ohlVcbM2GHe3JxcixvEXrb3I9p+ZMyRcZlgRfdMeI+t0y6xHdfJyFREaOPmg98YB/9jIa313nC4mmb0jZRy7Tu0t9Uplw8BWhODcHtQInQPRWIRjDE6j8FwQDk+xhSZe5s6frgnGqfyjtcVHwb8wmGfCgryzAKjpwF7PkIvd9GO4wlbxq0eNTk8fTY3ay9/h816ePvtt7T9dttb/4lNsELVvDlLounc75GQzZK+IcNBQpq7YorycnPUtlFX+UGE6AYhJhGgSOcV0SrJt+hnwxIbbTJ0cpMfScPdiYBh9xkgpIlONc3TWlvD/NGJrCOTuH47ygARURXRcMTK0JYzHiQc3ZxAmuUQnfg6zn+NU5EsSET2Ma5hmSxIxCep7TitDq2mBhLR/YwRy86ZACGmPgnNgCnhbkuBSbz9jR3RnxokKtbHKdBE2joOH0SMU5cTh0jVWvlx1ikGr51gLJ1ZCNfpMBr8ZV46MXuJpr3ajI8xvFnmrr5CPm9epD+MwdwIT/bFVC3DmogS6X8tAJXJyxP1nGlfRVUqZKzn2zxcUBvDeHnCyzhMfrKMFq+ntemgRO2mfuogTbSqYzN1zSoWj/bJdiGWhkno/OqmNzj61kKUVMadLG3X530bjLuRDiLVByTS8f512cb6AIl1Ob7su9YdBTY4kFhfKF2r5bPu5ivpN60vkKiJTonmrV70bbCHayZ3ba5HorEmPYkZcuOGBxIJ3ML6mMu1+aO1zVemMYWtJNSxUxa8S+R71UCMRI/V1ZKrDfCszVpeXDsZEvW4biDBU3Ukf4bAwtrd8FV6smWvqx5WR6treGFtgp5s0ZN1NZZMfc/6siQylR7xY1SphFPXbsG743dDGnNd+uoLhtak1K9LA+vjmbqatHXvq1tbid9C7d/W/a31ebKuOrJ+GrBmSkTarblXifcgxH82cRGcmt9Zn7HWtucj0VjrM6/r49mUyvytjw7GvjOyz7EmYbU9cWnvZkTf1PzeZAuopL1jtTRYV5Coj6lc+9zUPjO1PZuIbuuD/vUZa6LxZNr3GxxIZBoBs/3JUmBjp0AWJDJshu2siJ1FqI8tsH4HxRmR2krbp7137hxJGsrspb1v67BBs6FJoOPNbZqG92dBIg1ErE8TgEIkb2XIslFxHJ18C+RS4LTjur7ssFsyW5/jdAxg4JQtOTbJArVixQoDO5Lp1LXNeOPnMFe4KqRg6XLlrFol36JFCs6ZpdWLFloqvEyMETX0PELfwpISFZBTtVNnBRqXyNeoifyFhZ6kvnXrRRYk6ka3ej8FKHDMHDDgaDqJXTlaTB6C+ghqvTuWpgY4WfrKK6/Ykfmjjz7akumSV6O+YBEKVGj1rF+VP3uuFrz1X+VPnqLiqkrlc5AschB041p/TGE+sD0DnOrNLVBZ63Yq3mN3FfTdWTmdNpW/cZPIdvU6KICUQQLNQP4/UrPB2DA1Kb685+ZTGNef8lYEiASrzoog3Zl38taXq1EXBkpmAidNmmQ5JknDR/6HkpKSZB77wz2BRQvk+/YrzR71lNosmq/8UEC50SP71SHruq791qlHmfsQ+2Sq/H6tatpCRfscoPw99lROl67y5RWk3OmUQYL8hkw4ad3QDoADac33228/S/VF4pb6XGR2RrNigmO2kqyFjD4kecGchdFIHrKhXuQdGDt2rGWyIoEuV0MJZybRCGDElSJZDfkTyGqV3EXeiqBWTftZ4bfflu+9N9WoarW53pY1PZpUxNZOsgARIemaahPyya8KUjVuv52CA/6mJv32kC8vPznSR+9KCSTIhDxy5EgdccQRlnWa7MTUIECoYYITTjjB8gzWlelJ6UX7AAXaFMAhlT2fkwgEkMBvHzhwoDp27JjSQDPl5jFjxlgCVNLT1+WCNjzvtDHJaAFNB86Y91h3lnymluvbb781EIamxA5IfkJKuXjXl19+aSn8vRcKgn6QiSmVa/z48ZYFm6xYuB+JLpaey76boLLnnlTJt98qLxApZWAr3dEEOlmASERFKeD3a3nbTsr55zFqtt+BZN5J/FCqIEFKLiyFm2++2eoReC+YjJx/MCh5Fq0gTR0u8i/C/PjmJD99//33rQYGKcP+9a9/WYukQfv666/tfem6YHaEj0AhTE8GqEiOQ/9aAljf95GWDkEkdVuyl1vpIL8lgk36Oay4/v37q0OHDnrooYfs927dupn7Qj7K4447zgoL8T4A2zJS+XwGHKSNp8LW6aefbtnAeeb111+3dH2bb765WW4HHHCAunTpokcffdRSAQISffv2tWS39B+lwO+77rqr9txzT8vPmMpFe2QtByhqd1PDqpgxQ2VPPKzGX41TXlX5GoAwwyG69yJrQSQkvx23D+dqads2KjrzYhX13jHp2E3SlsQTTzxhuRQR3HgXzHT++efrsssuU58+fRJ2Ot4NWCeffvpptZZEUMnViMVipeMIzAQCVhSG99XVYol9N+4MdRNoG6YFKLBe+JuiMwhOIs2caMAUEEKYEOhULkACQSaxLq4euTbJRg2tqPUxaNAgy52JCc99gOlNN91kpj0gcOKJJ0ZT/oUNUG699Va98cYbevDBBy2giPV39dVXWz7Ojz76yO4FrMn+TKGjM888UxdccIHuueceXXjhhZZBmhUMAAVg4n9ANdWLOAXziqVY4zyWrVLps08q963XVFC2cs2GzeSVYKrd2mjvB1BBhZBCWtVtW5Vcfp3UumVS400KJGBKfghUwnzxLpho+PDh2n777e1eGCDVC0uF5T+vQFoOwZiILJYKbk461uJpf87sOQoGqfdInQe/yIROanxcHNwbNHaqZrV37LyDXI0IdqoCZeXvgkFL9ApIkBUbIIUmaPejjjpKQ4cOtSVH7vOCBNYBc0EbuIMnn3yyLrnkErsP8LjxxhvtB1eFVPBYCAQWSQhL26TBp/zAww8/rMMPP1wvv/yyKQkXf6JdZ6WkOtcAGpYOiW1jaWu7W8NhLRvztnxPPaqmCxZGM1yFIzmQs1fKFCDdI/GJsC+ogD9Xi/c8QO3Pv5BitQnbSgok8J8pp0ZRE3zgeIJ73nnnGaOSDRirA+2bqqanUtXgwYOtuElNF4JLoDRdlgRjWbFipebNXWBIS/JTXI/ConwLzBYXN7JKS6kKt7f/9957r2l9Zw0lnBXPDfFAAoFHyDD5DzroIANntDqWDyCBS4jGv+GGGyw4CihEMky/JPpC3IjU/7gZlCN49dVXDSSIF6DZAWviPmTIxjUgozjfM6dYWJ988olZRRQGwtKgPmeqF+PCPSWAC3i6K7IFPiQtWazVjz+knPfeVWEokjzOjqcCEpGctvW+1mSwijYYRoiIhZL9Khz93yXQdZHSSELcNVd00xv/WZLiaHkCbrBEzSRY5jhYnGfijiB68sPeX+8hrqFrpDambJ1Y0qoW7dTk2hsV7rp5QjlNCiTwO59//nljHnzdeMKPq0ENS0xcakFGKmSldmGCnnPOOVbbs6aLpUN8cjRbui5KBS5bvlJVVRFmDIUjxXzI6Ny4uNC0a11BAgZByABQ2kn1igcSWCVoX8ASkKCGJWa/FyQoG4hFALBzARTEdwgM48JR1AYLib0MWBu77babCT8WIMJPin4sFwKa119/vS666CIDJn4IYuKeAVa4LKnGJLw0OOOMMwy41gaJsJZ++J5CD45Uq98XyQc4pFNioi8zubbs6JbPW0tLmqjlaeeo/LabVWgBUrJdh1Tlz9WqrptqdZuOUjhP/sAqFUyaphmNiwy3csIhdShdraYUT84LRQEmrIJglfL/eqBWzJ2jwilTlReoMBCqyCnUb1Str65c7jZ3hBT0S4WBsDqXLlZekI42RF48nyrzcjR7j720+QWXKSyqq9V85ikpkMC8JHBGgBITNPaCkQEJNBNxBEzjuoAEz+L3osEBGq87wTuwZrgHpq2LwNUkoMFASMtXltp7TQGwow+l5Y+AhAtmpirg3M9yMct9dd1H4o1JYAkANpj9uBgEcBF63AriNF6Q4L0IOQACAzA2BP/iiy822mI1UDKQ9vjeWYfufQQtcR1xuwgkM7f8zjMERgFq/malqz4Xe268+yZMeQbKFXjpeQUff9wEraFAgkNapY1yVOEDvPP0e0Fjdb/zXn1/1UVqP3ee/EGf8hRQIDesgoEnyN+hg6qWLlWT3r30w5Arte09I6Tlq6RgQKG3XlXFV+Olo09QUa+eUl6OFtx6h1ocdKD+9/poFS+eKb8q1WHBUpW0bKncc8+XmkVKMEZKE0QPybKFoDKoiv8cqYIG23DLfPu0fIst1eymm6XC5pFyADUARVIgAeMQvEKrPPPMM3EbY/cgS1uAQ30KnwJGBONwOQAelvesBuOTT5oPC7NTkBVfOlV3Jh4zO029qrTcCt6gUSK1OKTcHJZcC01T1jVwiemPG4UVVteL8bN0SoCSACNASrAVdwKrAtfgrLPOMvfDuRuAxLPPPqthw4bZa6Ebc0hpP8x7it4i+AAgFbgISqMAuAf3ivG+8MILtsrEighAxP4O4iG0S3WtdIAE9P/ggw+qXRaTmUULFH7qMfnefUO+MCDh6njUlYLxnvOp3F+gwv+cplDvPgr7c8y98BOQotZIDsZLWL7339XyF55S0cCTNe/3pZr33Xfa4fwLNXfYdep++y1adOq/Fd5rP7XK9avyq881Z6teWrXkd2251z5a8ftKNdmqi4oR9ooKqU0nLX5kuFp88bkqN9ta/n/8TUumz9TCzz9T18OPUdUnY9Ro191VunChmr36lHKD0eIy6Ry2s6JQDG3bSZdcJX83ChoBVPGtiaRAgnYJWvbr1880l9OKbh8DKwDpvAheYjX07NnTKnJjUcBIMCoxCZbeEL66ugCxfWV5t2x1uSoqKw1hQXZbMszxqXHjYhOkugIS8RmqcdXFsnL9xIJjZQKtixAj3Lh/mOq4eMQdcAdY4fCCxCmnnFK9n8TFAKAh+ygAG5aTcYUAflwM9k2MHj3aaA4Qs5xN24A2CuD44483YHj66actgJkOkGCMp512mmdJO6zSn35Q5cj71GzyD9SNj+6HSH8KAHJCVPiLNKtde+W1aaMWkycoJxhUVUGRFm/RQ/nlK9Vm2hRV+fwqOHGQcjpsruDiRSrs21dTL71EW95+k5affJJCe+2nkgJAYpx+2a6P8tq015a9dlJ45RJNGfelCmdMVespE5V/5kVaNPYjtfz2Gy3qtIkCnbqqxfZba9mUn9Vsh17yj35TjXv00OLR76rl8oV4OkkvU6Yqf0RJAk2aqPSo49Xs7xHX3XJ6uGVlT4NJgwTPoM3wH/FFYTqCXNRnxB1J98W2b6LqBOBYjkMgiL4DEkTm6+MHx3OXYPjSsjKFrEpXhCEpVUdZPa46bHm353C9KFOHEKbjIiaD20GcCPDh4vwHlgJgzfInqxjsQ0DrY2Fw4YpQABmhf/vtty3ug/WAgFLqD2DgAoxxZwAE1x4BRkCJFSzGAjABLvCB60N9xsb7eWfkCmvJV+O0+p471PG3+ZGPGmhFwxSCfPq9985qcfhRWnnd5SopXaGy9u2Uf+qZqnh/jIo+/USrc/OUc+IgLS33adXUqdr82CM17YabtOUdN2n5oChI5OeYJfHzdr2V266Ttu7VV/OefEjNd+qn2d99p+bTflLLfx6reaPHqO3Myarcex+FNu+uZeM/09LJk9X1+BPkf+ct5U36SX5fSLnExRoMJCLuRnlBoebvd5A2O+3sKBhFYjNWZdNbqSyc4kEBAlescCBUaFgYKR1LkV4mcxuIeBeggOkLKGB2R4S39t2E9WFY84ljosp1BQiailTQ7lzn8wr1GYsNxXPkvK7WUH37kOh5rBoCqJErpMXjPtGq4bdok6VLo6Xy0hjm93TGgcTyomI1u+5WzX5kpDpM+k6Le/ZW68OO1NLrr1HL0pUqzc9XzkmDlNuuixVCrli1XHMfelSb3XO3lg86XoG/7qfm+bmq+PpzTduur3LadNDWvXpp3psvq8kOPTV/ynS1bdtMTVq21S/PjVKrpQvl376nQpt0kxo31vK5s9Vmp52VN/EbhecDjGGVjvtYLcqrqlcjEtEwte8jIFGWm6eZe+6jbc6/JL0gkVpn6nZ3bbiVqYxe00hZQmR5Mt0uWd0om9xT6xpY1gaJsJZ8+blW3n2bOi5eoByr7dmwIBH056jsmH8pt6iJ9PQTqjpxkHKXLlbeqMeUH/SptCBPucefqCXTp6uobXv5GxVr+UuvqPOIh7Rq2GUK7PYXFS9aoIrPPtKcnjuraNteauQLKbRiuRp16KCFk37W5nvvqeCK3/X9HXeokz+skr/up5A/T2X5BcrbrocKmrVS2cSJyv19kXJCQS166Wl1XlkWzUqc7vFHQGJ1foHm7Xugup1x7hqQiNK6XpZEcmyWvctR4LnnnrNt2OwxyF7xKUDMgx2gkSusVT98p9Uj7lTz6VOV4yOgmKaNETGvX52Tp6rOXaWmTbWsbTs136Sryif9qJYn/Ufz/jtKzefNUXjZUpUuW6rGx52gULOmqly8XC17bK1Jw+/VNsNu0O9PPK78Ll0U/GiMfL/8rFX991bhzv20euFiNZozV41Dq1W5YpkCrduqZP8DNHXIJeq6bKGWF5Yo1LWTCrbvqfIWrZWbVyD/6grlz5unlZ9/pFYrfld+VbBBln6tSGXYp8rixlp6+DFqd+Sx0fdE3K/YfVApxSSyTJ46BfDj2YzGnob6XvE2sdXWprMIMt36YjPX3/72t+qhVM2drcAT9yvv07HKCefYZuKGuJYWFMnXfx/lduyocLSqvC8nR/kdN9XqOTOVHw6o8tcZWjXxGzXq01OFxY3kmzZdgdat9cu0X9Tz5pu1aPBFapqTp8DsWcrbbFOV7bm3yqdOVnH7jiqfPFm5k79TycGHqLzjpmrUfQstuOACFbcoUcGhR2h1KKDQwrkKff+jCsoqVdGpiwp32MFcrPDIW1VU5W9QdyPcsrWqzr7Qck7YVV2Me+1dzlmQaAju87TJEXdWNlhRSPV69913LWjLxUoSh65wX1iC5CJew34RYjS33HKL7YZkGZR9JAsWLLBlV4KC7IUguMkPG6ZYLaFPbLRi3wmb2NiGzfIzwUiCk1wsn7K3gp2iBDzZos7yK+9g1YZVpgEDBthSKQFVlkrZE5IKKLHjkjGw1O2eC68uVeDFp6XnnrF8EQ0FEuRb8LVsJX9hkZnbbquC2x9JGC9YVqbg8mXyFeZJVQHlVFQokJ+nUp/UZJutFfzuexUG2JAVVmWrVipr1VL5c2crv7BIocpK+cpKldNtSwWLmyinolyBnyYr2LhY6ra58laWKrBgvnJKVyg3JJX7c+Rv3045zZopPOlHc3Ui0ct0Xz6FfGFVddlUBcNuk1q4IxRpsCRYKqzPGYZEQyUwSRDUnQnw3k90niVP78afRO1lwvesOrCXoS47LjksB0gwZnZCsqmJYC6boViCBDjYQn7NNdfYjkkOb0E/NkphwgMUbHYieMoBMc68sKzMHN522212YpQdtKyWsIuSDVLs6WBvBIBCv3fccUcDhyFDhtg5C35n1QSAYC8GOy/Zd0HMhbZ69+5tIJLsxXZ+Vl0iiiy6JTkY1PLRb0qPjlBJ6apoOrp0++XRDOjV2wNSWGKN5mtgJcDvqiBFt2CH/KyNRdyESHFzn0JhNl345KN6hc9nuyoR/dzqKLnb+h0BqlAwJF8ON3F6tyFAQqrKkxb02kMdr7havhyXAyZ+Wq+kLAn2LMAMCO/06dNtCzBairV5tBqTzJkLmJOTgzAya/Cp7IpkqzDLdjAcbbDdGKbhd5ZdYWC3ikL7tM2uw2TPDaAhWY5EUBAQ9hygiRFe9gRw5oTNYmj8K6+8Wscec4x6bNvDlmGffXaUbTePXfZ4//0xtgyc6MLl4CBWMofenEvBEiR9pE/kzgAg6SdLmlgD0AX6QAsAASHFamEXJnThpCYAxQYsjoVz1oUf4iN8xzIpey94H3RhhyV7MJhX2mU+ASXAA2AAFKANAMUyKYDBc8w/VgZLodCVdlPZTPf999/bnK9lfVAxfu5cBR+7X/7xY+VvoMBlonmr/fsE26XtaLZBn6cZt5brBbw1vwM6keV3t2G8fj2s7emKkmLlXTpMvu16R95pu27j77pMCiTYuMREwiTkdsCiQEvxGVqKJVE0FELsNvywBp8KSGDWcg4AIYbpYE6sBw4QYe6yLo/WRFjQgCQsATySPTRFv9gLwBo/h60ABcbAFmO0MGY8y7q027371ipfvVpTpk5V7949DbxeeOFFde++lW02wn+eOmWqjv3X0Ultt8ZCYo8HR+iTXb5FANlSzXNscoLm0IZ3AwbQxwkWO1E55IUlAb3Y+4DAs6+FHZbscQAMGBtuBdugoTcAyOfkqQB42H/CRjkUAgDDsjNWB/czBtwZaM65D9wbgrG4F/SLHZwoi1RAgs1aAJrX1Yjo96AUCmvJqGeV9/xTalqxuoECeA0nhJne8i/dttbmt98t5eRXr2zUtHMrIUjARAgl5i1Mi0bG9Bw1apQxKbkJ+IHBEFiEAOGGgZLZP+E0J88DDggqOwpJbIMwcLQZrQlAYN7iQ5MCDX85FT+fdgmQ4W+zDZkDUDA4m5xIfuLOpCAgvXr1sW3gANIJJwzUZ599rtmz5xi4YNpzfLpfv51T2mD11ltvmRZPts+MmfGz8Ynj4WhwhBNrAKsLWiFcHJm/9tprdd9999l3WBQACQDOWLFgOMjFNm42pnHGA03PlndAArqwRwGwxzogqQzzipXlcmo4qwR6ADyALRaly/ANT7gj48RNkgFCLCTaxUqpMYaxYqUqRt6nnE9GKzdQmelyt4H0L6BlTVqq2W3DFe7YNaEVYbZQos1UMABCz8EeUJ9JhVkRFExthI0deVgSBMS4EEa0WTK7Ih1IAAoE2WBwGJAgGtqMv+kDn8HI5LOAqbAC0J7JXjyHj8+ORDQv/jP9R9Dww9nhyXFoMl4NG3adpk+foc0221SVlRUGUJ9/Ns6AFkHr23cnE6Y2bVolBYSuj5xwxYxUZ9bjAAAEPUlEQVRPJnMXwAzQkgiGICMbsugjVg/nZMgeBR3YOck5CoCbsxy8A/cD14Q+ugAmcQJozSoL1gInRAFa2sAShN6M3wvsAIhz7bBo+I4YBUDKfNAXnge0sNRwVZKxHnkflhLPAxQ1BzpDWv3dRIUfHanCaT/JH2wY/zxZHtrQ7wv5fCovLFHViSer5KCDFfL5PUfY63EKFK2L8MOIXgbCvybLEsKGFsYNAUAAEoQK0zOZAJYDCVwN2keAEQy26SJQWCdEwGFYgmkwGFoIhkRDormSudCMjIGTjZw/wX1BUyJUABRCgmkNEBHnmDZtujp17KDvf/hR03/5xd6JkC7+/Xcz2xHcU089xYJ8qVwAFQey6nPgK5X3pePeVJdea3snCgVg4wAfwJfwCgf1+5jRyn3pWTWdM1M+yy2RvVKlAABR1qS5lu05QJ1OGaSwPy/pgpgJLQk6g0YnOYnz/wEGAk5EzhFcBAjtBEjgszP5AEiqAkS+A7Qfwoi2BBDw4xFwhBI3g9gB/cFk5n3JHlXmgBomO4AAENA/XADADoYlko8wAIqcRXnkkUftu6KiRurcqaMd/vr++x80d+4cbbJJF3NV9thjt6SA0Duh9B3XgKVDAsDJmOapMkQm3g/IM6cslZKnM9kDb5Gj4wEtGfu+Gr/zmnxTJikvWBU5hJc0m2ciRdZdn4K+HAU6bqKVu/dXy8OPUhgXj0xVSZ43SAokCFqh3d3yJ4yOlcB2Y8xMTE+CW/yg3bkf/xVTMpUL4MFFcfkXMO0Rbn4wvYlH8IO/TcyAOEayKfxpAx8cLY65THusmAA2mOAsEQJ+WDNsfiLvIxbDoYceZgBCLKFv3x1NqIkCs5Py4IMPqlN6fwSG9xEfAGRx1ZKdsFTomQn34qoS+IXm0JOfutTdCIeCKp82VRrztko/HasmK1aqIJSNU/xxjt1qSWSptayoiXK22UG5+wxQ3o47yVfkspsnf2ouKZDIBGZLVx9iz4VUr81H62/y97oQWPqBZYTwEGwEaAE/ljuTCfimix4N1Q4uKFYfSgMrE3BnD0V9LnN7yku16KMP1HTWLJV9PU45CxeoKBBUbijo2XSVwp6H+nQow561dSG/T0Ffnsqblihvm60U3Gpb5e/YTwWdusiSt1afXkyeRn86kMiwebXusEIBWGBZsNqCRUNch6DhhnI5cMXFZAMY8R7cOlxULM60Al8ooHDpKq2cMkV5CxeocPkShThgtWJF9UnhDYVu6exnfqNGymvTUqHmrVTRorXyu25muS3CuXn1qgeaBYl0zlIa2kJbonVdzo40NLnOmgAocBddhbUGPzuC3weQVqxWuKxMgWiC4HU24Ix6kU85ebnKbVQkUTApN4/9oNU9rI91nAWJjJrobGfqQoF0rr7U5f2Z8kxDpVjIgkSmzHC2H1kKZCgFsiCRoROT7VaWAplCgf8HsCZm2W9N1rMAAAAASUVORK5CYII=;" vertex="1" parent="1">
          <mxGeometry x="70.78" y="1488.34" width="115" height="225.66" as="geometry" />
        </mxCell>
      </root>
    </mxGraphModel>
  </diagram>
</mxfile>
